<svg width="244" height="240" viewBox="0 0 244 240" fill="none" xmlns="http://www.w3.org/2000/svg">
<g clip-path="url(#clip0_1_1398)">
<path d="M28.9568 70.4151C28.9568 70.4151 23.0143 69.3223 17.1344 68.6393C17.2296 68.4611 17.3308 68.2859 17.4617 68.1285C17.8932 67.6058 18.524 67.3 19.0834 66.9466C20.119 66.2962 21.3092 65.3786 21.1128 63.9889C20.9641 62.9376 20.0327 62.1091 19.0358 61.8508C16.938 61.3043 14.4562 62.8782 13.135 64.761C12.2691 65.7647 11.7067 66.9555 12.0162 68.173C11.3288 68.1315 10.6742 68.1077 10.0612 68.0988C3.32422 68.0186 -0.627487 66.2755 0.080719 62.219C0.303894 60.9332 3.5087 59.9027 7.96628 59.089C7.43958 60.2026 7.40089 61.438 8.3799 62.4655C10.1772 64.3512 13.2451 64.271 14.6437 62.0022C15.3222 60.9064 15.6674 59.3414 15.3787 58.0229C24.1391 57.0162 34.0005 56.55 37.1637 56.455C43.1865 56.2679 46.1116 56.4134 47.2215 54.5307C48.3344 52.648 43.2847 51.3057 36.2472 37.2001C29.2097 23.0945 36.4317 7.41504 38.6545 3.64959C40.6214 0.314728 50.459 -0.730571 57.9816 0.495874C57.5501 0.531509 57.1246 0.638414 56.7229 0.828469C54.9523 1.21749 53.6966 2.98737 54.4851 4.85524C55.3213 6.83597 58.0827 7.89314 60.005 6.93099C62.1088 5.87976 62.204 3.16851 60.6924 1.54711C60.4097 1.24421 60.0943 1.00961 59.761 0.837377C60.0913 0.911617 60.4186 0.991797 60.7341 1.07495C62.8379 1.6362 65.0577 2.16776 67.3401 2.76762C66.1617 3.4922 64.9357 4.13066 63.8764 5.01857C63.0313 5.72534 62.4123 6.75282 62.8706 7.83375C63.9151 10.2955 67.8549 12.4069 70.2354 10.7083C71.7024 9.66006 72.9671 6.8033 73.0712 4.42168C77.2997 5.80255 81.5906 7.6437 85.6376 10.4945C85.6376 10.4945 94.0736 3.50705 100.209 9.17304C106.345 14.8361 96.0167 26.5214 96.0167 26.5214C96.0167 26.5214 97.0612 30.964 96.2369 36.0598C95.4097 41.1556 94.9128 46.103 103.989 51.5136C113.061 56.9212 117.483 66.81 119.983 73.1471C122.485 79.4813 125.303 89.3136 136.072 96.7049C137.641 97.7829 139.295 98.9143 140.988 100.075C150.906 106.891 162.306 114.932 167.969 121.43C174.599 129.035 177.872 136.198 191.86 143.304C205.852 150.413 215.687 158.131 222.206 173.258C228.726 188.388 225.876 200.7 232.333 214.185C238.793 227.67 244.11 232.623 244 235.825C243.884 239.023 240.578 240.627 237.921 239.771C235.264 238.916 224.057 227.985 221.007 220.228C217.954 212.469 217.082 192.017 209.851 177.704C202.621 163.39 192.625 157.908 184.945 153.828C177.268 149.751 173.242 146.763 172.37 148.735C171.495 150.707 174.694 155.545 170.715 167.978C166.74 180.409 159.553 189.481 163.365 199.548C167.177 209.615 171.718 220.629 172.56 228.508C173.399 236.386 170.659 239.011 166.115 237.048C161.568 235.082 160.039 221.814 155.027 213.867C151.183 207.771 145.511 202.111 140.991 197.867C139.616 196.576 138.343 195.411 137.266 194.414C132.644 190.123 130.633 182.485 128.666 175.806C126.699 169.128 125.574 161.279 117.968 156.284C110.365 151.286 100.201 140.474 91.9757 128.085C83.7539 115.698 80.0016 106.196 73.3748 100.752C66.7479 95.3122 58.5648 90.7746 52.4617 88.6336C46.3615 86.4955 43.8947 85.8451 39.2943 85.4799C34.185 85.076 25.7222 85.9906 19.1459 86.9201C19.1727 86.8904 19.1965 86.8696 19.2203 86.8399C20.1339 85.8273 21.7169 84.5741 21.6574 83.0656C21.6157 81.9935 20.8272 81.0344 19.8809 80.5949C18.2949 79.8584 16.075 80.2534 14.5961 81.3759C13.9593 81.6223 13.388 81.9906 13.0368 82.6172C12.3465 83.8525 12.8077 85.5363 13.4356 86.7004C13.6498 87.0983 13.8849 87.419 14.1349 87.6833C13.3731 87.808 12.6708 87.9268 12.0787 88.0337C6.42488 89.0315 -1.56184 86.8667 1.20851 82.3588C3.97589 77.8539 26.0822 71.2347 28.9597 70.4151H28.9568ZM38.4224 4.87009C37.1339 7.20123 38.5533 9.04832 39.5323 9.65709C39.2764 10.2302 39.0294 10.8063 38.8092 11.3943C38.7021 11.6853 38.595 11.9763 38.4879 12.2674C38.2171 12.6118 37.9463 12.9593 37.6993 13.3245C37.0952 14.2243 36.4971 15.1033 35.7473 15.6527C35.286 15.9942 34.7861 16.2852 34.2505 16.3506C34.1791 16.3654 34.0571 16.502 34.0362 16.597C34.0184 16.6861 34.1106 16.8613 34.2058 16.8881C34.6879 17.0098 35.2592 16.9861 35.7473 16.7604C36.5834 16.3803 37.1934 15.6616 37.6844 14.9608C37.6487 15.136 37.6071 15.3053 37.5773 15.4834C37.4761 16.2229 37.4672 16.9979 37.6755 17.773C37.8898 18.5481 38.3123 19.2608 38.9312 19.8072C39.6692 20.508 40.9101 20.8317 41.9188 20.4516C42.9306 20.0863 43.615 19.332 44.1268 18.5718C44.2756 18.355 44.344 17.9482 44.2756 17.8829C44.2071 17.8146 43.9214 17.9631 43.7727 18.1442C43.0079 19.0737 41.9069 19.8398 40.8178 19.6884C39.8716 19.5637 39.08 18.7648 38.717 17.8532C38.351 16.9356 38.4135 15.8487 38.6515 14.8242C38.8479 14.0016 39.1246 13.1701 39.4163 12.3446C39.455 12.2703 39.5115 12.1902 39.5085 12.1189V12.0892C39.6097 11.8071 39.7079 11.519 39.8091 11.2399C39.9757 10.7974 40.1542 10.3579 40.3328 9.92138C41.6927 10.0699 44.0821 9.38388 44.6297 7.81593C45.2724 5.98369 39.5383 2.85373 38.4224 4.87009ZM234.011 235.857C235.115 235.932 235.942 235.257 236.317 234.263C236.653 233.378 236.74 232.463 237.138 231.587C237.46 230.877 237.829 230.23 237.79 229.431C237.746 228.46 237.138 227.727 236.171 227.534C234.931 227.287 233.282 227.905 232.389 228.76C231.601 229.514 231.467 230.414 231.47 231.468C231.47 233.125 231.872 235.709 234.011 235.857ZM226.533 221.137C226.593 222.245 226.801 223.412 227.545 224.282C229.187 226.209 231.437 225.027 232.321 223.07C233.074 221.401 232.755 220.101 231.779 219.159C230.821 217.752 228.47 216.228 227.11 217.87C226.417 218.708 226.48 220.127 226.533 221.137ZM217.71 197.662C217.749 197.909 217.913 198.135 217.984 198.372C218.323 199.474 218.302 200.293 218.389 201.413C218.579 203.943 220.692 207.468 223.721 205.847C225.033 205.146 225.257 203.866 225.039 202.518C224.822 201.169 225.191 200.282 225.533 199.043C225.721 198.375 225.715 197.74 225.536 197.068C225.007 195.067 223.296 194.143 221.555 194.271C221.543 194.268 221.534 194.262 221.519 194.262C220.195 194.253 218.749 194.461 217.975 195.676C217.544 196.359 217.594 196.908 217.71 197.662ZM215.127 185.814C215.809 188.284 219.118 189.677 221.382 188.424C223.62 187.186 224.013 183.42 222.138 181.73C220.924 180.641 218.662 180.807 217.198 181.793C215.666 182.419 214.639 184.044 215.127 185.814ZM205.129 167.375C205.736 168.008 206.534 168.278 207.298 168.655C208.343 169.172 208.843 169.644 209.244 170.832C209.36 171.177 209.357 171.571 209.521 171.907C210.066 173.035 211.336 173.632 212.565 173.436C216.216 172.848 215.892 168.002 214.3 165.701C212.61 163.26 209.712 162.404 207.105 163.257C206.185 163.325 205.314 163.616 204.745 164.441C204.052 165.448 204.317 166.529 205.129 167.375ZM194.625 156.085C195.997 157.374 197.97 158.297 199.877 157.748C201.439 157.297 202.722 155.821 202.603 154.146C202.442 151.892 200.13 150.888 198.681 149.555C197.273 148.26 196.253 145.418 193.875 145.748C193.667 145.778 193.473 145.834 193.292 145.908C193.247 145.917 193.205 145.917 193.161 145.938C188.816 148.002 192.226 153.831 194.625 156.085ZM175.253 146.021C177.399 148.073 182.654 148.694 182.767 144.524C182.841 141.783 180.133 141.362 179.062 139.345C178.119 137.576 178.25 135.577 176.077 134.624C174.465 133.917 172.524 135.265 171.828 136.863C170.287 139.633 173.17 144.025 175.253 146.021ZM33.9946 63.974C33.6464 62.7654 32.6377 61.7557 31.3462 61.6251C29.8137 61.4677 28.436 62.6585 26.9601 63.0208C25.9335 63.0356 24.8057 63.1425 24.1927 63.8909C23.5499 64.6778 23.6243 66.0706 23.9517 66.9793C24.3147 67.98 25.1955 68.761 26.3143 68.562C26.9422 68.4492 27.3856 67.977 27.9718 67.784C28.9389 67.4633 29.778 67.9384 30.7035 68.1225C33.1673 68.6125 34.6492 66.2398 33.9946 63.974ZM42.1926 60.0928C41.7284 59.6681 41.0916 59.5731 40.5143 59.8166C40.0203 60.0215 39.6633 60.4164 39.2734 60.7609C38.7378 61.0104 38.1129 61.1321 37.7737 61.6251C37.4315 62.124 37.4434 62.8278 37.735 63.3415C38.4879 64.6689 40.5411 64.6244 41.6748 63.8641C42.8859 63.0564 43.365 61.1677 42.1926 60.0928ZM51.5838 3.83964C50.9976 3.47438 50.2745 3.69116 49.7419 4.04751C49.2122 4.40387 48.7867 4.92651 48.6349 5.54419C48.5278 5.73722 48.4564 5.954 48.4445 6.1975C48.4118 6.84488 48.8194 7.47443 49.4116 7.73279C50.8578 8.36531 52.2802 7.00523 52.3843 5.59764C52.4319 4.95027 52.1552 4.19302 51.5838 3.83964ZM57.0145 8.23762C56.2914 7.53976 55.2469 7.54273 54.3393 7.8189C53.6103 8.03865 53.0449 8.51676 52.7176 9.0988C52.5093 9.31558 52.3397 9.568 52.2444 9.8709C52.0123 10.6192 52.1343 11.7477 52.7622 12.2733C53.4794 12.8702 54.4464 12.6534 55.1933 12.2495C56.0027 11.813 56.9222 11.2755 57.3299 10.4143C57.678 9.6749 57.6185 8.8256 57.0145 8.23762ZM65.8761 15.0974C65.6172 14.061 64.8851 13.1612 63.9924 12.6059C63.1176 12.006 61.8499 11.7685 60.7757 12.1515C59.4456 12.6297 58.5678 13.666 57.8982 14.7113C57.803 14.8628 57.7911 15.1657 57.8655 15.234C57.9399 15.2904 58.1809 15.2132 58.291 15.0944C58.8534 14.4708 59.5111 13.9392 60.1836 13.5087C60.7757 13.1315 61.4363 12.885 62.0939 12.9326C62.7486 12.9622 63.3884 13.2711 63.9151 13.7136C64.5251 14.2125 64.9625 14.8776 65.0905 15.6349C65.2303 16.3921 65.1321 17.1999 64.8881 17.966L64.8405 17.9482C64.8078 18.0907 64.7364 18.2511 64.7364 18.3669C64.7423 18.6045 64.7304 18.8688 64.7929 19.0262C64.8137 19.1004 65.0637 18.9846 65.1857 18.8421C65.3642 18.6401 65.5398 18.358 65.6439 18.0611C65.9742 17.1613 66.1587 16.1219 65.8761 15.0974ZM57.7554 31.1896C58.0381 32.131 58.7433 32.8883 59.6241 33.3099C61.8976 34.382 64.5519 32.3151 64.6501 29.981C64.7274 28.0775 63.2158 26.1413 61.1983 26.3225C60.5823 26.3789 59.9872 26.6254 59.4664 26.9966C58.1541 27.935 57.3031 29.6722 57.7554 31.1896ZM72.4077 16.8762C72.3303 18.0818 73.4254 19.4419 74.7227 19.0796C74.7466 19.0737 74.7674 19.0559 74.7912 19.047C75.303 19.0054 75.788 18.7767 76.1094 18.2956C76.895 17.1227 76.0172 15.5488 74.7793 15.1508C73.6247 14.7796 72.4821 15.721 72.4077 16.8762ZM82.5428 11.8991C81.8525 9.67787 78.3144 7.2428 76.2641 9.33043C75.9725 9.62739 75.7613 10.0105 75.6154 10.4292C75.3506 10.9548 75.2495 11.5695 75.3625 12.202C75.4012 12.4158 75.4667 12.6207 75.547 12.8197C75.5708 12.9058 75.5916 12.9919 75.6244 13.0721C75.9487 13.8947 76.5409 14.447 77.258 14.7648C77.4782 14.9014 77.7044 15.0261 77.9395 15.1301C79.1089 15.6438 80.4777 15.8695 81.5609 15.0499C82.5518 14.3015 82.9059 13.0662 82.5428 11.8991ZM83.498 53.6844C82.9207 55.7601 82.397 58.4149 84.6823 59.1811C85.5066 59.4573 86.435 59.2375 87.048 58.6139C87.4557 58.1982 87.5152 57.7794 87.6759 57.2538C87.908 56.4906 88.0925 55.9917 88.5805 55.3533C88.6995 55.2018 88.9019 55.1038 89.006 54.9405C89.5893 54.0318 88.9792 53.2656 88.3216 52.5589C87.5985 51.7808 86.9796 50.1208 85.8548 49.8328C84.2449 49.42 83.7093 51.7066 83.498 53.6844ZM86.7207 39.6292C86.3934 40.532 86.2714 41.5209 86.3071 42.5721C86.3606 44.149 86.441 46.9018 87.8217 48.0005C91.4758 50.9078 92.9666 43.7392 93.4279 41.8475C94.023 39.4214 92.4995 34.765 89.1042 36.0034C87.5331 36.5765 86.8784 37.99 86.7207 39.6292ZM97.6742 14.9786C97.3052 12.404 94.5051 10.9162 92.1543 11.9734C89.0417 13.375 89.9255 17.5978 92.6334 18.9163C95.2698 20.1992 98.067 17.7136 97.6742 14.9786ZM100.07 55.3028C99.1144 55.1662 98.4508 55.4008 97.5611 55.6473C96.4065 55.968 95.2817 55.8254 94.1272 56.1729C92.7048 56.5975 90.961 57.5924 90.6932 59.193C90.4671 60.5649 91.583 62.2309 92.7643 62.8664C94.4872 63.7958 96.0911 61.9725 97.6147 61.4617C100.135 61.6755 100.263 63.588 101.406 65.2925C101.691 65.7201 101.98 66.127 102.498 66.2992C103.762 66.712 104.822 65.6786 105.158 64.5531C106.122 61.3311 103.605 55.8046 100.07 55.3028ZM115.314 77.8272C114.561 75.7663 112.523 71.8642 110.232 71.2555C108.134 70.6972 106.012 72.8977 104.792 74.329C103.634 75.6831 103.084 77.1976 102.167 78.6884C101.221 80.2237 99.5905 81.2244 98.7157 82.8131C97.3201 85.3432 98.668 85.5006 100.364 87.0122C102.004 88.4732 103.524 91.0122 106.11 89.9283C106.827 89.6284 107.402 89.076 107.821 88.4346C108.214 87.8288 108.324 86.834 108.402 85.8124C108.449 85.5749 108.494 85.3225 108.55 85.0374C108.827 83.6743 109.523 82.5667 110.895 82.1034C111.339 81.9549 111.892 82.0025 112.353 81.8718C114.21 81.3402 116.064 79.8792 115.314 77.8272ZM123.807 90.4599C122.7 89.3581 120.998 87.027 119.209 87.1131C118.358 87.1547 117.611 87.7071 116.983 88.3752C113.767 90.1095 114.478 93.768 115.412 96.8594C116.332 99.8973 119.343 101.691 121.834 99.0093C122.664 98.1155 123.107 96.987 123.738 95.9655C124.173 95.2647 124.982 94.5668 125.22 93.7591C125.616 92.405 124.699 91.3507 123.807 90.4599ZM132.534 98.6768C131.817 96.7109 130.145 96.8534 128.669 97.5958C126.815 98.1541 125.086 99.8379 125.893 101.925C126.166 102.641 126.723 103.176 127.535 102.968C128.214 102.793 128.63 102.154 129.437 102.41C129.901 102.555 130.189 103.045 130.713 103.149C133.245 103.666 133.049 100.087 132.534 98.6768ZM145.696 106.148C144.505 103.591 142.681 103.983 140.988 105.091C140.167 105.629 139.375 106.329 138.7 106.953C137.968 107.488 137.391 107.903 137.051 109.216C136.647 110.799 135.918 112.292 136.831 113.848C137.703 115.336 139.637 115.746 140.988 114.953C141.443 114.683 141.836 114.279 142.095 113.727C142.687 112.468 142.306 110.537 143.791 109.792C144.372 109.498 144.86 109.727 145.395 109.183C146.211 108.364 146.151 107.128 145.696 106.148ZM162.199 152.709C162.485 151.622 163.205 152.59 163.913 152.709C164.559 152.818 164.945 152.931 165.576 152.602C167.192 151.752 167.002 149.543 166.463 148.103C164.91 143.948 161.238 146.265 158.577 148.495C156.744 149.861 154.855 151.767 154.322 153.855C153.879 155.607 155.048 157.496 156.286 158.695C159.524 161.843 162.726 158.116 162.505 154.627C162.476 154.143 162.08 153.157 162.199 152.706V152.709ZM159.063 145.671C160.274 144.129 161.282 140.878 159.185 139.494C157.125 138.131 155.117 141.78 154.132 143.096C153.126 144.23 152.329 145.43 153.834 146.873C155.563 148.53 157.851 147.209 159.063 145.671ZM152.927 163.117C151.477 162.372 150.106 163.129 149.049 164.222C147.758 165.315 145.496 167.839 147.57 168.937C148.508 169.433 149.165 168.596 149.993 168.346C151.016 168.038 151.924 168.599 152.927 167.925C154.423 166.918 154.709 164.035 152.927 163.117ZM148.014 161.701C148.597 161.528 149.088 161.151 149.57 160.798C150.275 160.281 151.079 159.963 151.79 159.473C153.891 158.027 153.932 154.517 151.76 153.089C149.639 151.696 147.731 153.127 146.41 154.811C144.806 156.489 143.446 158.773 145.187 160.801C145.889 161.623 146.957 162.012 148.014 161.701ZM144.749 143.096C144.943 143.152 145.107 143.209 145.255 143.262C146.58 144.557 147.121 146.894 148.993 147.069C150.269 147.185 150.992 146.086 151.201 144.964C151.888 141.267 149.442 137.552 145.883 136.578C143.815 136.008 142.905 136.869 140.988 137.335C140.95 137.344 140.917 137.356 140.875 137.365C139.67 137.641 138.361 137.804 137.935 139.182C137.575 140.358 138.254 141.65 139.224 142.291C139.747 142.642 140.363 142.808 140.988 142.879C141.327 142.921 141.67 142.942 142.006 142.93C143.11 142.897 143.592 142.76 144.749 143.096ZM145.273 120.343C144.565 120.744 144.038 121.341 143.779 122.223C143.535 123.045 143.64 123.844 143.381 124.679C143.101 125.575 142.794 125.825 142.315 126.54C141.905 127.143 141.628 127.722 141.655 128.471C141.783 132.046 145.987 131.301 148.07 130.163C151.597 128.236 153.069 125.017 151.204 121.195C149.859 118.442 147.258 118.757 145.273 120.343ZM154.022 111.479C152.754 110.715 151.338 112.022 150.329 113.26C149.621 113.857 148.829 114.561 148.671 115.274C148.463 116.212 149.27 117.29 149.856 117.929C151.305 119.508 153.37 119.128 154.382 117.278C155.215 115.752 155.893 112.598 154.022 111.479ZM156.56 128.132C155.953 127.428 154.965 127.5 154.242 127.996C153.76 128.328 153.45 128.854 153.096 129.302C152.885 129.569 152.656 129.804 152.421 130.033C151.864 130.294 151.269 130.508 150.823 130.927C150.159 131.547 149.966 132.465 150.275 133.32C151.076 135.524 154.057 135.473 155.703 134.33C156.7 133.638 157.31 132.59 157.363 131.375C157.405 130.404 157.227 128.907 156.56 128.132ZM168.9 127.856C168.07 125.697 166.228 125.667 164.437 124.575C163.455 123.978 162.684 123.61 161.827 124.076C160.369 124.411 158.89 124.964 158.211 126.401C157.393 128.141 158.426 130.021 158.607 131.776C158.765 133.311 158.402 134.927 159.803 135.969C161.018 136.869 162.979 136.916 164.341 136.37C167.522 135.096 170.215 131.268 168.9 127.856ZM169.391 155.868C168.1 154.452 166.234 156.029 164.856 157.588C162.928 159.548 160.08 162.743 161.464 165.139C161.937 165.956 162.788 166.223 163.675 165.959C164.547 165.698 165.207 164.908 165.945 164.43C166.799 163.88 167.793 163.675 168.638 163.138C170.611 161.891 170.989 157.617 169.391 155.868ZM164.556 172.186C165.567 171.601 166.389 170.627 166.043 169.407C164.838 165.119 158.985 167.907 156.114 169.083C155.998 169.125 155.882 169.169 155.771 169.217C155.652 169.264 155.527 169.315 155.423 169.35C155.328 169.386 155.263 169.442 155.215 169.505C154.679 169.816 154.209 170.208 153.861 170.743C152.751 172.448 152.653 174.868 153.075 176.798C153.885 180.507 158.307 180.774 160.286 177.704C160.91 176.733 160.756 175.75 161.101 174.713C161.723 172.84 163.172 172.985 164.556 172.186ZM164.636 226.901C164.71 227.421 164.978 227.967 165.142 228.457C165.35 229.084 165.487 229.817 165.871 230.367C167.011 232.006 168.855 230.88 169.451 229.437C170.162 227.709 170.159 225.253 168.704 223.884C167.323 222.583 166.085 223.581 165.377 224.849C164.966 225.47 164.535 226.173 164.636 226.901ZM159.643 215.804C159.824 217.579 161.717 218.77 162.517 220.291C163.056 221.318 163.648 222.423 164.945 222.551C166.097 222.663 167.213 221.894 167.746 220.917C169.213 218.218 167.65 212.873 165.145 211.198C162.859 209.671 161.312 211.257 160.434 213.232C159.887 213.968 159.542 214.821 159.643 215.804ZM155.239 209.226C157.59 211.043 160.744 209.731 160.366 206.491C160.303 205.948 160.044 205.422 160.006 204.878C159.943 203.985 160.36 203.017 160.497 202.146C160.628 201.321 160.768 200.498 160.622 199.661C160.381 198.289 159.559 196.944 158.2 196.445C155.149 195.328 154.081 198.396 153.596 201.015C152.715 203.955 152.578 207.168 155.239 209.226ZM148.172 200.086C150.174 201.547 151.656 199.204 152.085 197.454C152.332 196.436 151.995 195.539 151.549 194.63C151.177 193.876 150.826 192.855 149.871 192.706C146.458 192.169 146.071 198.553 148.172 200.086ZM143.05 190.708C143.821 190.924 143.937 190.616 144.672 190.52C145.705 190.387 146.806 189.864 147.948 190.283C149.29 190.776 150.466 192.718 151.733 193.475C153.221 194.366 155.057 194.725 156.331 193.309C159.357 189.935 156.42 182.696 152.323 181.585C150.043 180.964 147.496 182.393 145.66 183.589C144.619 184.269 143.732 185.045 143.089 185.953C142.687 186.414 142.351 186.912 142.11 187.462C141.583 188.662 141.524 190.274 143.05 190.708ZM134.284 176.255C134.93 179.322 137.932 180.961 140.988 181.353C142.315 181.523 143.654 181.46 144.812 181.169C148.606 180.222 152.132 175.515 148.868 172.008C147.645 170.695 145.773 170.262 144.113 170.989C143.282 171.355 142.631 172.082 141.83 172.48C141.557 172.519 141.274 172.471 140.988 172.385C140.009 172.088 138.98 171.26 138.042 171.218C137.31 171.188 136.569 171.423 135.956 171.815C134.442 172.783 133.927 174.562 134.284 176.255ZM128.827 153.787C129.246 154.455 129.904 154.859 130.609 155.167C131.796 155.684 133.186 156.272 133.519 157.793C133.629 158.306 133.281 158.957 133.37 159.518C133.62 161.068 135.031 161.745 136.501 161.799C138.438 161.87 139.994 160.854 140.988 159.387C142.283 157.469 142.61 154.775 141.548 152.706C141.363 152.349 141.176 152.011 140.988 151.687C139.268 148.723 137.242 147.099 133.344 147.295C132.097 147.357 130.737 147.966 129.737 148.887C128.38 150.137 127.684 151.963 128.827 153.787ZM127.562 132.423C129.541 135.476 134.534 133.813 136.59 131.847C138.932 129.611 140.929 124.423 137.673 122.086C136.781 121.445 135.703 121.213 134.787 121.908C134.207 122.347 134.037 122.95 133.739 123.58C133.344 124.411 132.897 125.068 132.377 125.65C129.96 127.44 125.785 129.685 127.562 132.423ZM127.913 119.206C130.178 119.128 133.251 118.567 134.04 116.082C134.713 113.97 133.713 111.324 132.388 109.685C131.023 107.992 128.731 106.558 126.476 107.081C124.771 107.476 123.012 108.631 121.381 109.869C119.022 110.858 116.204 112.096 115.371 114.098C114.707 115.696 115.385 118.389 116.936 119.283C119.031 120.488 120.846 119.042 122.509 118.012C122.685 117.828 122.845 117.635 122.994 117.427C124.298 116.797 124.896 116.996 124.789 118.021C124.967 118.217 125.003 118.594 125.202 118.793C125.8 119.381 127.217 119.229 127.913 119.206ZM117.897 151.47C118.409 152.257 119.281 152.643 120.203 152.447C120.667 152.346 121.081 152.094 121.471 151.839C122.238 151.328 122.923 150.942 123.789 150.6C125.672 149.852 126.018 146.974 124.446 145.683C123.214 144.673 121.73 144.881 120.45 145.582C120.358 145.564 120.257 145.57 120.147 145.638C119.075 146.288 118.019 146.983 117.614 148.233C117.293 149.234 117.311 150.568 117.897 151.47ZM114.323 138.493C114.915 138.968 115.499 138.989 116.228 139.001C117.287 139.016 118.349 139.013 119.412 139.04C120.855 139.072 122.224 138.674 122.831 137.243C124.003 134.478 121.646 129.371 118.677 128.658C116.707 128.183 115.252 129.376 114.427 130.989C112.797 133.062 112.038 136.649 114.323 138.493ZM111.648 105.085C112.383 104.658 113.615 103.909 113.898 103.051C114.18 102.19 113.978 100.559 113.674 99.6924C113.383 98.8638 112.651 98.0561 111.713 98.0116C110.604 97.9611 110.017 99.0598 109.059 99.3063C108.318 99.1341 107.482 99.1281 107.098 99.9269C106.688 100.782 107.012 102.558 107.265 103.431C107.913 105.685 109.675 106.228 111.648 105.085ZM101.361 132.367C102.197 133.225 103.364 133.442 104.435 132.875C104.974 132.587 105.331 132.168 105.714 131.717C106.134 131.227 106.176 131.054 106.75 130.508C107.524 129.774 107.547 129.95 108.345 129.665C111.38 128.575 109.223 124.931 107.351 123.853C105.429 122.742 103.843 122.947 102.51 123.903C102.501 123.909 102.495 123.909 102.489 123.912C100.947 124.97 99.7869 126.113 99.8286 128.082C99.8583 129.498 100.346 131.325 101.361 132.367ZM95.3948 116.485C95.5138 117.75 95.7311 119.223 96.7785 120.079C99.1918 122.05 101.415 118.603 101.679 116.488C101.956 114.276 99.9893 110.781 97.3588 112.2C96.2697 112.785 95.5436 114.047 95.4037 115.253C95.3918 115.369 95.3948 115.485 95.3918 115.598C95.368 115.874 95.3651 116.165 95.3948 116.485ZM92.553 104.435C93.2017 105.569 94.9008 106.306 96.1417 106.457C97.3528 106.6 98.3794 106.015 98.9805 104.969C99.4179 104.209 99.4536 103.381 99.6084 102.546C99.8286 101.343 100.418 100.545 100.814 99.4548C101.813 96.6871 97.942 93.5097 95.4127 93.572C94.0617 93.6076 92.8476 94.4035 92.5471 95.7517C92.2644 97.0375 93.1511 98.4243 93.41 99.728C93.2702 101.415 91.5919 102.745 92.553 104.435ZM92.9726 78.7804C95.8471 77.9727 96.8588 73.4411 96.3708 70.914C96.1774 69.9013 95.6388 68.7343 94.4634 68.6303C93.8266 68.5769 93.4368 68.8709 92.9815 69.254C92.5262 69.637 92.1096 70.0082 91.6693 70.3497C90.6456 70.6794 89.6637 70.6912 89.1102 71.9563C88.6579 72.9957 88.274 73.8598 87.667 74.8309C87.3605 75.3238 87.1254 75.8108 87.2801 76.3959C87.661 77.8183 89.1459 77.0373 90.0981 77.7322C91.0831 78.4478 91.5264 79.1873 92.9726 78.7804ZM90.9968 86.2044C90.6189 84.8681 89.8154 83.4605 88.4615 82.9141C87.5985 82.5667 86.7564 82.828 85.8756 82.6528C85.3995 82.5578 85.093 82.3202 84.721 82.1747C84.117 81.7738 83.4415 81.6609 82.6827 82.1895C81.3853 83.1012 80.0611 85.664 79.6743 87.1785C79.3886 88.2921 79.7011 89.1562 80.7872 89.6195C81.8078 90.056 82.9267 90.0144 83.9622 90.5252C84.8163 90.9439 85.6227 91.3834 86.5689 91.5527C89.9672 92.1585 91.8716 89.3106 90.9968 86.2044ZM82.2572 106.175C85.5394 105.777 87.2593 100.34 87.2772 97.6018C87.2861 96.3783 87.045 94.9677 85.8964 94.2877C84.9264 93.7116 83.7153 94.0442 82.6262 94.2283C81.4776 94.16 80.6414 93.961 79.7814 95.0241C78.6268 96.4525 78.4126 98.6827 78.3828 100.438C78.3441 102.828 79.0137 106.564 82.2572 106.175ZM76.2701 77.3224C76.7938 79.0061 78.5316 80.2979 80.1415 78.8873C81.6204 77.5926 81.0937 75.208 80.1415 73.7529C79.2755 72.4314 77.4663 71.8939 76.4129 72.9867C75.9368 73.1798 75.55 73.5124 75.4697 74.0885C75.3387 75.0595 75.9874 76.4107 76.2701 77.3224ZM79.2398 66.4566C81.5906 64.853 82.4 61.3311 80.8467 58.9019C80.2754 58.0051 79.2726 57.1499 78.1239 57.4231C76.889 57.72 76.0231 59.2702 75.303 60.357C73.9669 61.0727 71.8988 60.7104 71.1995 62.3229C70.6937 63.487 71.2055 64.8233 71.9851 65.7261C73.7556 67.7721 77.0616 67.9384 79.2398 66.4566ZM64.5399 86.8785C64.7304 87.4754 65.1053 87.9921 65.6469 88.3129C65.8999 88.4613 66.1944 88.5118 66.4622 88.6128C67.5484 89.0107 68.0513 89.3106 68.938 90.0827C71.1192 91.9862 74.571 91.2112 74.6543 87.9654C74.7347 84.8681 71.9316 81.9163 68.9083 81.5422C66.986 81.3076 65.1113 82.8577 64.7215 84.6781C64.409 85.3522 64.287 86.0916 64.5399 86.8785ZM57.9161 77.3461C58.7493 77.0165 59.3057 76.378 59.9128 75.7544C61.2727 74.3528 62.3885 74.5042 64.0847 73.9964C67.6793 72.9214 68.0721 69.0491 64.7602 67.3C61.9749 65.83 58.666 66.6853 56.4104 68.669C53.9287 70.5903 51.7058 73.6133 54.2084 76.378C55.1576 77.4293 56.583 77.8747 57.9161 77.3461ZM48.0398 84.4049C49.0307 83.8347 49.7538 82.929 50.9203 82.6736C51.7862 82.4865 52.6521 82.7063 53.518 82.6231C54.5625 82.5221 55.4701 82.0084 55.5504 80.8651C55.7171 78.4835 52.8604 77.557 50.468 77.3313C50.4025 77.2808 50.3251 77.2392 50.2269 77.2244C47.4655 76.8086 43.8976 78.2786 43.4126 81.3491C43.002 83.9535 45.8289 85.6699 48.0398 84.4049ZM48.263 74.813C50.8846 73.3787 53.2949 69.738 51.5838 66.7743C50.9768 65.7261 49.7955 65.0163 48.5576 65.2896C46.9834 65.64 46.7603 67.3564 45.8348 68.3453C44.3678 68.7313 42.1747 67.6444 40.7851 68.5294C39.6722 69.2421 39.3032 70.5665 39.7019 71.8048C40.6958 74.9021 45.5878 76.2741 48.263 74.813ZM31.1379 83.3774C31.7955 85.3967 35.8038 84.4524 37.1756 84.0099C39.0056 83.4219 40.9101 81.2957 39.7644 79.2734C39.2854 78.4241 38.2915 78.2251 37.4047 78.4627C36.1043 78.8131 35.1224 79.8346 33.8488 80.3157C33.6048 80.3127 33.3697 80.3187 33.1554 80.3721C32.7329 80.482 32.3728 80.6929 32.0634 80.9958C31.4891 81.557 30.8642 82.5399 31.1379 83.3774ZM21.3063 77.8836C21.6871 79.0032 22.8328 79.7604 24.0141 79.7129C25.8144 79.6446 26.7339 77.753 28.6086 77.649C30.7838 77.5243 35.1045 75.9267 33.4768 72.9125C32.0306 70.2339 27.4957 71.9088 25.0467 72.7997C24.0052 73.0046 22.9935 73.2837 22.2406 74.1211C21.4045 75.0536 20.8867 76.6542 21.3063 77.8836Z" fill="#E39949"/>
<path d="M59.466 26.9966C59.9867 26.6254 60.5819 26.3789 61.1978 26.3225C63.2153 26.1413 64.727 28.0775 64.6496 29.981C64.5544 32.3121 61.9001 34.382 59.6267 33.3099C58.7459 32.8882 58.0376 32.131 57.755 31.1896C57.3027 29.6692 58.1537 27.932 59.466 26.9966Z" fill="#F06985"/>
<path d="M92.636 18.9163C89.9281 17.5978 89.0443 13.375 92.1569 11.9734C94.5077 10.9162 97.3078 12.404 97.6768 14.9786C98.0696 17.7166 95.2724 20.2022 92.636 18.9163Z" fill="white"/>
<path d="M65.1853 18.8421C65.0633 18.9846 64.8133 19.1005 64.7925 19.0262C64.73 18.8688 64.7419 18.6016 64.7389 18.364C64.7389 18.2511 64.8103 18.0878 64.8401 17.9482L64.8877 17.9661C65.1347 17.1999 65.2299 16.3892 65.0901 15.6349C64.9621 14.8747 64.5247 14.2125 63.9147 13.7136C63.388 13.2711 62.7482 12.9623 62.0936 12.9326C61.4359 12.8851 60.7753 13.1316 60.1861 13.5087C59.5107 13.9393 58.856 14.4708 58.2906 15.0945C58.1805 15.2132 57.9395 15.2905 57.8651 15.234C57.7937 15.1657 57.8026 14.8628 57.8978 14.7114C58.5674 13.6691 59.4452 12.6297 60.7783 12.1516C61.8525 11.7685 63.1202 12.0061 63.995 12.6059C64.8907 13.1613 65.6197 14.061 65.8786 15.0974C66.1613 16.1219 65.9768 17.1613 65.6495 18.0641C65.5453 18.361 65.3698 18.6431 65.1912 18.8451L65.1853 18.8421Z" fill="#2B2C2B"/>
<path d="M40.3353 9.92148C40.1568 10.358 39.9783 10.7975 39.8116 11.24C39.7075 11.5221 39.6123 11.8072 39.5111 12.0893C39.5111 12.0982 39.5111 12.1101 39.5111 12.119C39.5111 12.1903 39.4575 12.2675 39.4188 12.3447C39.1272 13.1702 38.8505 14.0017 38.6511 14.8243C38.413 15.8488 38.3506 16.9357 38.7166 17.8533C39.0796 18.7649 39.8711 19.5638 40.8174 19.6885C41.9065 19.8399 43.0105 19.0738 43.7723 18.1443C43.924 17.9661 44.2067 17.8147 44.2751 17.883C44.3436 17.9483 44.2751 18.3551 44.1264 18.5719C43.6145 19.3321 42.9301 20.0864 41.9184 20.4517C40.9067 20.8318 39.6688 20.5081 38.9308 19.8102C38.3119 19.2609 37.8893 18.5511 37.6721 17.7761C37.4668 16.998 37.4727 16.223 37.5769 15.4865C37.6037 15.3054 37.6483 15.1361 37.684 14.9609C37.19 15.6617 36.583 16.3804 35.7439 16.7605C35.2559 16.9862 34.6845 17.0099 34.2025 16.8852C34.1043 16.8614 34.015 16.6862 34.0329 16.5942C34.0507 16.4991 34.1727 16.3625 34.2441 16.3477C34.7827 16.2824 35.2797 15.9913 35.7409 15.6498C36.4908 15.1005 37.0889 14.2215 37.6929 13.3187C37.9399 12.9564 38.2077 12.609 38.4815 12.2645C38.5886 11.9735 38.6957 11.6795 38.8029 11.3885C39.026 10.8005 39.273 10.2244 39.526 9.65422C38.547 9.04545 37.1276 7.19836 38.416 4.86723C39.5319 2.85087 45.2631 5.98082 44.6233 7.81307C44.0758 9.38102 41.6833 10.07 40.3264 9.91851L40.3353 9.92148Z" fill="#2B2C2B"/>
<path d="M134.284 176.255C134.929 179.322 137.932 180.961 140.988 181.353C142.315 181.523 143.654 181.46 144.812 181.169C148.606 180.222 152.132 175.515 148.867 172.008C147.644 170.696 145.773 170.262 144.112 170.99C143.282 171.355 142.63 172.082 141.83 172.48C141.556 172.519 141.274 172.471 140.988 172.385C140.009 172.088 138.979 171.26 138.042 171.218C137.31 171.189 136.569 171.423 135.956 171.815C134.441 172.783 133.927 174.562 134.284 176.255Z" fill="#2B2C2B"/>
<path d="M139.223 142.291C139.747 142.642 140.363 142.808 140.988 142.879C141.327 142.921 141.669 142.942 142.006 142.93C143.109 142.897 143.592 142.761 144.749 143.096C144.943 143.152 145.106 143.209 145.255 143.262C146.579 144.557 147.121 146.894 148.992 147.069C150.269 147.185 150.992 146.086 151.2 144.964C151.888 141.267 149.442 137.552 145.883 136.578C143.815 136.008 142.904 136.869 140.988 137.335C140.949 137.344 140.916 137.356 140.875 137.365C139.67 137.641 138.36 137.804 137.935 139.182C137.575 140.358 138.253 141.65 139.223 142.291Z" fill="#2B2C2B"/>
<path d="M127.565 132.426C125.788 129.685 129.96 127.44 132.379 125.653C132.897 125.071 133.343 124.414 133.739 123.583C134.037 122.953 134.206 122.35 134.789 121.911C135.706 121.219 136.783 121.448 137.676 122.089C140.928 124.426 138.932 129.614 136.593 131.85C134.537 133.816 129.543 135.476 127.567 132.426H127.565Z" fill="#2B2C2B"/>
<path d="M118.676 128.658C121.646 129.371 124.003 134.478 122.83 137.246C122.223 138.674 120.857 139.072 119.414 139.04C118.349 139.016 117.29 139.016 116.23 139.001C115.501 138.989 114.918 138.971 114.326 138.493C112.04 136.649 112.796 133.062 114.427 130.989C115.251 129.377 116.709 128.186 118.676 128.658Z" fill="#2B2C2B"/>
<path d="M120.146 145.638C120.256 145.573 120.357 145.564 120.45 145.582C121.729 144.884 123.214 144.673 124.446 145.685C126.017 146.974 125.672 149.855 123.788 150.603C122.925 150.945 122.238 151.331 121.47 151.841C121.081 152.1 120.667 152.352 120.203 152.45C119.28 152.646 118.408 152.26 117.9 151.476C117.313 150.573 117.293 149.237 117.617 148.236C118.019 146.986 119.078 146.291 120.149 145.641L120.146 145.638Z" fill="#2B2C2B"/>
<path d="M102.491 123.912C102.491 123.912 102.503 123.909 102.509 123.903C103.842 122.944 105.428 122.742 107.354 123.85C109.225 124.928 111.383 128.575 108.345 129.662C107.547 129.947 107.523 129.771 106.753 130.505C106.178 131.051 106.134 131.224 105.714 131.714C105.33 132.165 104.973 132.584 104.435 132.869C103.366 133.436 102.197 133.222 101.361 132.364C100.343 131.319 99.858 129.495 99.8282 128.079C99.7866 126.11 100.947 124.967 102.488 123.909L102.491 123.912Z" fill="#2B2C2B"/>
<path d="M95.4063 115.253C95.5462 114.05 96.2722 112.788 97.3613 112.2C99.9918 110.781 101.959 114.279 101.682 116.488C101.417 118.603 99.1973 122.05 96.7811 120.079C95.7336 119.223 95.5164 117.75 95.3974 116.485C95.3676 116.165 95.3706 115.874 95.3944 115.598C95.3944 115.482 95.3944 115.369 95.4063 115.253Z" fill="#2B2C2B"/>
<path d="M92.5496 95.7517C92.8472 94.4035 94.0642 93.6077 95.4122 93.572C97.9445 93.5067 101.816 96.6871 100.813 99.4518C100.417 100.542 99.8281 101.343 99.6079 102.543C99.4562 103.381 99.4175 104.206 98.9801 104.966C98.379 106.015 97.3524 106.6 96.1412 106.454C94.9004 106.306 93.2013 105.566 92.5526 104.432C91.5914 102.745 93.2697 101.412 93.4096 99.728C93.1507 98.4214 92.261 97.0346 92.5466 95.7517H92.5496Z" fill="#2B2C2B"/>
<path d="M107.264 103.431C107.014 102.561 106.687 100.785 107.101 99.927C107.485 99.1282 108.321 99.1342 109.062 99.3064C110.02 99.0599 110.606 97.9582 111.713 98.0116C112.65 98.0562 113.382 98.8639 113.674 99.6924C113.978 100.557 114.18 102.19 113.897 103.051C113.615 103.906 112.386 104.658 111.651 105.085C109.678 106.229 107.916 105.685 107.264 103.431Z" fill="#2B2C2B"/>
<path d="M127.916 119.206C127.219 119.229 125.803 119.381 125.205 118.79C125.002 118.591 124.967 118.214 124.791 118.018C124.898 116.993 124.3 116.794 123 117.424C122.851 117.632 122.687 117.825 122.512 118.009C120.851 119.039 119.036 120.486 116.938 119.277C115.388 118.386 114.71 115.69 115.373 114.092C116.206 112.09 119.024 110.852 121.387 109.863C123.018 108.625 124.773 107.473 126.478 107.075C128.734 106.552 131.025 107.986 132.391 109.679C133.715 111.318 134.715 113.964 134.046 116.076C133.254 118.561 130.18 119.122 127.919 119.203L127.916 119.206Z" fill="#2B2C2B"/>
<path d="M130.713 103.149C130.189 103.042 129.9 102.555 129.436 102.41C128.63 102.154 128.213 102.793 127.535 102.968C126.722 103.176 126.166 102.644 125.889 101.926C125.086 99.8379 126.815 98.1572 128.665 97.5989C130.141 96.8565 131.814 96.711 132.531 98.6798C133.046 100.09 133.242 103.669 130.71 103.152L130.713 103.149Z" fill="#2B2C2B"/>
<path d="M123.741 95.9655C123.107 96.99 122.664 98.1155 121.836 99.0093C119.346 101.694 116.334 99.8972 115.415 96.8623C114.48 93.771 113.769 90.1124 116.986 88.3782C117.614 87.707 118.361 87.1577 119.212 87.1161C121 87.03 122.702 89.3611 123.809 90.4628C124.702 91.3507 125.618 92.405 125.22 93.7591C124.982 94.5668 124.172 95.2676 123.741 95.9655Z" fill="#2B2C2B"/>
<path d="M112.353 81.8718C111.892 82.0025 111.338 81.955 110.898 82.1034C109.523 82.5667 108.83 83.6743 108.553 85.0374C108.496 85.3225 108.452 85.5749 108.404 85.8095C108.33 86.831 108.217 87.8288 107.824 88.4346C107.407 89.076 106.833 89.6284 106.113 89.9283C103.53 91.0093 102.006 88.4732 100.367 87.0122C98.6706 85.5007 97.3226 85.3403 98.7182 82.8102C99.593 81.2215 101.224 80.2237 102.17 78.6854C103.086 77.1947 103.637 75.6802 104.795 74.3261C106.015 72.8977 108.139 70.6942 110.237 71.2525C112.525 71.8613 114.564 75.7633 115.32 77.8272C116.069 79.8762 114.216 81.3373 112.356 81.8688L112.353 81.8718Z" fill="#2B2C2B"/>
<path d="M102.5 66.2993C101.98 66.13 101.694 65.7202 101.408 65.2955C100.266 63.591 100.138 61.6756 97.6172 61.4618C96.0967 61.9755 94.4898 63.7959 92.7669 62.8664C91.5855 62.2309 90.4697 60.565 90.6988 59.193C90.9666 57.5924 92.7103 56.5976 94.1327 56.1729C95.2873 55.8285 96.4091 55.968 97.5637 55.6503C98.4534 55.4038 99.12 55.1692 100.072 55.3058C103.607 55.8077 106.125 61.3341 105.161 64.5561C104.824 65.6816 103.765 66.715 102.503 66.3022L102.5 66.2993Z" fill="#2B2C2B"/>
<path d="M87.2827 76.3959C87.128 75.8109 87.3601 75.3239 87.6695 74.8309C88.2766 73.8599 88.6575 72.9957 89.1127 71.9563C89.6662 70.6913 90.6452 70.6794 91.6689 70.3528C92.1093 70.0113 92.5288 69.6401 92.9841 69.257C93.4394 68.8739 93.8292 68.5769 94.466 68.6334C95.6414 68.7343 96.18 69.9044 96.3734 70.917C96.8585 73.4441 95.8497 77.9757 92.9752 78.7835C91.529 79.1903 91.0826 78.4509 90.1007 77.7322C89.1485 77.0373 87.6636 77.8183 87.2827 76.3959Z" fill="#2B2C2B"/>
<path d="M88.3242 52.5589C88.9789 53.2657 89.5919 54.0289 89.0086 54.9405C88.9045 55.1039 88.7021 55.2019 88.5831 55.3533C88.0921 55.9888 87.9106 56.4907 87.6755 57.2538C87.5148 57.7795 87.4583 58.1982 87.0476 58.6139C86.4347 59.2375 85.5062 59.4543 84.682 59.1781C82.3967 58.412 82.9204 55.7572 83.4977 53.6814C83.7089 51.7066 84.2475 49.4171 85.8544 49.8299C86.9792 50.1179 87.5982 51.7779 88.3242 52.5589Z" fill="#2B2C2B"/>
<path d="M93.4275 41.8475C92.9663 43.7362 91.4754 50.9078 87.8213 48.0005C86.4406 46.9018 86.3602 44.149 86.3067 42.5721C86.271 41.5209 86.393 40.532 86.7203 39.6263C86.878 37.9871 87.5327 36.5735 89.1038 36.0004C92.5021 34.7621 94.0226 39.4184 93.4275 41.8446V41.8475Z" fill="#2B2C2B"/>
<path d="M81.5605 15.0499C80.4773 15.8695 79.1085 15.6438 77.9391 15.1301C77.704 15.0262 77.4778 14.9014 77.2606 14.7648C76.5405 14.4471 75.9483 13.8947 75.6269 13.0751C75.5942 12.995 75.5734 12.9059 75.5496 12.8227C75.4722 12.6238 75.4038 12.4189 75.3651 12.2021C75.252 11.5696 75.3532 10.9578 75.618 10.4292C75.7638 10.0135 75.9751 9.6304 76.2667 9.33344C78.317 7.24582 81.855 9.68089 82.5454 11.9021C82.9084 13.0692 82.5543 14.3046 81.5634 15.0529L81.5605 15.0499Z" fill="#2B2C2B"/>
<path d="M76.109 18.2957C75.7876 18.7768 75.3026 19.0055 74.7908 19.047C74.767 19.0559 74.7461 19.0738 74.7223 19.0797C73.4249 19.442 72.3329 18.0789 72.4072 16.8733C72.4816 15.7181 73.6243 14.7767 74.7789 15.1479C76.0168 15.5459 76.8916 17.1198 76.106 18.2957H76.109Z" fill="#2B2C2B"/>
<path d="M70.238 10.7084C67.8545 12.41 63.9147 10.2956 62.8732 7.83681C62.4149 6.75587 63.0339 5.72839 63.876 5.02163C64.9354 4.13075 66.1613 3.49228 67.3427 2.7677C68.2622 3.00824 69.1906 3.25768 70.1249 3.52495C70.1755 3.5398 70.2261 3.55464 70.2797 3.56949C71.2051 3.83676 72.1395 4.1159 73.0739 4.42177C72.9697 6.80339 71.705 9.66014 70.241 10.7084H70.238Z" fill="#2B2C2B"/>
<path d="M60.0046 6.93109C58.0823 7.89324 55.3209 6.8331 54.4847 4.85534C53.6932 2.9845 54.9519 1.21758 56.7224 0.828567C57.1212 0.638512 57.5497 0.531607 57.9811 0.495972C58.5911 0.593968 59.1863 0.709783 59.7576 0.837476C60.0909 1.00971 60.4063 1.24134 60.689 1.54424C62.2036 3.16564 62.1054 5.87688 60.0016 6.92812L60.0046 6.93109Z" fill="#2B2C2B"/>
<path d="M57.014 8.23769C57.6211 8.8227 57.6806 9.67497 57.3294 10.4144C56.9218 11.2756 56.0023 11.8131 55.1959 12.2496C54.449 12.6535 53.4819 12.8703 52.7647 12.2734C52.1369 11.7478 52.0149 10.6193 52.247 9.87097C52.3422 9.56807 52.5118 9.31565 52.7201 9.09887C53.0474 8.5198 53.6128 8.04169 54.3419 7.81897C55.2494 7.5428 56.2939 7.53983 57.017 8.23769H57.014Z" fill="#2B2C2B"/>
<path d="M49.4112 7.73279C48.819 7.47444 48.4143 6.84191 48.4441 6.19751C48.456 5.95103 48.5303 5.73722 48.6375 5.54123C48.7892 4.92355 49.2118 4.4009 49.7444 4.04455C50.2771 3.6882 51.0002 3.47142 51.5864 3.83668C52.1577 4.19303 52.4344 4.95028 52.3868 5.59765C52.2827 7.00524 50.8603 8.36532 49.4141 7.73279H49.4112Z" fill="#2B2C2B"/>
<path d="M78.1266 57.4231C79.2722 57.1469 80.278 58.0022 80.8493 58.899C82.4026 61.3311 81.5933 64.853 79.2425 66.4537C77.0643 67.9355 73.7583 67.7692 71.9877 65.7231C71.2081 64.8233 70.6993 63.487 71.2051 62.32C71.9044 60.7075 73.9696 61.0698 75.3056 60.3571C76.0287 59.2672 76.8917 57.7201 78.1296 57.4231H78.1266Z" fill="#2B2C2B"/>
<path d="M76.4126 72.9868C77.466 71.891 79.2752 72.4315 80.1411 73.753C81.0933 75.2081 81.62 77.5926 80.1411 78.8874C78.5313 80.295 76.7935 79.0062 76.2697 77.3224C75.987 76.4108 75.3383 75.0596 75.4693 74.0885C75.5466 73.5124 75.9365 73.1798 76.4126 72.9868Z" fill="#2B2C2B"/>
<path d="M84.7236 82.1748C85.0955 82.3203 85.402 82.5578 85.8781 82.6529C86.756 82.8281 87.6011 82.5668 88.464 82.9142C89.8179 83.4606 90.6214 84.8682 90.9963 86.2045C91.8712 89.3107 89.9697 92.1586 86.5715 91.5528C85.6222 91.3835 84.8188 90.947 83.9648 90.5253C82.9292 90.0145 81.8104 90.0561 80.7897 89.6196C79.7036 89.1563 79.3912 88.2921 79.6768 87.1785C80.0637 85.664 81.3878 83.1013 82.6882 82.1926C83.444 81.661 84.1225 81.7768 84.7266 82.1777L84.7236 82.1748Z" fill="#2B2C2B"/>
<path d="M82.6257 94.2283C83.7148 94.0442 84.9259 93.7116 85.896 94.2877C87.0446 94.9707 87.2857 96.3783 87.2767 97.6018C87.2559 100.34 85.5389 105.777 82.2568 106.172C79.0133 106.564 78.3437 102.828 78.3824 100.438C78.4092 98.6827 78.6235 96.4525 79.781 95.0241C80.641 93.961 81.4801 94.16 82.6257 94.2283Z" fill="#2B2C2B"/>
<path d="M74.657 87.9655C74.5736 91.2112 71.1219 91.9863 68.9377 90.0828C68.051 89.3107 67.551 89.0107 66.4649 88.6128C66.1941 88.5148 65.8995 88.4614 65.6496 88.3129C65.108 87.9922 64.7301 87.4755 64.5426 86.8786C64.2927 86.0916 64.4117 85.3522 64.7241 84.6781C65.1169 82.8548 66.9886 81.3046 68.9109 81.5422C71.9372 81.9164 74.7403 84.8682 74.6599 87.9655H74.657Z" fill="#2B2C2B"/>
<path d="M64.0842 73.9964C62.3911 74.5042 61.2752 74.3498 59.9123 75.7544C59.3053 76.3781 58.7488 77.0165 57.9156 77.3461C56.5825 77.8747 55.1572 77.4293 54.205 76.3781C51.7024 73.6163 53.9253 70.5933 56.4099 68.669C58.6625 66.6853 61.9745 65.83 64.7597 67.3C68.0716 69.0491 67.6759 72.9214 64.0842 73.9964Z" fill="#2B2C2B"/>
<path d="M50.2265 77.2245C50.3247 77.2393 50.4021 77.2809 50.4676 77.3314C52.86 77.5571 55.7167 78.4836 55.55 80.8652C55.4697 82.0085 54.5621 82.5222 53.5176 82.6232C52.6517 82.7063 51.7858 82.4866 50.9199 82.6737C49.7534 82.9291 49.0303 83.8348 48.0364 84.402C45.8255 85.67 42.9986 83.9506 43.4093 81.3463C43.8943 78.2757 47.4621 76.8057 50.2236 77.2185L50.2265 77.2245Z" fill="#2B2C2B"/>
<path d="M51.5835 66.7773C53.2945 69.738 50.8872 73.3788 48.2626 74.8131C45.5875 76.2741 40.6955 74.9051 39.7016 71.8049C39.3028 70.5665 39.6718 69.2421 40.7877 68.5294C42.1744 67.6445 44.3674 68.7313 45.8374 68.3453C46.7629 67.3564 46.9831 65.64 48.5572 65.2896C49.7951 65.0164 50.9764 65.7231 51.5835 66.7744V66.7773Z" fill="#2B2C2B"/>
<path d="M41.6745 63.8642C40.5407 64.6214 38.4875 64.669 37.7376 63.3415C37.446 62.8248 37.4341 62.124 37.7763 61.6251C38.1155 61.1322 38.7404 61.0104 39.2731 60.761C39.6629 60.4165 40.02 60.0215 40.5139 59.8166C41.0912 59.5761 41.731 59.6681 42.1952 60.0928C43.3676 61.1678 42.8856 63.0565 41.6745 63.8672V63.8642Z" fill="#2B2C2B"/>
<path d="M30.7031 68.1225C29.7777 67.9384 28.9415 67.4633 27.9715 67.784C27.3853 67.977 26.9419 68.4492 26.314 68.562C25.1952 68.761 24.3144 67.98 23.9543 66.9792C23.627 66.0705 23.5526 64.6778 24.1953 63.8909C24.8083 63.1425 25.9361 63.0356 26.9597 63.0208C28.4386 62.6614 29.8134 61.4677 31.3459 61.6251C32.6403 61.7587 33.6461 62.7683 33.9972 63.974C34.6519 66.2398 33.17 68.6125 30.7061 68.1225H30.7031Z" fill="#2B2C2B"/>
<path d="M33.4764 72.9125C35.104 75.9266 30.7833 77.5243 28.6081 77.649C26.7334 77.7559 25.814 79.6476 24.0107 79.7159C22.8323 79.7604 21.6837 79.0061 21.3028 77.8866C20.8833 76.6572 21.401 75.0566 22.2372 74.1241C22.99 73.2837 24.0018 73.0075 25.0433 72.7997C27.4922 71.9117 32.0272 70.2339 33.4734 72.9155L33.4764 72.9125Z" fill="#2B2C2B"/>
<path d="M39.767 79.2734C40.9127 81.2957 39.0053 83.419 37.1782 84.007C35.8034 84.4494 31.7982 85.3938 31.1376 83.3744C30.8638 82.537 31.4887 81.5541 32.063 80.9928C32.3755 80.6899 32.7325 80.4791 33.1581 80.3692C33.3693 80.3157 33.6074 80.3068 33.8514 80.3128C35.125 79.8317 36.107 78.8102 37.4073 78.4597C38.2941 78.2222 39.288 78.4211 39.77 79.2704L39.767 79.2734Z" fill="#2B2C2B"/>
<path d="M158.199 196.448C159.559 196.947 160.38 198.289 160.621 199.664C160.767 200.501 160.627 201.324 160.496 202.149C160.36 203.02 159.943 203.988 160.005 204.882C160.044 205.425 160.303 205.951 160.366 206.494C160.743 209.734 157.589 211.046 155.238 209.226C152.578 207.168 152.715 203.955 153.596 201.015C154.081 198.396 155.149 195.328 158.199 196.445V196.448Z" fill="#2B2C2B"/>
<path d="M149.873 192.706C150.828 192.855 151.18 193.876 151.552 194.63C151.998 195.539 152.334 196.436 152.084 197.455C151.659 199.204 150.174 201.547 148.171 200.086C146.07 198.553 146.457 192.169 149.87 192.703L149.873 192.706Z" fill="#2B2C2B"/>
<path d="M142.11 187.462C142.351 186.913 142.687 186.411 143.089 185.953C143.731 185.045 144.618 184.27 145.657 183.59C147.496 182.39 150.043 180.964 152.319 181.582C156.417 182.696 159.354 189.936 156.327 193.306C155.054 194.726 153.218 194.363 151.727 193.472C150.459 192.715 149.284 190.773 147.942 190.28C146.799 189.858 145.698 190.384 144.666 190.518C143.931 190.613 143.815 190.921 143.044 190.705C141.517 190.274 141.577 188.659 142.104 187.459L142.11 187.462Z" fill="#2B2C2B"/>
<path d="M149.049 164.222C150.108 163.126 151.477 162.369 152.926 163.117C154.709 164.035 154.423 166.918 152.926 167.925C151.923 168.599 151.013 168.038 149.992 168.347C149.165 168.596 148.507 169.433 147.57 168.938C145.496 167.839 147.758 165.315 149.049 164.225V164.222Z" fill="#2B2C2B"/>
<path d="M161.1 174.713C160.755 175.75 160.91 176.733 160.285 177.704C158.306 180.774 153.884 180.507 153.075 176.801C152.652 174.868 152.751 172.451 153.861 170.746C154.209 170.211 154.679 169.819 155.215 169.508C155.262 169.445 155.328 169.389 155.423 169.356C155.527 169.318 155.649 169.27 155.771 169.223C155.881 169.172 155.997 169.131 156.113 169.086C158.985 167.91 164.841 165.125 166.046 169.413C166.388 170.633 165.57 171.607 164.558 172.192C163.172 172.991 161.725 172.845 161.103 174.719L161.1 174.713Z" fill="#2B2C2B"/>
<path d="M163.674 165.959C162.788 166.226 161.937 165.959 161.463 165.139C160.08 162.746 162.928 159.548 164.856 157.588C166.234 156.029 168.099 154.452 169.391 155.868C170.989 157.62 170.611 161.891 168.638 163.141C167.793 163.675 166.799 163.88 165.945 164.433C165.207 164.908 164.546 165.698 163.674 165.959Z" fill="#2B2C2B"/>
<path d="M156.286 158.698C155.051 157.499 153.878 155.61 154.325 153.858C154.857 151.77 156.744 149.861 158.58 148.498C161.24 146.268 164.909 143.951 166.466 148.106C167.004 149.546 167.195 151.758 165.579 152.608C164.951 152.937 164.564 152.825 163.915 152.715C163.207 152.593 162.487 151.625 162.201 152.715C162.082 153.166 162.478 154.152 162.511 154.636C162.731 158.128 159.529 161.852 156.289 158.704L156.286 158.698Z" fill="#2B2C2B"/>
<path d="M154.131 143.099C155.116 141.784 157.125 138.134 159.184 139.494C161.282 140.878 160.273 144.132 159.059 145.671C157.848 147.209 155.563 148.53 153.834 146.876C152.325 145.433 153.123 144.233 154.131 143.099Z" fill="#2B2C2B"/>
<path d="M151.79 159.473C151.078 159.963 150.278 160.281 149.573 160.798C149.091 161.151 148.597 161.528 148.016 161.701C146.96 162.012 145.892 161.623 145.19 160.801C143.449 158.773 144.809 156.486 146.416 154.811C147.737 153.127 149.644 151.696 151.763 153.089C153.935 154.517 153.896 158.027 151.793 159.473H151.79Z" fill="#2B2C2B"/>
<path d="M128.826 153.787C129.246 154.455 129.903 154.859 130.609 155.167C131.796 155.684 133.186 156.272 133.519 157.793C133.629 158.306 133.281 158.957 133.37 159.518C133.62 161.068 135.031 161.745 136.5 161.799C138.438 161.87 139.994 160.854 140.988 159.387C142.282 157.469 142.61 154.775 141.547 152.706C141.363 152.349 141.175 152.011 140.988 151.687C139.268 148.723 137.241 147.099 133.343 147.295C132.096 147.357 130.737 147.966 129.737 148.887C128.38 150.137 127.684 151.963 128.826 153.787Z" fill="#2B2C2B"/>
<path d="M136.831 113.848C137.703 115.336 139.637 115.746 140.988 114.953C141.443 114.683 141.836 114.279 142.095 113.727C142.687 112.468 142.306 110.537 143.791 109.792C144.371 109.498 144.859 109.727 145.395 109.183C146.21 108.364 146.151 107.128 145.695 106.148C144.505 103.591 142.681 103.983 140.988 105.091C140.167 105.629 139.375 106.329 138.7 106.953C137.967 107.488 137.39 107.903 137.051 109.216C136.646 110.799 135.917 112.292 136.831 113.848Z" fill="#2B2C2B"/>
<path d="M149.858 117.932C149.272 117.293 148.466 116.212 148.671 115.274C148.829 114.561 149.623 113.857 150.328 113.26C151.337 112.019 152.754 110.716 154.021 111.476C155.89 112.598 155.214 115.749 154.381 117.275C153.37 119.125 151.304 119.506 149.855 117.929L149.858 117.932Z" fill="#2B2C2B"/>
<path d="M151.203 121.195C153.072 125.017 151.596 128.236 148.073 130.161C145.987 131.298 141.785 132.046 141.657 128.468C141.631 127.72 141.907 127.143 142.315 126.538C142.797 125.825 143.101 125.572 143.38 124.676C143.639 123.841 143.535 123.042 143.779 122.22C144.041 121.338 144.568 120.741 145.273 120.34C147.261 118.754 149.858 118.44 151.203 121.192V121.195Z" fill="#2B2C2B"/>
<path d="M155.703 134.33C154.057 135.473 151.075 135.524 150.278 133.32C149.968 132.465 150.162 131.547 150.825 130.927C151.269 130.511 151.867 130.294 152.42 130.036C152.655 129.807 152.885 129.57 153.099 129.305C153.453 128.857 153.762 128.328 154.244 127.999C154.968 127.503 155.955 127.431 156.563 128.135C157.232 128.91 157.411 130.407 157.369 131.378C157.315 132.593 156.705 133.641 155.709 134.333L155.703 134.33Z" fill="#2B2C2B"/>
<path d="M164.341 136.37C162.981 136.913 161.02 136.869 159.806 135.966C158.405 134.924 158.768 133.311 158.61 131.773C158.428 130.018 157.396 128.138 158.214 126.401C158.893 124.964 160.368 124.411 161.827 124.076C162.684 123.61 163.454 123.978 164.436 124.575C166.228 125.667 168.07 125.694 168.9 127.853C170.215 131.265 167.519 135.096 164.338 136.37H164.341Z" fill="#2B2C2B"/>
<path d="M176.08 134.627C178.249 135.58 178.121 137.579 179.062 139.348C180.133 141.365 182.844 141.784 182.769 144.524C182.656 148.694 177.401 148.076 175.256 146.024C173.173 144.029 170.289 139.637 171.831 136.866C172.527 135.265 174.467 133.92 176.08 134.627Z" fill="#2B2C2B"/>
<path d="M193.163 145.941C193.208 145.92 193.25 145.917 193.291 145.908C193.476 145.834 193.669 145.778 193.875 145.751C196.252 145.421 197.273 148.263 198.68 149.558C200.133 150.891 202.445 151.895 202.602 154.149C202.721 155.824 201.436 157.3 199.877 157.751C197.969 158.3 195.996 157.377 194.625 156.088C192.226 153.834 188.819 148.005 193.163 145.944V145.941Z" fill="#2B2C2B"/>
<path d="M207.149 163.257C209.756 162.404 212.654 163.257 214.344 165.701C215.936 167.999 216.261 172.846 212.607 173.434C211.381 173.632 210.107 173.036 209.562 171.904C209.402 171.569 209.405 171.174 209.286 170.829C208.884 169.641 208.384 169.169 207.34 168.652C206.575 168.275 205.777 168.005 205.17 167.373C204.358 166.526 204.093 165.442 204.787 164.436C205.355 163.61 206.227 163.319 207.146 163.251L207.149 163.257Z" fill="#2B2C2B"/>
<path d="M217.243 181.793C218.707 180.807 220.968 180.641 222.182 181.733C224.057 183.42 223.664 187.189 221.426 188.427C219.162 189.68 215.853 188.287 215.172 185.817C214.684 184.047 215.71 182.422 217.243 181.796V181.793Z" fill="#2B2C2B"/>
<path d="M221.563 194.262C221.563 194.262 221.584 194.268 221.599 194.271C223.34 194.143 225.051 195.067 225.581 197.069C225.759 197.743 225.762 198.378 225.581 199.046C225.238 200.285 224.866 201.172 225.084 202.521C225.301 203.866 225.078 205.146 223.765 205.85C220.736 207.471 218.623 203.946 218.433 201.416C218.35 200.296 218.367 199.477 218.031 198.375C217.96 198.138 217.796 197.915 217.757 197.668C217.638 196.914 217.588 196.362 218.022 195.682C218.796 194.464 220.242 194.256 221.566 194.268L221.563 194.262Z" fill="#2B2C2B"/>
</g>
<defs>
<clipPath id="clip0_1_1398">
<rect width="244" height="240" fill="white" transform="matrix(-1 0 0 1 244 0)"/>
</clipPath>
</defs>
</svg>
