<svg width="135" height="114" viewBox="0 0 135 114" fill="none" xmlns="http://www.w3.org/2000/svg">
<g clip-path="url(#clip0_1_1355)">
<path d="M9.53805 60.3123C18.5772 63.5489 25.8638 62.0927 25.8638 62.0927C25.8638 62.0927 27.0671 62.4462 29.0921 63.128C29.3101 62.9428 29.5072 62.7619 29.6539 62.5893L34.9617 64.2854C34.9617 64.2854 34.8401 64.6011 34.6137 65.1188C38.8985 66.7602 44.3236 69.0498 49.8829 71.9623C51.0778 71.3478 51.7696 71.0111 51.7696 71.0111L56.1634 73.7847C56.1634 73.7847 55.8699 74.2435 55.35 75.0221C55.8699 75.3336 56.3898 75.6493 56.9054 75.9691C61.9197 79.1005 66.2464 82.3076 69.9568 85.3758C70.6318 85.2538 71.0175 85.2075 71.0175 85.2075L76.3924 88.8986C76.3924 88.8986 76.2499 89.5552 75.9145 90.6537C82.8531 97.2194 86.5677 102.312 87.6033 103.133C88.9491 104.198 91.8084 102.64 91.2885 100.73C90.9573 99.5132 85.1003 92.6739 76.1031 85.0012C75.4575 85.6241 75.0717 85.8935 75.0717 85.8935L71.2314 82.4044C71.2314 82.4044 71.005 81.7857 70.7115 80.7125C64.6113 79.2352 59.4377 76.5962 58.9724 72.4842C58.6621 72.2948 58.3519 72.1012 58.0332 71.9118C57.4127 71.5414 56.8048 71.1837 56.1969 70.8344C55.9076 71.3394 55.7315 71.613 55.7315 71.613L52.6835 69.5801C52.6835 69.5801 52.5326 69.2476 52.2853 68.6584C45.3298 64.9378 39.4058 62.5556 34.9952 61.0657C34.6011 61.6886 34.3495 62.0169 34.3495 62.0169L30.6643 60.6111C30.6643 60.6111 30.4924 60.2492 30.2199 59.6052C27.8176 58.9571 26.4885 58.7466 26.4885 58.7466C26.4885 58.7466 20.925 51.8863 13.1814 49.8829C-0.0544939 46.4611 -2.42748 56.0277 9.53386 60.3123H9.53805Z" fill="#76C4D5"/>
<path d="M71.0134 85.2075C71.0134 85.2075 70.6277 85.2538 69.9527 85.3759C66.8502 85.9356 57.3499 88.1116 47.7783 94.9888C36.1188 103.373 40.0053 118.377 56.2346 112.767C69.395 108.221 74.4596 95.355 75.9061 90.6453C76.2457 89.5468 76.384 88.8902 76.384 88.8902L71.0092 85.1991L71.0134 85.2075Z" fill="#76C4D5"/>
<path d="M70.7073 80.7083C71.0008 81.7857 71.2272 82.4002 71.2272 82.4002L75.0676 85.8893C75.0676 85.8893 75.4533 85.6199 76.0989 84.997C76.7446 84.3741 77.6544 83.3977 78.6983 81.9835C77.1387 81.8404 75.6503 81.6637 74.3045 81.4406C73.0887 81.2386 71.8812 80.9902 70.7031 80.7083H70.7073Z" fill="#76C4D5"/>
<path d="M87.7248 56.0699C84.1612 57.1642 79.7548 57.8965 75.143 57.1515C73.902 56.9495 72.6736 56.7265 71.4619 56.4823C71.2104 57.08 70.9798 57.7029 70.7911 58.3679C70.07 60.9184 69.6549 63.389 69.4453 65.7207C71.6548 65.8512 74.1535 66.1921 76.9248 66.6887C79.5955 67.1685 82.4506 67.964 85.2219 68.8815C85.8843 66.9202 86.5174 64.7569 87.0917 62.3705C87.6829 59.9167 87.8548 57.8292 87.7248 56.0657V56.0699Z" fill="#76C4D5"/>
<path d="M51.7654 71.0153C51.7654 71.0153 51.0737 71.3478 49.8788 71.9665C46.508 73.7048 39.0285 77.7284 31.0291 83.1872C20.1955 90.5821 17.9651 95.6327 21.4533 98.7556C24.9373 101.879 32.5468 100.069 40.6719 92.7286C47.1997 86.8321 53.2286 78.1956 55.3459 75.0221C55.8657 74.2477 56.1592 73.7847 56.1592 73.7847L51.7654 71.0111V71.0153Z" fill="#76C4D5"/>
<path d="M55.7358 71.6088C55.7358 71.6088 55.9118 71.3353 56.2011 70.8302C57.4505 68.6458 60.8465 62.0464 61.7437 53.7424C57.0816 51.8863 53.8617 49.4452 53.5976 46.2886C53.258 42.1976 55.1446 39.6766 61.3538 39.4577C60.9722 37.9004 60.4272 36.5199 59.6977 35.3499C55.4716 34.7691 51.9918 33.6201 49.7069 31.8734C46.6589 33.5864 45.1663 38.557 46.2774 46.8315C47.6483 57.0295 51.1198 65.8722 52.2895 68.6543C52.5368 69.2393 52.6878 69.576 52.6878 69.576L55.7358 71.6088Z" fill="#76C4D5"/>
<path d="M29.6497 62.5935C29.503 62.7661 29.3059 62.947 29.0879 63.1322C24.124 67.3284 1.37101 74.2646 0.0503581 83.545C-0.804921 89.5594 9.24042 93.0822 19.9063 84.5088C28.8951 77.2823 33.4105 67.905 34.6095 65.123C34.8317 64.6053 34.9575 64.2897 34.9575 64.2897L29.6497 62.5935Z" fill="#76C4D5"/>
<path d="M34.3537 62.0126C34.3537 62.0126 34.6052 61.6844 34.9993 61.0615C36.2571 59.0791 39.0158 54.0201 40.1394 46.3053C41.6152 36.1705 38.0473 24.7015 31.9052 24.9035C25.7631 25.1013 24.2287 32.4289 25.7296 42.9635C26.8993 51.1876 29.2471 57.3114 30.224 59.6052C30.4965 60.2491 30.6684 60.6111 30.6684 60.6111L34.3537 62.0169V62.0126Z" fill="#76C4D5"/>
<path d="M85.8591 29.0871C85.8591 29.0871 85.5699 29.5164 84.9242 30.1519C87.6829 34.6553 90.7602 40.5645 93.259 47.6269C94.0975 48.052 94.5671 48.3172 94.5671 48.3172L95.8709 52.4123C95.8709 52.4123 95.5397 52.6312 94.9486 52.9679C96.8813 59.9798 98.0259 67.5893 98.7177 74.3234C99.6904 74.7822 100.256 75.06 100.256 75.06L100.336 79.5718C100.026 79.8117 99.6442 80.0264 99.2376 80.2326C99.7449 87.1098 99.7994 92.2572 99.9 93.4862C100.009 94.8204 102.734 94.3364 103.288 93.2547C103.543 92.7538 103.661 86.933 103.028 78.8816C102.78 78.89 102.529 78.9026 102.311 78.8942L102.026 74.4034C102.026 74.4034 102.147 73.9446 102.466 73.0271C101.648 65.8216 100.252 57.6271 97.9504 50.047C97.397 50.2953 97.07 50.43 97.07 50.43L95.9296 47.5133C95.9296 47.5133 96.0973 46.7809 96.4411 45.5393C93.5189 37.5426 90.232 31.7428 87.3391 27.5382C86.8654 27.7276 86.5886 27.816 86.5886 27.816L84.3582 25.5222C84.3582 25.5222 84.3247 24.773 84.375 23.5483C81.872 20.4169 80.0483 18.645 79.6626 17.6223C78.7444 15.1643 78.648 11.8983 74.6399 7.22648C70.6318 2.55469 66.7244 0.740695 64.649 4.38553C62.5737 8.03036 68.3427 18.3672 77.7382 20.1812C77.7382 20.1812 79.7883 22.4287 82.5848 26.5281C83.4526 26.6039 83.8928 26.6039 83.8928 26.6039L85.8508 29.0744L85.8591 29.0871ZM66.8921 5.36618C67.0723 4.80641 67.5042 4.44866 68.0073 4.30977C68.6445 4.06145 69.3866 4.18772 69.8562 4.82325C70.506 5.69447 70.0784 7.00762 69.0177 7.28961C67.9737 7.5674 66.5147 6.53624 66.8921 5.36618ZM72.1244 15.4547C70.7324 15.9598 68.9548 14.937 68.6194 13.5229C68.3762 12.4917 68.8919 11.6584 69.6675 11.1954C70.7157 10.5641 72.2459 10.6062 73.0048 11.7341C73.7343 12.8158 73.4785 14.9623 72.1202 15.4547H72.1244Z" fill="#49B59B"/>
<path d="M102.315 78.8985C102.533 78.9069 102.784 78.8943 103.032 78.8859C108.604 78.667 121.139 73.869 129.038 64.3318C137.285 54.3653 136.786 45.1817 128.728 44.7439C120.674 44.3062 113.836 49.7314 108.57 59.6642C104.923 66.5456 103.191 70.9649 102.47 73.0314C102.151 73.9489 102.03 74.4077 102.03 74.4077L102.315 78.8985ZM127.793 61.6465C127.99 64.3065 125.575 66.5161 122.993 65.3798C120.741 64.3907 119.437 61.6255 121.106 59.5043C122.326 57.9512 124.296 57.7955 125.785 58.6962C126.871 59.1423 127.68 60.1145 127.793 61.6423V61.6465ZM120.041 50.2575C120.343 49.3105 121.077 48.7002 121.928 48.473C123.005 48.0521 124.259 48.2709 125.059 49.34C126.158 50.8131 125.437 53.0353 123.642 53.5151C121.877 53.9865 119.412 52.2398 120.041 50.2575ZM110.952 59.0539C111.643 58.1743 112.759 58.0859 113.605 58.5952C114.222 58.8477 114.679 59.399 114.742 60.2661C114.851 61.7728 113.484 63.027 112.021 62.3831C110.746 61.8233 110.008 60.2576 110.952 59.0539ZM108.046 70.725C108.31 69.8916 108.96 69.3571 109.706 69.1509C110.658 68.7805 111.761 68.9699 112.465 69.9127C113.434 71.209 112.796 73.1661 111.216 73.5912C109.66 74.0078 107.488 72.4674 108.046 70.725Z" fill="#49B59B"/>
<path d="M100.26 75.0643C100.26 75.0643 99.6987 74.7823 98.7218 74.3277C96.2063 73.145 90.9027 70.7671 85.2176 68.8857C82.4506 67.9724 79.5912 67.1727 76.9206 66.6929C74.1493 66.1963 71.6506 65.8512 69.4411 65.7249C63.4667 65.3756 59.6976 66.6256 58.9891 70.9228C58.901 71.4657 58.9094 71.9792 58.9681 72.4801C59.4335 76.5921 64.6071 79.231 70.7072 80.7083C71.8853 80.9945 73.0928 81.2428 74.3086 81.4406C75.6544 81.6637 77.1428 81.8447 78.7024 81.9836C86.0394 82.6485 95.0408 82.3329 99.2417 80.2369C99.6526 80.0307 100.03 79.816 100.34 79.5761L100.26 75.0643ZM66.1374 77.9178C64.54 78.4987 62.494 77.3244 62.1125 75.6998C61.8316 74.5129 62.427 73.5575 63.3158 73.023C64.5232 72.2991 66.2757 72.3454 67.152 73.6417C67.9905 74.8833 67.697 77.3497 66.1374 77.9178ZM71.3152 71.289C69.7765 71.9834 67.8982 71.1879 67.3574 69.576C67.001 68.5238 67.3742 67.4884 68.1246 66.8529C69.286 65.7502 71.3529 65.9059 72.3717 67.1769C73.4617 68.5322 72.858 70.5945 71.3152 71.289ZM78.7276 78.5281C76.0192 78.0736 74.4218 74.8202 76.1659 72.5306C77.2225 71.1416 78.8827 70.8723 80.2201 71.4699C81.1383 71.6593 81.9516 72.2612 82.3751 73.3723C83.331 75.8808 81.5785 78.9995 78.7318 78.5239L78.7276 78.5281ZM90.0684 78.1788C88.4082 78.6249 86.0939 76.9793 86.6892 75.1232C86.9743 74.2351 87.6619 73.6627 88.4585 73.4481C89.4731 73.0567 90.647 73.2587 91.3975 74.2604C92.4288 75.6409 91.7496 77.7284 90.0684 78.1788Z" fill="#49B59B"/>
<path d="M75.143 57.1558C79.7506 57.9007 84.1612 57.1642 87.7249 56.0741C91.0663 55.0513 93.6615 53.7171 94.957 52.9764C95.5482 52.6397 95.8794 52.4208 95.8794 52.4208L94.5755 48.3257C94.5755 48.3257 94.1059 48.0605 93.2674 47.6354C90.1985 46.0781 81.893 42.2481 70.9211 40.3373C66.9508 39.6471 63.8232 39.3777 61.3538 39.4661C55.1488 39.6849 53.2621 42.2018 53.5975 46.297C53.8575 49.4536 57.0815 51.8947 61.7437 53.7508C64.5652 54.8746 67.9151 55.7795 71.462 56.495C72.6694 56.7391 73.902 56.9621 75.143 57.1642V57.1558ZM86.2826 48.2962C87.0834 48.6245 87.6746 49.34 87.7584 50.4637C87.901 52.4208 86.1275 54.0454 84.2283 53.2079C82.5722 52.4798 81.6163 50.4469 82.8406 48.8896C83.7378 47.7448 85.1842 47.6354 86.2826 48.2962ZM57.048 43.2919C56.9138 41.5495 58.0081 40.754 59.3287 40.6319C60.8087 40.2195 62.4815 40.6656 63.1565 42.2565C63.8902 43.9906 62.9637 46.5074 60.9261 46.659C59.0353 46.8021 57.1947 45.1859 57.0522 43.2961L57.048 43.2919ZM62.9972 53.372C60.9806 52.3703 60.4146 49.4915 62.2887 48.0352C63.7938 46.8652 66.1081 47.3113 66.8544 48.9317C67.1646 49.3863 67.3491 49.9671 67.3449 50.6826C67.3407 53.0353 65.1228 54.4326 62.9972 53.3762V53.372ZM70.2461 48.0268C69.6173 46.9788 69.5586 45.5815 70.3719 44.6093C71.1853 43.637 72.6611 43.456 73.8308 43.7507C75.0005 44.0495 76.0067 44.9754 76.1493 46.217C76.187 46.5453 76.1492 46.8652 76.0528 47.164C76.0319 47.3702 76.0025 47.5723 75.9396 47.7575C75.076 50.3964 71.5249 50.1565 70.2503 48.0268H70.2461Z" fill="#49B59B"/>
<path d="M68.5314 35.7707C78.2959 35.4845 83.0879 31.9659 84.9285 30.1519C85.5741 29.5164 85.8634 29.0871 85.8634 29.0871L83.9055 26.6165C83.9055 26.6165 83.4653 26.6165 82.5974 26.5407C80.5389 26.364 76.0361 25.7495 68.9507 23.624C58.8718 20.6021 48.4365 17.033 46.9021 24.8109C46.3151 27.7739 47.4094 30.1224 49.7069 31.8775C51.9918 33.62 55.4716 34.7732 59.6977 35.354C62.3851 35.7202 65.3618 35.8633 68.5356 35.7707H68.5314ZM69.1771 27.4414C69.4118 26.7049 69.9862 26.2293 70.6445 26.0525C71.483 25.7284 72.4598 25.8926 73.0803 26.7259C73.9356 27.8707 73.3738 29.6006 71.9777 29.9751C70.6025 30.3455 68.6823 28.9819 69.1771 27.4414ZM60.0625 29.1208C61.1106 28.4894 62.6409 28.5315 63.3997 29.6595C64.1292 30.7411 63.8735 32.8876 62.5151 33.3801C61.1232 33.8851 59.3455 32.8624 59.0101 31.4482C58.767 30.4171 59.2826 29.5837 60.0583 29.1208H60.0625ZM50.6376 26.2083C51.1952 22.3866 57.1864 23.4262 56.9642 27.1174C56.8803 28.5063 55.8867 29.7268 54.4864 29.9204C52.3146 30.215 50.3106 28.4515 50.6376 26.2083Z" fill="#49B59B"/>
<path d="M84.3667 25.5349L86.5971 27.8287C86.5971 27.8287 86.8696 27.7403 87.3476 27.5509C89.3139 26.7723 94.8271 24.247 99.6191 18.826C105.568 12.0961 108.914 4.33927 104.881 1.48149C100.852 -1.3763 94.8774 -0.450361 89.3684 7.36962C85.3226 13.1062 84.526 20.1897 84.3834 23.5609C84.3331 24.7857 84.3667 25.5349 84.3667 25.5349ZM98.2691 11.6963C99.1077 11.3722 100.085 11.5363 100.705 12.3697C101.56 13.5145 100.998 15.2443 99.6024 15.6189C98.2272 15.9893 96.307 14.6256 96.8018 13.0852C97.0365 12.3486 97.6109 11.8731 98.2691 11.6963ZM90.8819 6.29216C91.4395 2.47056 97.4306 3.51014 97.2084 7.20127C97.1246 8.59018 96.1309 9.81073 94.7306 10.0043C92.5589 10.299 90.5549 8.53546 90.8819 6.29216ZM90.8148 17.6139C91.8629 16.9826 93.3932 17.0246 94.1521 18.1526C94.8816 19.2343 94.6258 21.3808 93.2674 21.8732C91.8755 22.3783 90.0979 21.3555 89.7625 19.9414C89.5193 18.9102 90.035 18.0768 90.8106 17.6139H90.8148Z" fill="#49B59B"/>
<path d="M97.0784 50.4343C97.0784 50.4343 97.4055 50.2996 97.9589 50.0513C100.583 48.8644 108.633 44.9165 114.377 38.7675C121.328 31.3263 127.869 20.7074 124.942 16.1367C122.016 11.5701 116.05 11.9489 107.807 21.8228C101.33 29.5796 97.7073 41.0023 96.4538 45.5479C96.11 46.7895 95.9423 47.5218 95.9423 47.5218L97.0826 50.4385L97.0784 50.4343ZM116.071 19.9288C116.373 18.9818 117.106 18.3715 117.957 18.1443C119.035 17.7276 120.288 17.9422 121.089 19.0113C122.188 20.4844 121.466 22.7066 119.672 23.1864C117.907 23.6578 115.442 21.9111 116.071 19.9288ZM109.216 40.3584C107.56 39.6303 106.604 37.5974 107.828 36.0401C108.725 34.8996 110.172 34.7859 111.27 35.4467C112.071 35.775 112.662 36.4905 112.746 37.6142C112.889 39.5713 111.115 41.1959 109.216 40.3584ZM108.654 22.9423C110.13 22.6435 111.887 23.1864 112.49 24.6216C114.213 28.6916 108.482 30.6487 106.692 26.8102C105.879 25.0678 106.818 23.3169 108.654 22.9423ZM99.1789 39.1463C99.8707 38.2666 100.986 38.1782 101.833 38.6875C102.449 38.94 102.906 39.4914 102.969 40.3584C103.078 41.8651 101.711 43.1194 100.248 42.4754C98.9735 41.9157 98.2356 40.35 99.1789 39.1463Z" fill="#49B59B"/>
<path d="M67.152 73.6417C66.2758 72.3454 64.5233 72.2991 63.3158 73.023C62.4228 73.5575 61.8317 74.5129 62.1126 75.6998C62.4941 77.3244 64.5401 78.4987 66.1374 77.9178C67.697 77.3497 67.9905 74.8833 67.152 73.6417Z" fill="white"/>
<path d="M62.5192 33.3801C63.8776 32.8876 64.1333 30.7369 63.4038 29.6595C62.6408 28.5315 61.1147 28.4894 60.0666 29.1207C59.291 29.5879 58.7753 30.4171 59.0184 31.4482C59.3496 32.8624 61.1315 33.8851 62.5234 33.3801H62.5192Z" fill="white"/>
<path d="M93.2715 21.8732C94.6299 21.3808 94.8857 19.2301 94.1562 18.1526C93.3931 17.0247 91.867 16.9826 90.8189 17.6139C90.0433 18.0811 89.5276 18.9102 89.7708 19.9414C90.102 21.3555 91.8838 22.3783 93.2757 21.8732H93.2715Z" fill="white"/>
<path d="M69.6718 11.1913C68.8962 11.6585 68.3805 12.4876 68.6237 13.5188C68.9549 14.9329 70.7367 15.9557 72.1286 15.4506C73.487 14.9582 73.7428 12.8075 73.0133 11.73C72.2502 10.6021 70.7241 10.56 69.676 11.1913H69.6718Z" fill="white"/>
<path d="M68.1205 66.8528C67.37 67.4925 66.9969 68.5237 67.3533 69.5759C67.8983 71.1837 69.7724 71.9833 71.311 71.2889C72.8497 70.5944 73.4534 68.5321 72.3675 67.1769C71.3446 65.9058 69.2818 65.7501 68.1205 66.8528Z" fill="white"/>
<path d="M82.3751 73.3723C81.9517 72.2569 81.1383 71.6593 80.2202 71.4699C78.8828 70.8722 77.2225 71.1416 76.166 72.5305C74.4219 74.8201 76.0192 78.0735 78.7276 78.5281C81.5744 79.0037 83.3269 75.8849 82.371 73.3765L82.3751 73.3723Z" fill="white"/>
<path d="M88.4586 73.4439C87.662 73.6586 86.9744 74.231 86.6893 75.119C86.094 76.9793 88.4083 78.6208 90.0685 78.1746C91.7539 77.7243 92.4289 75.6367 91.3976 74.2562C90.6471 73.2503 89.4732 73.0483 88.4586 73.4439Z" fill="white"/>
<path d="M71.9819 29.9751C73.378 29.6006 73.9398 27.8707 73.0845 26.7259C72.464 25.8926 71.4871 25.7242 70.6486 26.0525C69.9904 26.2335 69.416 26.7049 69.1812 27.4414C68.6907 28.9819 70.6067 30.3455 71.9819 29.9751Z" fill="white"/>
<path d="M119.668 23.1863C121.462 22.7065 122.183 20.4843 121.085 19.0112C120.288 17.9422 119.035 17.7275 117.953 18.1442C117.106 18.3757 116.368 18.9859 116.066 19.9287C115.433 21.9069 117.899 23.6577 119.668 23.1863Z" fill="white"/>
<path d="M123.642 53.5108C125.437 53.031 126.158 50.8088 125.059 49.3357C124.263 48.2667 123.009 48.0478 121.928 48.4687C121.081 48.7002 120.343 49.3104 120.041 50.2532C119.408 52.2314 121.873 53.9822 123.642 53.5108Z" fill="white"/>
<path d="M111.22 73.5911C112.8 73.166 113.434 71.2132 112.469 69.9126C111.765 68.9699 110.662 68.7805 109.711 69.1508C108.964 69.3529 108.314 69.8916 108.05 70.7249C107.493 72.4674 109.664 74.0078 111.22 73.5911Z" fill="white"/>
<path d="M99.6065 15.6189C101.003 15.2444 101.564 13.5145 100.709 12.3697C100.089 11.5364 99.1118 11.368 98.2733 11.6963C97.615 11.8773 97.0406 12.3487 96.8059 13.0852C96.3153 14.6257 98.2313 15.9893 99.6065 15.6189Z" fill="white"/>
<path d="M69.0219 7.28972C70.0826 7.00772 70.5061 5.69457 69.8604 4.82335C69.3909 4.19203 68.6488 4.06155 68.0115 4.30987C67.5126 4.44456 67.0766 4.80651 66.8963 5.36629C66.5232 6.53634 67.978 7.57171 69.0219 7.28972Z" fill="white"/>
<path d="M84.2283 53.2037C86.1275 54.0413 87.901 52.4167 87.7584 50.4596C87.6746 49.3358 87.0834 48.6203 86.2826 48.292C85.1884 47.6312 83.7378 47.7407 82.8406 48.8855C81.6163 50.4469 82.5722 52.4756 84.2283 53.2037Z" fill="white"/>
<path d="M111.266 35.4467C110.172 34.7859 108.721 34.8953 107.824 36.0401C106.6 37.6016 107.556 39.6302 109.212 40.3584C111.111 41.1959 112.884 39.5713 112.742 37.6142C112.658 36.4905 112.067 35.775 111.266 35.4467Z" fill="white"/>
<path d="M121.106 59.5042C119.437 61.6255 120.741 64.3907 122.993 65.3797C125.575 66.5161 127.986 64.3065 127.793 61.6465C127.68 60.1187 126.875 59.1423 125.785 58.7004C124.296 57.7997 122.326 57.9512 121.106 59.5085V59.5042Z" fill="white"/>
<path d="M100.248 42.4754C101.711 43.1193 103.078 41.8651 102.969 40.3584C102.906 39.4913 102.449 38.94 101.833 38.6875C100.99 38.1782 99.8706 38.2624 99.1788 39.1462C98.2355 40.3499 98.9734 41.9156 100.248 42.4754Z" fill="white"/>
<path d="M112.021 62.3831C113.484 63.0271 114.851 61.7728 114.742 60.2661C114.679 59.3991 114.222 58.8477 113.605 58.5952C112.763 58.0859 111.643 58.1701 110.952 59.0539C110.008 60.2577 110.746 61.8233 112.021 62.3831Z" fill="white"/>
<path d="M75.9354 47.7575C75.9983 47.5681 76.0276 47.366 76.0486 47.164C76.1408 46.8652 76.1827 46.5495 76.145 46.217C76.0025 44.9754 75.0004 44.0495 73.8265 43.7507C72.6568 43.4518 71.181 43.637 70.3677 44.6093C69.5543 45.5815 69.6172 46.9788 70.2419 48.0268C71.5164 50.1565 75.0675 50.3964 75.9312 47.7575H75.9354Z" fill="white"/>
<path d="M62.2886 48.0311C60.4145 49.4873 60.9805 52.3661 62.9972 53.3678C65.1228 54.4243 67.3406 53.0311 67.3448 50.6742C67.3448 49.9587 67.1604 49.3779 66.8543 48.9233C66.108 47.3071 63.7937 46.8568 62.2886 48.0269V48.0311Z" fill="white"/>
<path d="M63.1523 42.2523C62.4773 40.6613 60.8045 40.2152 59.3245 40.6277C58.0038 40.7539 56.9138 41.5494 57.0437 43.2876C57.1863 45.1774 59.031 46.7936 60.9177 46.6505C62.9552 46.4989 63.8818 43.9821 63.1481 42.248L63.1523 42.2523Z" fill="white"/>
<path d="M112.49 24.6173C111.882 23.1821 110.126 22.6434 108.654 22.938C106.818 23.3084 105.879 25.0635 106.692 26.8059C108.486 30.6401 114.213 28.683 112.49 24.6173Z" fill="white"/>
<path d="M54.4906 29.9163C55.8909 29.7269 56.8845 28.5021 56.9684 27.1132C57.1906 23.4179 51.1994 22.3783 50.6418 26.2041C50.3148 28.4474 52.323 30.2109 54.4906 29.9163Z" fill="white"/>
<path d="M94.7347 10.0002C96.135 9.81078 97.1287 8.58601 97.2125 7.1971C97.4347 3.50176 91.4436 2.46218 90.886 6.288C90.5589 8.5313 92.5672 10.2948 94.7347 10.0002Z" fill="white"/>
</g>
<defs>
<clipPath id="clip0_1_1355">
<rect width="135" height="114" fill="white"/>
</clipPath>
</defs>
</svg>
