<svg width="173" height="213" viewBox="0 0 173 213" fill="none" xmlns="http://www.w3.org/2000/svg">
<g clip-path="url(#clip0_1_1330)">
<path d="M147.253 106.5C162.352 104.034 174.26 92.8023 172.897 88.702C171.534 84.6016 160.72 94.6589 149.678 95.3936C138.631 96.1283 125.841 94.4604 124.697 91.8459C123.477 89.0594 126.242 83.8736 127.224 81.3452C129.187 76.295 131.034 71.1224 135.813 68.0447C143.539 63.0673 150.666 56.2433 150.172 46.2026C150.042 43.5849 149.585 40.9837 148.795 38.4851C148.533 37.6577 145.194 31.3136 145.297 31.1547C145.297 31.1547 159.875 8.78313 140.038 1.44618C120.098 -5.93049 115.627 17.2916 115.627 17.2916C115.627 17.2916 108.574 18.4532 104.91 20.2535C104.91 20.2535 103.918 11.798 102.114 12.4433C99.5905 13.3435 100.31 22.5734 100.31 22.5734C100.31 22.5734 98.6155 15.3589 96.2942 15.9513C93.9729 16.5437 96.8911 23.4537 96.8911 23.4537C96.8911 23.4537 91.4958 15.4582 89.8941 16.3848C88.1431 17.4008 94.2548 25.3566 94.2548 25.3566L87.4269 29.7714C87.4269 29.7714 70.425 16.7059 61.5244 31.1646C49.6725 50.4221 74.8421 58.8081 74.8421 58.8081C74.8454 59.6917 77.7238 65.4699 79.5046 67.2306C81.2854 68.9945 78.8778 75.0374 75.9198 75.5967C72.9618 76.156 61.8594 67.032 56.8089 58.5401C51.7584 50.0481 49.5996 33.6699 47.5005 31.4493C45.398 29.2286 41.3954 30.4465 43.226 44.5975C45.0532 58.7485 59.422 82.3148 61.1895 85.7235C62.957 89.1322 58.5465 94.457 56.4342 98.1834C54.3218 101.907 51.3174 104.753 45.4544 106.242C39.5915 107.734 22.8516 111.957 13.626 115.584C4.40053 119.211 -0.848931 123.143 0.119384 126.29C1.0877 129.437 11.6198 124.351 20.7259 122.511C29.832 120.671 53.5325 118.083 54.3185 119.992C55.1077 121.902 56.6995 125.84 58.4636 128.365C60.2278 130.89 60.901 139.769 54.4378 146.663C47.9747 153.553 34.405 170.719 38.202 189.639C41.999 208.559 48.0045 215.773 62.1578 212.057C76.3111 208.337 78.1218 199.977 77.1004 192.161C76.0757 184.344 70.0834 179.783 62.1545 183.599C54.2256 187.418 55.8671 194.259 58.7953 195.222C61.7234 196.185 62.1015 192.713 63.1925 190.658C64.2835 188.6 70.3918 186.187 71.201 193.405C72.0101 200.623 63.9817 206.351 55.4858 206.332C46.9931 206.312 43.73 192.75 43.6106 185.052C43.4912 177.354 44.3966 167.989 52.3155 157.217C60.2345 146.445 66.701 140.438 65.6298 134.018C65.6298 134.018 75.4357 138.651 84.8602 136.384C84.8602 136.384 85.9545 148.996 89.3569 161.777C92.7592 174.558 98.7316 183.295 102.558 181.723C106.382 180.151 99.7994 165.56 98.9604 154.678C98.1214 143.797 96.0024 132.853 97.1697 132.174C98.337 131.496 117.378 117.07 120.107 107.185C120.107 107.185 132.155 108.962 147.253 106.497V106.5ZM56.653 110.038C55.4261 109.459 56.852 106.215 57.9961 106.679C59.2463 107.185 57.88 110.617 56.653 110.038ZM60.5793 116.481C58.918 115.965 60.4633 111.818 61.7135 112.143C63.4777 112.596 62.2374 116.997 60.5793 116.481ZM64.3598 108.148C63.0366 107.774 64.3763 103.528 65.5469 103.737C66.7905 103.958 65.6796 108.522 64.3598 108.148ZM64.761 100.202C63.6733 99.7488 65.1357 95.7411 66.2798 96.1283C67.8782 96.671 65.8454 100.656 64.761 100.202ZM68.4253 114.254C67.9545 114.069 68.9493 110.068 69.8811 110.372C71.0053 110.739 69.2909 114.591 68.4253 114.254ZM70.7665 105.626C69.5329 104.984 71.3535 101.873 72.3484 102.168C73.4758 102.506 72.0002 106.265 70.7665 105.626ZM71.516 97.3594C70.1663 96.7968 71.9073 93.13 72.9287 93.6098C74.6763 94.4372 72.8657 97.9187 71.516 97.3594ZM139.013 3.99773C153.68 8.93206 142.846 27.4647 142.846 27.4647C135 20.6474 118.904 17.189 118.904 17.189C118.904 17.189 124.349 -0.936593 139.013 3.99773ZM74.3049 53.4469C74.3049 53.4469 57.7507 46.0073 63.9983 34.2159C70.1531 22.6032 84.5617 32.7201 84.5617 32.7201C75.5584 43.0189 74.3049 53.4469 74.3049 53.4469ZM85.6958 129.56C84.3196 129.255 84.6977 126.227 85.8848 126.118C87.4667 125.969 87.0687 129.864 85.6958 129.56ZM93.1671 124.354C91.6152 124.139 91.6947 119.953 93.2633 119.85C95.0241 119.734 94.7191 124.569 93.1671 124.354ZM95.2729 116.266C94.278 115.968 95.0706 112.311 96.1185 112.536C97.5345 112.841 96.2677 116.561 95.2729 116.266ZM99.4346 121.727C98.0418 121.3 98.7615 117.59 99.942 117.414C101.335 117.209 100.831 122.153 99.4346 121.727ZM102.147 101.41C103.374 101.499 102.731 105.815 101.491 105.553C100.247 105.292 100.997 101.327 102.147 101.41ZM102.074 114.257C100.957 113.979 101.524 109.657 102.933 109.766C104.694 109.902 103.192 114.535 102.074 114.257ZM108.017 108.138C106.783 107.94 107.135 104.726 108.554 104.898C110.079 105.084 109.25 108.337 108.017 108.138ZM86.8067 66.9162C79.0204 52.7552 82.2769 41.4536 88.1962 36.7377C93.6413 32.3991 101.895 34.2258 104.969 36.1784C104.969 36.1784 105.639 26.088 116.234 24.0296C126.829 21.9711 138.121 29.8012 141.629 42.4398C145.138 55.0784 137.776 63.62 122.16 70.3348C106.544 77.0496 94.593 81.0771 86.8067 66.9162ZM111.237 97.2932C109.861 96.9887 110.988 93.0307 112.089 93.1829C113.469 93.3782 112.613 97.5977 111.237 97.2932Z" fill="#DC7445"/>
<path d="M139.013 3.99782C124.346 -0.936502 118.904 17.1891 118.904 17.1891C118.904 17.1891 135 20.6474 142.846 27.4648C142.846 27.4648 153.68 8.92884 139.013 3.99782Z" fill="#2B2C2B"/>
<path d="M63.9983 34.216C57.7507 46.0074 74.3049 53.4469 74.3049 53.4469C74.3049 53.4469 75.5584 43.019 84.5617 32.7201C84.5617 32.7201 70.1531 22.6033 63.9983 34.216Z" fill="#2B2C2B"/>
<path d="M141.629 42.4431C138.121 29.8045 126.833 21.9745 116.234 24.0329C105.639 26.0914 104.969 36.1817 104.969 36.1817C101.895 34.2292 93.6413 32.4024 88.1962 36.741C82.2769 41.4569 79.0204 52.7553 86.8067 66.9195C94.5931 81.0805 106.548 77.0529 122.16 70.3381C137.773 63.6233 145.134 55.0818 141.629 42.4431ZM90.3185 48.9925C90.2555 48.3868 90.3318 47.7382 90.554 47.1127C90.7894 46.4707 91.3134 45.9544 91.9004 45.6036C92.5138 45.3124 93.2467 45.1569 93.9365 45.319C94.603 45.4845 95.2065 45.7956 95.694 46.1927C96.921 47.1756 97.7202 48.4596 98.3934 49.7602C98.4862 49.9456 98.4962 50.2864 98.4232 50.3493C98.3469 50.4056 98.0982 50.2798 97.9822 50.121C97.3952 49.3002 96.732 48.5291 96.0455 47.8044C95.4453 47.1756 94.7622 46.5998 94.0028 46.3383C93.2633 46.0636 92.4243 46.2291 91.8672 46.7652C91.2504 47.3708 91.0978 48.3504 91.2371 49.3201C91.3631 50.293 91.6715 51.2693 92.0728 52.1993L92.1159 52.1761C92.1756 52.3482 92.2784 52.5468 92.2983 52.6857C92.3348 52.977 92.3845 53.298 92.3414 53.4866C92.3248 53.5694 92.0529 53.4138 91.9103 53.245C91.6981 53.0068 91.4892 52.6791 91.3233 52.3449C90.8458 51.309 90.4048 50.2103 90.3185 48.9891V48.9925ZM98.0916 64.9438C96.4899 66.4396 93.9763 66.3536 92.4807 64.7552C90.9818 63.1567 91.068 60.6482 92.6697 59.1556C94.2714 57.6598 96.785 57.7458 98.2806 59.3443C99.7795 60.9427 99.6933 63.4513 98.0916 64.9438ZM130.895 41.2749C133.064 40.9572 135.083 42.4531 135.402 44.6207C135.72 46.7851 134.221 48.8005 132.049 49.1182C129.88 49.4359 127.861 47.9401 127.542 45.7724C127.224 43.608 128.723 41.5926 130.895 41.2749ZM119.278 34.067C119.574 33.0709 120.492 32.2435 121.55 32.0781C122.827 31.8762 123.987 32.5646 124.763 33.329C125.576 34.1067 126.219 35.0003 126.773 35.9368L126.813 35.9104C126.902 36.0858 127.032 36.2876 127.061 36.4366C127.128 36.741 127.181 37.0786 127.134 37.2805C127.115 37.3599 126.849 37.1746 126.7 37.019C126.488 36.7807 126.252 36.4862 126.05 36.1817C125.413 35.2683 124.707 34.3781 123.868 33.7162C123.46 33.3654 122.989 33.1404 122.528 33.008C122.061 32.8889 121.61 32.9948 121.185 33.1636C120.787 33.4051 120.452 33.6964 120.273 34.12C120.107 34.5469 120.011 35.0301 120.035 35.553C120.068 36.837 120.406 38.2071 120.887 39.4945C120.953 39.6732 120.937 39.9975 120.86 40.0504C120.787 40.11 120.539 39.9843 120.439 39.8122C119.938 38.9352 119.471 37.992 119.245 36.9462C119.056 36.0361 118.963 35.0466 119.278 34.0637V34.067ZM118.43 59.6355C118.008 59.3939 117.617 59.106 117.242 58.8048C117.305 59.0067 117.362 59.2152 117.402 59.4303C117.554 60.2378 117.528 61.1082 117.275 61.9289C117.02 62.7497 116.526 63.5373 115.763 64.0701C114.831 64.7121 113.568 64.8743 112.51 64.4011C112.354 64.3415 112.218 64.09 112.255 64.0072C112.291 63.9212 112.51 63.8484 112.633 63.8782C113.299 64.0304 113.949 63.8815 114.526 63.6597C115.564 63.2792 116.284 62.3161 116.509 61.224C116.785 59.9598 116.423 58.6361 115.793 57.4678L115.75 57.491C115.71 57.395 115.651 57.2924 115.627 57.1998C114.52 55.8727 113.687 54.3669 112.968 52.8347C110.136 52.838 104.498 49.6676 105.715 47.2782C106.79 45.1701 110.822 47.2451 110.822 47.2451C110.822 47.2451 111.711 43.2374 113.847 43.6809C116.659 44.2666 114.337 50.4784 113.591 52.3019C114.012 53.116 114.45 53.9202 114.928 54.6946C115.574 55.7436 116.324 56.7199 117.203 57.5406C118.088 58.3481 119.093 59.0398 120.184 59.3377C120.857 59.5263 121.54 59.5726 122.187 59.4105C122.833 59.245 123.444 58.8876 123.815 58.3647C123.924 58.229 124.163 58.0371 124.259 58.047C124.352 58.0536 124.425 58.3415 124.329 58.5467C123.861 59.5759 122.727 60.3371 121.49 60.4231C120.406 60.4993 119.338 60.1518 118.43 59.6322V59.6355Z" fill="#DACCBD"/>
<path d="M132.049 49.1182C134.218 48.8005 135.72 46.7884 135.402 44.6207C135.083 42.4563 133.067 40.9572 130.895 41.2749C128.726 41.5926 127.224 43.6047 127.542 45.7724C127.861 47.9367 129.877 49.4359 132.049 49.1182Z" fill="#F06985"/>
<path d="M92.6697 59.1557C91.068 60.6515 90.9851 63.1567 92.4807 64.7552C93.9796 66.3536 96.4899 66.4364 98.0916 64.9438C99.6933 63.448 99.7762 60.9427 98.2806 59.3443C96.7817 57.7459 94.2714 57.6631 92.6697 59.1557Z" fill="#F06985"/>
<path d="M120.442 39.8155C120.542 39.9876 120.787 40.1166 120.864 40.0538C120.937 40.0008 120.956 39.6765 120.89 39.4978C120.413 38.2104 120.074 36.8403 120.038 35.5563C120.015 35.0334 120.114 34.5502 120.277 34.1233C120.456 33.6997 120.791 33.4085 121.189 33.1669C121.616 32.9948 122.064 32.8889 122.532 33.0113C122.989 33.1437 123.46 33.3688 123.871 33.7196C124.71 34.3814 125.417 35.2717 126.053 36.1851C126.256 36.4862 126.491 36.7841 126.703 37.0223C126.849 37.1812 127.114 37.3632 127.138 37.2838C127.184 37.0819 127.131 36.7444 127.065 36.4399C127.035 36.291 126.906 36.0891 126.816 35.9137L126.776 35.9402C126.226 35.0036 125.582 34.1101 124.767 33.3324C123.991 32.5679 122.83 31.8795 121.553 32.0814C120.495 32.2469 119.58 33.0742 119.282 34.0704C118.967 35.0532 119.06 36.0395 119.249 36.9528C119.477 37.9986 119.942 38.9418 120.442 39.8188V39.8155Z" fill="#2B2C2B"/>
<path d="M92.3414 53.4899C92.3845 53.3013 92.3348 52.9803 92.2983 52.6891C92.2784 52.5501 92.1756 52.3515 92.1159 52.1794L92.0728 52.2026C91.6715 51.2693 91.3631 50.2931 91.2371 49.3234C91.0978 48.3537 91.2504 47.3742 91.8672 46.7685C92.4243 46.2324 93.2666 46.0669 94.0028 46.3416C94.7622 46.6031 95.4453 47.1789 96.0455 47.8077C96.732 48.5325 97.3952 49.3035 97.9822 50.1243C98.0949 50.2798 98.3469 50.4089 98.4232 50.3526C98.4962 50.2897 98.4895 49.9489 98.3934 49.7636C97.7235 48.463 96.921 47.1822 95.694 46.196C95.2065 45.7989 94.603 45.4878 93.9365 45.3223C93.2467 45.1602 92.5138 45.3157 91.9003 45.6069C91.3134 45.9577 90.7894 46.474 90.554 47.116C90.3318 47.7415 90.2555 48.3902 90.3185 48.9958C90.4048 50.2169 90.8458 51.3124 91.3233 52.3515C91.4858 52.6858 91.6947 53.0134 91.9103 53.2517C92.0529 53.4204 92.3248 53.576 92.3414 53.4933V53.4899Z" fill="#2B2C2B"/>
<path d="M124.329 58.5533C124.425 58.3514 124.352 58.0635 124.259 58.0536C124.163 58.047 123.924 58.2356 123.815 58.3713C123.444 58.8942 122.83 59.2516 122.187 59.417C121.54 59.5792 120.857 59.5329 120.184 59.3442C119.093 59.0464 118.088 58.3514 117.203 57.5472C116.324 56.7265 115.574 55.7502 114.928 54.7011C114.45 53.9267 114.012 53.1226 113.591 52.3084C114.337 50.4883 116.659 44.2765 113.847 43.6874C111.711 43.2407 110.822 47.2517 110.822 47.2517C110.822 47.2517 106.79 45.1734 105.715 47.2848C104.498 49.6709 110.136 52.8446 112.968 52.8413C113.687 54.3735 114.52 55.8793 115.627 57.2064C115.651 57.2957 115.71 57.3983 115.75 57.4976L115.793 57.4744C116.423 58.6426 116.785 59.9631 116.509 61.2306C116.284 62.3227 115.564 63.2857 114.526 63.6663C113.949 63.8881 113.299 64.037 112.633 63.8847C112.51 63.855 112.291 63.9278 112.255 64.0138C112.218 64.0932 112.354 64.3448 112.51 64.4076C113.571 64.8809 114.835 64.7187 115.763 64.0767C116.526 63.5439 117.02 62.7562 117.275 61.9355C117.528 61.1148 117.554 60.2477 117.401 59.4369C117.362 59.2218 117.309 59.0166 117.242 58.8114C117.617 59.1159 118.005 59.4005 118.43 59.6421C119.341 60.1617 120.406 60.5092 121.49 60.433C122.727 60.347 123.861 59.5891 124.329 58.5566V58.5533Z" fill="#2B2C2B"/>
<path d="M112.089 93.1895C110.988 93.034 109.861 96.9953 111.237 97.2998C112.613 97.6043 113.469 93.3848 112.089 93.1895Z" fill="#B86239"/>
<path d="M102.147 101.41C100.993 101.327 100.247 105.292 101.491 105.553C102.734 105.815 103.378 101.499 102.147 101.41Z" fill="#B86239"/>
<path d="M108.554 104.898C107.135 104.726 106.783 107.94 108.017 108.138C109.25 108.337 110.079 105.084 108.554 104.898Z" fill="#B86239"/>
<path d="M102.933 109.77C101.524 109.661 100.953 113.979 102.074 114.261C103.192 114.539 104.694 109.909 102.933 109.77Z" fill="#B86239"/>
<path d="M96.1185 112.54C95.0706 112.315 94.278 115.971 95.2729 116.269C96.2677 116.567 97.5345 112.847 96.1185 112.54Z" fill="#B86239"/>
<path d="M99.9387 117.418C98.7614 117.59 98.0385 121.3 99.4313 121.73C100.824 122.157 101.331 117.216 99.9387 117.418Z" fill="#B86239"/>
<path d="M93.2633 119.85C91.6947 119.953 91.6119 124.139 93.1671 124.354C94.7191 124.569 95.0275 119.734 93.2633 119.85Z" fill="#B86239"/>
<path d="M85.8849 126.118C84.6977 126.227 84.3196 129.255 85.6958 129.56C87.072 129.864 87.4667 125.969 85.8849 126.118Z" fill="#B86239"/>
<path d="M57.9961 106.679C56.852 106.215 55.4261 109.459 56.653 110.038C57.88 110.617 59.2463 107.185 57.9961 106.679Z" fill="#B86239"/>
<path d="M61.7135 112.143C60.4633 111.822 58.918 115.968 60.5794 116.481C62.2407 116.997 63.481 112.596 61.7135 112.143Z" fill="#B86239"/>
<path d="M65.5469 103.74C64.3763 103.531 63.0366 107.774 64.3598 108.151C65.6829 108.525 66.7905 103.962 65.5469 103.74Z" fill="#B86239"/>
<path d="M66.2798 96.1316C65.1324 95.7411 63.6733 99.7488 64.761 100.205C65.8487 100.659 67.8782 96.6777 66.2798 96.1316Z" fill="#B86239"/>
<path d="M72.3517 102.175C71.3568 101.877 69.533 104.991 70.7699 105.633C72.0035 106.275 73.4792 102.512 72.3517 102.175Z" fill="#B86239"/>
<path d="M69.8844 110.375C68.9526 110.071 67.9578 114.072 68.4287 114.257C69.2975 114.598 71.0086 110.746 69.8844 110.375Z" fill="#B86239"/>
<path d="M72.9287 93.6165C71.9073 93.1333 70.1663 96.8034 71.516 97.366C72.8657 97.9286 74.6796 94.4438 72.9287 93.6165Z" fill="#B86239"/>
</g>
<defs>
<clipPath id="clip0_1_1330">
<rect width="173" height="213" fill="white"/>
</clipPath>
</defs>
</svg>
