<svg width="221" height="189" viewBox="0 0 221 189" fill="none" xmlns="http://www.w3.org/2000/svg">
<g clip-path="url(#clip0_1_1309)">
<path d="M88.9255 140.238C92.0755 139.289 89.9283 133.351 87.1828 134.288C84.5833 135.173 85.777 141.188 88.9255 140.238Z" fill="#2B2C2B"/>
<path d="M95.7677 120.601C95.5407 119.703 94.9088 118.744 94.0504 118.335C93.4696 118.059 92.8105 118.08 92.2641 118.417C91.0723 119.151 91.0918 121.053 91.6265 122.174C92.2707 123.525 93.8843 124.015 95.1014 123.034C95.8193 122.459 95.9822 121.459 95.7663 120.599L95.7677 120.601Z" fill="#2B2C2B"/>
<path d="M101.388 144.746C102.412 146.27 104.823 146.216 105.663 144.56C106.313 143.28 105.949 141.363 104.55 140.745C102.259 139.732 100.055 142.766 101.388 144.746Z" fill="#2B2C2B"/>
<path d="M108.467 124.677C107.003 124.847 106.303 126.388 106.506 127.703C106.617 128.434 106.951 129.114 107.371 129.722C107.672 130.157 108.028 130.569 108.487 130.832C109.347 131.323 110.213 131.054 110.834 130.338C111.572 129.485 111.713 128.102 111.382 127.057C111.002 125.858 109.825 124.521 108.465 124.678L108.467 124.677Z" fill="#2B2C2B"/>
<path d="M131.023 130.481C132.912 129.636 132.388 126.597 131.55 125.207C131.085 124.432 130.103 123.698 129.196 124.015C129.059 124.063 128.925 124.133 128.794 124.231C128.465 124.477 128.251 124.852 128.104 125.235C127.583 126.576 127.984 128.381 128.683 129.575C128.883 129.918 129.128 130.248 129.462 130.462C129.938 130.766 130.525 130.704 131.021 130.482L131.023 130.481Z" fill="#2B2C2B"/>
<path d="M142.89 120.591C143.431 123.117 146.296 124.791 148.259 122.477C150.222 120.163 147.933 114.982 145.05 115.637C143.312 116.032 142.349 118.064 142.89 120.591Z" fill="#2B2C2B"/>
<path d="M120.392 110.675C120.143 110.182 119.791 109.724 119.313 109.445C118.744 109.111 118.231 109.032 117.779 109.13C115.488 109.634 115.461 113.108 116.48 114.661C116.726 115.037 117.044 115.378 117.436 115.597C118.771 116.344 120.418 115.257 120.78 113.904C121.05 112.892 120.862 111.609 120.391 110.678L120.392 110.675Z" fill="#2B2C2B"/>
<path d="M132.865 96.8597C135.15 96.4002 133.633 91.405 131.433 92.4035C129.21 93.4113 130.578 97.3171 132.865 96.8597Z" fill="#2B2C2B"/>
<path d="M103.837 107.17C107.241 106.5 105.16 99.9908 102.217 101.065C99.6504 102.001 100.433 107.841 103.837 107.17Z" fill="#2B2C2B"/>
<path d="M157.169 104.857C157.318 104.494 157.351 104.095 157.328 103.704C157.236 102.169 155.952 99.8409 154.127 100.113C152.861 100.302 152.297 101.98 152.401 103.104C152.512 104.293 153.277 105.38 154.424 105.759C155.401 106.082 156.734 105.924 157.171 104.856L157.169 104.857Z" fill="#2B2C2B"/>
<path d="M166.152 86.1932C166.727 84.9625 166.515 83.2912 165.868 82.1272C165.355 81.2035 164.431 80.5831 163.525 80.6494C163.008 80.6883 162.498 80.9516 162.071 81.5114C161.484 82.2866 161.361 83.3263 161.443 84.2964C161.522 85.2342 161.794 86.2021 162.453 86.8738C163.559 87.9991 165.504 87.5701 166.149 86.1925L166.152 86.1932Z" fill="#2B2C2B"/>
<path d="M172.402 86.3443C172.636 86.0002 172.717 85.5908 172.731 85.1988C172.768 84.18 172.376 83.1941 171.663 82.5057C171.335 82.1893 170.865 81.9276 170.39 82.0141C170.336 82.0237 170.28 82.04 170.226 82.0603C169.716 82.2482 169.442 82.8014 169.322 83.3062C169.157 83.9964 169.162 84.7065 169.337 85.3609C169.457 85.8107 169.663 86.2417 170.008 86.5528C170.62 87.1076 171.836 87.1716 172.403 86.3409L172.402 86.3443Z" fill="#2B2C2B"/>
<path d="M187.335 92.5483C187.315 93.983 187.991 96.1571 189.459 96.73C192.513 97.9201 192.532 93.6683 191.763 91.9257C191.499 91.3298 191.122 90.7698 190.592 90.3903C189.81 89.8312 189.096 89.813 188.535 90.1271C187.816 90.5326 187.354 91.4834 187.337 92.547L187.335 92.5483Z" fill="#2B2C2B"/>
<path d="M198.183 74.1946C198.312 73.6178 198.268 73.0084 198.156 72.42C198.03 71.7512 197.813 71.0809 197.387 70.5474C196.822 69.8429 196.29 69.6135 195.83 69.6874C193.853 70.0009 194.162 73.3511 194.841 74.6307C195.017 74.9624 195.237 75.277 195.537 75.5015C196.663 76.3467 197.927 75.3448 198.183 74.1946Z" fill="#2B2C2B"/>
<path d="M173.874 63.5897C170.953 64.0931 172.765 69.9257 175.363 69.265C177.959 68.6023 177.134 63.0276 173.874 63.5897Z" fill="#2B2C2B"/>
<path d="M183.712 45.7244C181.511 46.2015 182.022 51.8507 185.047 51.2763C188.072 50.7052 187.23 44.9619 183.712 45.7244Z" fill="#2B2C2B"/>
<path d="M203.867 58.2638C206.498 57.654 205.432 52.6657 202.285 53.462C200.066 54.0232 201.236 58.8736 203.867 58.2638Z" fill="#2B2C2B"/>
<path d="M141.452 70.0609C138.182 71.1632 140.387 77.2554 143.309 76.5278C146.232 75.8001 144.79 68.9376 141.452 70.0609Z" fill="#2B2C2B"/>
<path d="M50.7224 175.211C50.7224 175.211 46.1417 169.936 43.4331 173.877C39.6369 179.4 57.5806 184.219 57.5806 184.219C57.5806 184.219 58.6294 165.54 52.1455 168.137C48.2625 169.692 50.7224 175.211 50.7224 175.211Z" fill="#2B2C2B"/>
<path d="M154.065 10.2604C150.182 11.815 152.642 17.3344 152.642 17.3344C152.642 17.3344 148.061 12.0598 145.352 16.0001C141.556 21.5233 159.5 26.3422 159.5 26.3422C159.5 26.3422 160.549 7.66325 154.065 10.2604Z" fill="#2B2C2B"/>
</g>
<defs>
<clipPath id="clip0_1_1309">
<rect width="202.184" height="93.1875" fill="white" transform="translate(0 110.521) rotate(-33.1367)"/>
</clipPath>
</defs>
</svg>
