<svg width="194" height="127" viewBox="0 0 194 127" fill="none" xmlns="http://www.w3.org/2000/svg">
<path d="M181.451 37.8133C172.828 33.3004 162.532 32.1645 152.708 33.1594C142.884 34.1542 133.425 37.1539 124.217 40.5043C133.266 34.9947 135.372 22.0238 129.153 13.7698C122.935 5.51765 109.99 2.80951 100.188 7.04038C90.3853 11.2713 84.2714 21.555 84.6337 31.6462C83.1013 24.8425 81.5147 17.9092 77.8011 11.8868C74.0855 5.8645 67.8185 0.791264 60.4203 0.0823064C52.0727 -0.716224 43.8957 4.38941 39.9689 11.3246C36.0422 18.2598 35.8562 26.6225 37.7256 34.2724C39.597 41.9222 43.3688 49.029 47.1096 56.0518C36.972 50.7594 25.1491 45.3127 14.2522 49.0614C6.4917 51.7314 1.01709 59.0039 0.137587 66.6938C-0.741915 74.3856 2.6618 82.2356 8.43861 87.7739C15.1937 94.2517 25.1608 97.6707 34.7946 96.8169C36.8345 96.6359 38.8492 96.2528 40.8116 95.7077C39.0488 108.425 48.5044 122.082 61.9604 125.568C77.063 129.479 94.3276 120.779 100.112 107.16C102.983 115.492 112.15 121.045 121.472 121.848C130.794 122.65 140.085 119.353 147.857 114.474C156.35 109.144 163.758 101.223 164.936 91.7227C165.949 83.5449 160.782 74.5495 152.812 71.8547C160.742 73.3374 168.857 74.399 176.644 72.5942C185.771 70.4788 194.256 63.1719 193.994 54.3843C193.785 47.3061 188.058 41.2724 181.451 37.8133Z" fill="#76C8CC"/>
<path d="M84.3315 59.9112C84.3315 64.8492 81.9913 68.8533 79.1049 68.8533C76.2184 68.8533 73.8782 64.8492 73.8782 59.9112C73.8782 54.9733 76.2184 50.9692 79.1049 50.9692C81.9913 50.9692 84.3315 54.9733 84.3315 59.9112Z" fill="#333333"/>
<path d="M111.598 59.9112C111.598 64.8492 109.258 68.8533 106.371 68.8533C103.485 68.8533 101.145 64.8492 101.145 59.9112C101.145 54.9733 103.485 50.9692 106.371 50.9692C109.258 50.9692 111.598 54.9733 111.598 59.9112Z" fill="#333333"/>
<path d="M60.5287 77.3357C66.6484 83.3752 74.7209 87.4479 83.2699 88.8524C91.8382 90.2608 100.67 88.8982 108.454 85.1228C112.782 83.0226 116.739 80.1811 120.077 76.7506C120.684 76.1274 119.721 75.1764 119.112 75.8015C113.343 81.7324 105.717 85.7803 97.5337 87.3583C89.3101 88.9439 80.6701 87.8271 73.082 84.3509C68.7794 82.3804 64.8429 79.6932 61.4935 76.3866C60.8736 75.7748 59.9088 76.722 60.5287 77.3357Z" fill="#333333"/>
<path d="M130.687 66.1714C130.687 67.1586 129.06 67.9591 127.051 67.9591C125.042 67.9591 123.415 67.1586 123.415 66.1714C123.415 65.1842 125.042 64.3838 127.051 64.3838C129.06 64.3838 130.687 65.1842 130.687 66.1714Z" fill="#FFE1D7"/>
<path d="M142.503 66.1714C142.503 67.1586 140.875 67.9591 138.866 67.9591C136.857 67.9591 135.23 67.1586 135.23 66.1714C135.23 65.1842 136.857 64.3838 138.866 64.3838C140.875 64.3838 142.503 65.1842 142.503 66.1714Z" fill="#FFE1D7"/>
<path d="M136.141 72.4302C136.141 73.4174 134.513 74.2179 132.505 74.2179C130.496 74.2179 128.868 73.4174 128.868 72.4302C128.868 71.443 130.496 70.6426 132.505 70.6426C134.513 70.6426 136.141 71.443 136.141 72.4302Z" fill="#FFE1D7"/>
<path d="M45.7012 68.8531C47.7094 68.8531 49.3374 68.0528 49.3374 67.0655C49.3374 66.0782 47.7094 65.2778 45.7012 65.2778C43.693 65.2778 42.0651 66.0782 42.0651 67.0655C42.0651 68.0528 43.693 68.8531 45.7012 68.8531Z" fill="#FFE1D7"/>
<path d="M61.1526 67.0655C61.1526 68.0527 59.5253 68.8531 57.5164 68.8531C55.5075 68.8531 53.8802 68.0527 53.8802 67.0655C53.8802 66.0783 55.5075 65.2778 57.5164 65.2778C59.5253 65.2778 61.1526 66.0783 61.1526 67.0655Z" fill="#FFE1D7"/>
<path d="M54.7907 73.3243C54.7907 74.3115 53.1634 75.1119 51.1545 75.1119C49.1456 75.1119 47.5183 74.3115 47.5183 73.3243C47.5183 72.3371 49.1456 71.5366 51.1545 71.5366C53.1634 71.5366 54.7907 72.3371 54.7907 73.3243Z" fill="#FFE1D7"/>
</svg>
