<svg width="326" height="222" viewBox="0 0 326 222" fill="none" xmlns="http://www.w3.org/2000/svg">
<g clip-path="url(#clip0_1_1002)">
<path d="M240.955 152.775C244.14 160.307 257.244 154.15 255.427 147.406C254.039 142.257 248.689 134.868 246.236 131.657C244.164 132.447 241.601 133.414 238.598 134.524C238.497 138.707 238.624 147.257 240.955 152.775Z" fill="#48B39A"/>
<path d="M220.007 158.553C224.475 166.29 236.436 162.631 235.766 155.017C235.274 149.414 230.746 141.834 228.392 138.225C225.901 139.11 223.24 140.049 220.426 141.024C218.901 145.383 216.928 153.222 220.008 158.557L220.007 158.553Z" fill="#48B39A"/>
<path d="M170.698 174.987C174.783 181.829 188.044 177.454 185.65 170.181C184.002 165.169 178.666 158.856 175.505 155.416C172.889 156.179 170.452 156.879 168.199 157.51C167.91 162.092 167.873 170.253 170.698 174.987Z" fill="#48B39A"/>
<path d="M149.429 181.681C153.748 189.264 166.068 182.236 164.681 175.559C163.717 170.93 160.182 164.031 158.105 160.235C155.24 160.979 152.923 161.548 151.143 161.973C149.226 166.941 146.361 176.291 149.431 181.677L149.429 181.681Z" fill="#48B39A"/>
<path d="M250.897 123.688C284.943 116.997 308.858 85.6578 302.586 61.4908C296.153 36.6908 275.188 33.5328 263.783 44.2889C252.377 55.0417 253.552 78.1449 252.085 91.4077C251.181 99.5914 247.535 104.397 244.872 106.883C246.712 111.591 249.572 119.121 250.897 123.688ZM298.016 88.8232C296.217 89.2925 294.252 89.4997 292.305 89.1334C288.862 88.5132 285.816 86.3632 283.616 83.7189C281.023 80.66 279.276 77.0211 278.037 73.2634L277.975 73.2906C277.882 72.9463 277.736 72.5324 277.718 72.2616C277.683 71.6973 277.673 71.0839 277.781 70.7509C277.826 70.6209 278.161 71.0684 278.338 71.4163C278.596 71.9369 278.871 72.5751 279.111 73.2059C279.841 75.1469 280.742 77.0231 281.756 78.8303C283.781 82.4264 286.655 85.658 290.366 87.1766C291.502 87.6601 292.705 87.9801 293.943 88.1248C295.175 88.2976 296.439 88.2884 297.692 88.1256C298.04 88.0796 298.605 88.2007 298.669 88.319C298.733 88.4407 298.374 88.7368 298.021 88.8255L298.016 88.8232ZM277.274 51.3947C277.241 50.9342 277.25 50.4305 277.365 50.1517C277.413 50.0432 277.73 50.3878 277.9 50.6522C278.137 51.0518 278.401 51.5331 278.626 52.0114C279.329 53.4718 280.26 54.8379 281.451 55.7968C282.658 56.7324 284.186 57.0286 285.616 56.5711C286.279 56.3286 286.898 56.0143 287.288 55.4583C287.673 54.9147 287.974 54.267 288.074 53.5145C288.383 51.6833 288.176 49.6226 287.733 47.6694C287.673 47.3968 287.749 46.9358 287.86 46.8746C287.972 46.802 288.296 47.0363 288.403 47.3053C288.951 48.6762 289.426 50.1406 289.501 51.7088C289.56 53.0693 289.417 54.5414 288.638 55.8405C288.265 56.496 287.663 57.018 287.007 57.4038C286.673 57.5797 286.309 57.683 285.956 57.8203C285.6 57.9214 285.236 57.9536 284.875 58.0186C284.458 58.0939 284.019 58.0189 283.59 58.0196C283.168 57.9393 282.731 57.8564 282.331 57.702C281.527 57.3797 280.786 56.9029 280.194 56.3045C278.967 55.1364 278.201 53.666 277.582 52.1833L277.52 52.2139C277.432 51.9351 277.286 51.6113 277.278 51.3858L277.274 51.3947ZM272.063 56.7151C275.001 55.7903 278.131 57.4209 279.056 60.3583C279.98 63.2958 278.348 66.4248 275.41 67.3496C272.472 68.2744 269.342 66.6438 268.418 63.7064C267.493 60.7689 269.125 57.6398 272.063 56.7151Z" fill="#48B39A"/>
<path d="M277.58 52.1917C278.199 53.6709 278.965 55.1413 280.193 56.3128C280.787 56.9067 281.525 57.3846 282.33 57.7104C282.733 57.8637 283.17 57.9465 283.588 58.0279C284.018 58.0272 284.457 58.1022 284.874 58.0269C285.235 57.9619 285.598 57.9297 285.955 57.8286C286.305 57.6924 286.669 57.5891 287.005 57.4122C287.661 57.0263 288.263 56.5043 288.636 55.8489C289.416 54.5498 289.558 53.0776 289.5 51.7172C289.425 50.149 288.949 48.6845 288.402 47.3136C288.295 47.0446 287.971 46.8104 287.859 46.8829C287.747 46.9442 287.672 47.4051 287.732 47.6778C288.173 49.6275 288.382 51.6917 288.072 53.5228C287.973 54.2753 287.672 54.923 287.286 55.4667C286.897 56.0226 286.282 56.3359 285.614 56.5795C284.185 57.0369 282.656 56.7407 281.45 55.8052C280.258 54.8462 279.328 53.4801 278.625 52.0198C278.4 51.5414 278.136 51.0601 277.898 50.6605C277.729 50.3961 277.416 50.0538 277.363 50.16C277.249 50.4388 277.239 50.9425 277.272 51.403C277.28 51.6286 277.426 51.9523 277.514 52.2311L277.576 52.2006L277.58 52.1917Z" fill="#2B2C2B"/>
<path d="M276.591 66.8361C279.238 65.2618 280.107 61.8407 278.533 59.1949C276.959 56.5492 273.537 55.6806 270.89 57.255C268.244 58.8294 267.374 62.2505 268.948 64.8963C270.523 67.542 273.945 68.4105 276.591 66.8361Z" fill="#F06985"/>
<path d="M297.688 88.1235C296.434 88.2862 295.17 88.2955 293.938 88.1227C292.704 87.9769 291.501 87.6569 290.362 87.1745C286.651 85.6559 283.775 82.4209 281.751 78.8281C280.739 77.0244 279.838 75.1482 279.106 73.2037C278.87 72.5719 278.591 71.9348 278.334 71.4142C278.157 71.0663 277.822 70.6188 277.777 70.7488C277.668 71.0818 277.678 71.6952 277.714 72.2594C277.732 72.5303 277.874 72.9452 277.971 73.2884L278.033 73.2613C279.275 77.0179 281.019 80.6579 283.611 83.7168C285.811 86.361 288.858 88.5111 292.301 89.1313C294.249 89.5009 296.212 89.2903 298.012 88.8211C298.365 88.7323 298.724 88.4362 298.66 88.3145C298.596 88.1962 298.031 88.0751 297.683 88.1211L297.688 88.1235Z" fill="#2B2C2B"/>
<path d="M251.556 126.436C251.519 126.448 244.787 128.264 241.727 126.227C238.662 124.183 236.049 120.085 235.385 114.935C234.718 109.787 238.698 103.763 243.19 102.644C243.19 102.644 243.661 103.808 244.375 105.627C243.468 103.218 242.485 100.688 241.434 98.0743C241.262 98.289 237.836 102.45 232.073 102.545C226.158 102.647 219.159 96.0385 213.751 87.0243C208.349 78.0192 206.044 62.6325 211.246 57.5206C207.694 55.6788 203.959 54.2613 200.121 53.2907C200.275 54.5502 201.922 68.8921 198.537 74.1123C194.997 79.5722 169.95 86.461 162.303 81.7832C154.655 77.102 150.385 65.7192 150.385 65.7192C150.392 65.7058 150.415 65.6836 150.422 65.6702C147.471 68.288 144.981 71.2686 142.938 74.7064C155.155 77.9536 163.298 89.5522 163.306 95.8719C163.315 102.195 163.497 118.522 158.661 125.683C154.018 132.559 139.692 137.004 138.559 137.345C138.882 138.835 139.221 140.28 139.565 141.67C140.201 141.327 150.798 135.713 154.74 137.204C158.809 138.744 161.332 145.797 156.595 151.327C152.16 156.5 146.039 159.271 145.27 159.607C146.134 161.782 146.693 162.978 146.693 162.978C146.693 162.978 148.172 162.677 151.142 161.97C152.923 161.548 155.239 160.975 158.104 160.231C160.934 159.497 164.295 158.596 168.2 157.502C170.453 156.871 172.895 156.174 175.506 155.408C181.52 153.65 188.477 151.539 196.421 149.001C205.265 146.177 213.331 143.47 220.426 141.013C223.24 140.037 225.902 139.102 228.392 138.214C232.197 136.86 235.618 135.615 238.598 134.513C241.601 133.403 244.164 132.436 246.236 131.645C250.237 130.117 252.41 129.243 252.41 129.243C252.41 129.243 252.118 128.232 251.557 126.425L251.556 126.436ZM178.727 146.805C174.954 149.592 166.833 147.044 164.968 141.839C163.102 136.635 167.578 127.603 170.836 126.578C175.277 125.18 181.636 128.436 183.061 131.265C184.485 134.093 182.498 144.015 178.726 146.802L178.727 146.805ZM176.201 118.186C171.987 111.815 166.957 101.89 181.497 93.3527C196.037 84.8124 202.14 83.1233 209.751 95.2068C213.201 100.682 218.322 107.904 215.172 111.944C212.022 115.985 198.012 124.508 191.571 127.297C185.131 130.087 180.419 124.56 176.202 118.19L176.201 118.186ZM232.507 129.353C231.439 133.653 220.802 133.918 219.078 132.406C217.353 130.893 215.453 124.153 215.11 120.737C214.768 117.321 224.983 111.977 228.694 113.746C232.184 115.405 233.577 125.055 232.504 129.354L232.507 129.353Z" fill="#DC7445"/>
<path d="M144.151 156.682C143.484 154.751 142.592 152.132 141.766 149.601C142.609 152.34 143.428 154.716 144.151 156.682Z" fill="#DC7445"/>
<path d="M136.684 93.1573C136.735 92.8572 136.785 92.5649 136.835 92.2727C136.783 92.5694 136.731 92.8582 136.684 93.1573Z" fill="#DC7445"/>
<path d="M235.385 114.936C236.053 120.084 238.661 124.18 241.727 126.227C244.784 128.265 251.518 126.445 251.556 126.436C251.455 125.758 251.221 124.812 250.894 123.689C249.568 119.122 246.706 111.593 244.868 106.884C244.695 106.442 244.528 106.016 244.375 105.627C243.661 103.808 243.19 102.645 243.19 102.645C238.695 103.764 234.718 109.787 235.385 114.936Z" fill="#B86239"/>
<path d="M215.108 120.731C215.45 124.147 217.351 130.887 219.076 132.399C220.8 133.912 231.436 133.647 232.505 129.346C233.574 125.045 232.182 115.398 228.695 113.738C224.981 111.97 214.769 117.314 215.111 120.73L215.108 120.731Z" fill="#B86239"/>
<path d="M213.752 87.028C219.16 96.0422 226.158 102.647 232.074 102.549C237.836 102.45 241.262 98.2893 241.435 98.078C241.441 98.0725 241.451 98.058 241.451 98.058C241.451 98.058 237.535 84.2846 228.862 71.8924C222.348 62.5835 211.261 57.5122 211.261 57.5122C211.255 57.5143 211.25 57.5232 211.244 57.5288C206.043 62.6407 208.348 78.0274 213.749 87.0325L213.752 87.028Z" fill="#B86239"/>
<path d="M209.75 95.2036C202.135 83.1211 196.037 84.8125 181.496 93.3495C166.957 101.89 171.986 111.812 176.2 118.183C180.414 124.554 185.128 130.08 191.569 127.291C198.01 124.501 212.02 115.978 215.17 111.938C218.32 107.897 213.199 100.676 209.749 95.2002L209.75 95.2036Z" fill="#B86239"/>
<path d="M170.836 126.578C167.574 127.605 163.102 136.635 164.967 141.839C166.833 147.044 174.954 149.592 178.727 146.805C182.499 144.019 184.486 134.097 183.062 131.268C181.637 128.44 175.278 125.184 170.837 126.582L170.836 126.578Z" fill="#B86239"/>
<path d="M154.741 137.207C150.795 135.714 140.199 141.332 139.566 141.673C139.546 141.683 139.534 141.691 139.534 141.691C139.611 142.754 140.623 146.09 141.767 149.605C142.59 152.137 143.485 154.755 144.152 156.686C144.766 158.458 145.186 159.648 145.186 159.648C145.186 159.648 145.216 159.639 145.267 159.612C146.04 159.275 152.161 156.504 156.592 151.332C161.333 145.801 158.806 138.746 154.738 137.209L154.741 137.207Z" fill="#B86239"/>
<path d="M158.661 125.684C163.497 118.523 163.312 102.197 163.306 95.8724C163.298 89.5527 155.155 77.954 142.938 74.7068C142.931 74.7056 142.926 74.7033 142.918 74.702C142.918 74.702 139.557 78.368 137.187 90.3498C137.135 90.6127 137.084 90.8903 137.031 91.1611C136.963 91.5263 136.895 91.8949 136.827 92.2714C136.777 92.5637 136.724 92.857 136.676 93.1561C136.328 95.2571 136.012 97.5684 135.747 100.122C133.687 119.976 138.473 137.369 138.473 137.369C138.473 137.369 138.507 137.359 138.551 137.345C139.684 137.003 154.01 132.558 158.653 125.682L158.661 125.684Z" fill="#B86239"/>
<path d="M162.304 81.787C169.952 86.4682 194.998 79.576 198.539 74.116C201.924 68.8993 200.276 54.554 200.123 53.2945C200.116 53.2368 200.111 53.1973 200.111 53.1973C200.111 53.1973 188.176 49.1816 173.5 53.419C158.976 57.6128 151.359 64.2546 150.427 65.6729C150.416 65.6874 150.397 65.7085 150.39 65.7219C150.39 65.7219 154.66 77.1047 162.308 81.7859L162.304 81.787Z" fill="#B86239"/>
<path d="M73.8718 108.718C71.2425 102.181 66.1146 97.0988 60.6925 93.2789C58.6052 95.0194 55.4653 95.9927 52.9215 95.6536C48.6521 95.0804 47.8855 90.2101 48.7234 86.6732C44.3387 84.7837 41.1974 83.9115 41.1974 83.9115C12.8779 95.3054 9.59041 119.634 9.59041 119.634C18.2454 119.32 31.6578 108.22 31.6578 108.22C24.3624 123.127 35.1028 134.831 35.1028 134.831C44.3231 124.912 43.3872 110.335 43.3872 110.335C49.5746 123.558 62.748 130.296 62.748 130.296C65.8016 114.18 55.9514 101.243 55.9514 101.243C65.9061 109.476 73.8752 108.717 73.8752 108.717L73.8718 108.718Z" fill="#48B39A"/>
<path d="M52.9215 95.6535C55.4652 95.9925 58.6051 95.0193 60.6925 93.2788C62.161 92.0543 63.1139 90.4503 62.9494 88.6451C62.5499 84.2757 59.705 79.8801 55.448 80.5698C53.328 80.9119 49.6693 82.9564 48.7646 86.5069C48.7513 86.5597 48.7401 86.6192 48.7268 86.672C47.8855 90.21 48.652 95.0803 52.9249 95.6524L52.9215 95.6535Z" fill="#2B2C2B"/>
<path d="M83.2507 69.791C77.6782 60.8733 68.634 67.9196 68.5092 71.2881C68.3845 74.6566 69.3632 80.5214 75.2764 80.1774C81.193 79.8323 85.7899 73.8569 83.2507 69.791Z" fill="#2B2C2B"/>
<path d="M72.2639 97.0654C74.6645 100.525 79.1325 99.4959 83.0545 97.8841C86.9799 96.2713 89.4917 91.2361 85.8875 87.8006C81.1349 83.2693 69.8632 93.6061 72.2639 97.0654Z" fill="#2B2C2B"/>
</g>
<defs>
<clipPath id="clip0_1_1002">
<rect width="297" height="139" fill="white" transform="translate(0 89.1614) rotate(-17.47)"/>
</clipPath>
</defs>
</svg>
