<svg width="1920" height="1351" viewBox="0 0 1920 1351" fill="none" xmlns="http://www.w3.org/2000/svg">
<path d="M1297 801.46H1273V807.36H1297V801.46Z" fill="#FFDFED"/>
<path d="M1300.33 789.555L1300.13 793.278L1324.13 793.515L1324.32 789.793L1300.33 789.555Z" fill="#FFDFED"/>
<path d="M1306.72 771.887L1282.73 772.06L1282.96 778.268L1306.96 778.095L1306.72 771.887Z" fill="#FFDFED"/>
<path d="M1350.57 772.915L1326.73 774.121L1328.64 781.271L1352.48 780.065L1350.57 772.915Z" fill="#FFDFED"/>
<path d="M1356.45 756.89L1332.47 757.248L1333.03 764.389L1357.02 764.032L1356.45 756.89Z" fill="#FFDFED"/>
<path d="M1354.99 801.799L1331.03 802.39L1332 809.833L1355.96 809.242L1354.99 801.799Z" fill="#FFDFED"/>
<path d="M1370.42 787.411L1346.48 788.189L1347.71 795.337L1371.64 794.559L1370.42 787.411Z" fill="#FFDFED"/>
<path d="M1393.19 772.746L1369.29 773.691L1370.71 780.521L1394.61 779.576L1393.19 772.746Z" fill="#FFDFED"/>
<path d="M1426.18 756L1402.19 756.295L1402.85 766.542L1426.84 766.246L1426.18 756Z" fill="#FFDFED"/>
<path d="M1399.18 795.404L1398.46 805.649L1422.45 805.966L1423.17 795.721L1399.18 795.404Z" fill="#FFDFED"/>
<path d="M1362.86 817.202L1361.44 825.273L1385.36 826.074L1386.79 818.003L1362.86 817.202Z" fill="#FFDFED"/>
<path d="M1318.95 817.654L1318.09 825.413L1342.06 825.918L1342.92 818.159L1318.95 817.654Z" fill="#FFDFED"/>
<path d="M1429.04 779.815L1426.96 785.407L1450.65 787.078L1452.73 781.486L1429.04 779.815Z" fill="#FFDFED"/>
<path d="M1418.14 822.857L1416.06 830.309L1439.88 831.572L1441.96 824.12L1418.14 822.857Z" fill="#FFDFED"/>
<path d="M0 0.00399171V267.638C1.13365 268 2.28825 268.297 3.46082 268.527C11.6239 270.127 20.4236 267.586 26.6776 262.155C33.7649 256.001 35.2468 247.389 36.5102 238.534C39.6627 216.443 57.0166 208.504 72.7669 195.557C90.6618 180.847 102.552 155.292 94.9718 132.238C91.5839 121.937 83.5655 114.383 77.1518 105.967C70.5236 97.2711 66.1028 87.2249 64.8514 76.3056C63.2168 62.0422 69.0586 52.5479 82.5187 48.0492C97.8189 42.9359 113.116 37.8095 128.425 32.7221C143.422 27.7384 158.406 22.0163 173.929 18.9367C181.641 17.4069 189.448 16.372 197.283 15.7363C202.305 15.3292 207.359 15.1126 212.305 14.1616C217.934 13.0798 223.293 11.077 227.289 6.90267C228.985 5.14033 229.823 2.60659 229.863 0H146.2L0 0.00399171Z" fill="#FFD59A"/>
<path d="M76.694 80.5398C76.5892 89.7726 80.1977 98.8079 86.6503 105.416C87.6812 106.472 86.0625 108.094 85.0297 107.037C78.1649 100.006 74.291 90.3684 74.4017 80.5398C74.4187 79.0659 76.7099 79.0619 76.693 80.5398H76.694Z" fill="#FFD59A"/>
<path d="M72.7213 200.832C81.9252 196.356 89.4675 188.96 94.078 179.819C94.7426 178.501 96.7614 179.585 96.0968 180.904C91.3287 190.359 83.473 198.138 73.9477 202.769C72.6335 203.408 71.396 201.477 72.7213 200.833V200.832Z" fill="#FFD59A"/>
<path d="M203.91 147.763C199.067 136.461 201.413 122.896 208.474 113.061C212.141 107.951 217.36 103.616 223.355 101.562C226.878 100.355 230.895 99.927 234.345 101.608C237.489 103.141 239.772 105.926 241.576 108.848C245.78 115.653 248.406 123.499 249.537 131.399C250.105 135.358 250.253 139.391 250.018 143.383C249.925 144.948 249.788 146.523 249.07 147.947C248.608 148.863 247.824 150.025 246.657 149.74C245.309 149.41 244.846 147.586 244.546 146.436C244.007 144.366 243.534 142.273 243.081 140.182C242.141 135.844 241.385 131.457 241.157 127.019C240.77 119.483 241.99 111.926 246.224 105.558C249.716 100.304 255.252 95.9636 261.715 95.4287C268.718 94.8489 275.229 98.5624 279.764 103.669C284.881 109.43 287.283 117.036 288.697 124.472C289.078 126.48 289.392 128.501 289.67 130.526C289.9 132.2 290.183 133.892 290.144 135.586C290.116 136.82 289.959 138.215 289.236 139.255C288.634 140.12 287.521 140.522 286.524 140.091C285.32 139.571 284.557 138.19 284.049 137.058C283.336 135.467 283.032 133.706 282.697 132.007C281.902 127.988 281.415 123.884 281.647 119.78C281.86 116.004 282.728 112.17 284.645 108.88C286.344 105.964 288.785 103.459 291.735 101.805C294.478 100.268 297.707 99.54 300.822 100.171C303.515 100.717 305.898 102.08 307.833 104.019C312.067 108.262 314.091 114.389 315.339 120.114C315.677 121.666 315.962 123.233 316.183 124.806C316.436 126.602 316.671 128.742 315.663 130.357C314.998 131.425 313.524 132.409 312.264 131.776C310.904 131.095 310.574 129.103 310.34 127.771C309.223 121.45 310.902 114.799 314.35 109.452C317.612 104.397 322.746 100.185 328.737 98.986C333.786 97.9745 339.837 98.8951 343.806 102.372C345.67 104.006 346.885 106.102 347.329 108.543C347.444 109.172 348.208 109.528 348.784 109.369C349.445 109.187 349.725 108.545 349.609 107.915C348.497 101.809 343.016 97.9351 337.23 96.7376C334.141 96.0981 330.933 96.0994 327.848 96.7593C324.588 97.4572 321.563 99.0241 318.929 101.046C313.259 105.397 309.306 111.953 308.082 118.997C307.471 122.508 307.434 126.242 308.337 129.71C308.813 131.539 309.777 133.343 311.624 134.066C313.388 134.755 315.338 134.04 316.672 132.812C319.83 129.909 318.668 124.899 317.969 121.209C317.34 117.885 316.466 114.591 315.19 111.453C312.785 105.545 308.75 99.7912 302.262 98.0791C294.812 96.113 287.46 100.42 283.35 106.499C278.38 113.847 278.691 123.369 280.242 131.729C280.884 135.193 281.578 139.412 284.604 141.675C285.913 142.653 287.621 142.898 289.138 142.268C290.622 141.651 291.537 140.321 292.02 138.831C292.507 137.336 292.581 135.681 292.471 134.121C292.323 132.034 291.972 129.942 291.659 127.874C291.006 123.556 290.144 119.251 288.741 115.108C286.145 107.442 281.563 100.394 274.463 96.2203C271.192 94.2976 267.473 93.0933 263.665 93.005C260.046 92.9209 256.462 93.8944 253.31 95.6554C246.96 99.206 242.432 105.677 240.319 112.548C237.571 121.479 238.755 131.156 240.654 140.127C241.146 142.447 241.669 144.768 242.266 147.064C242.702 148.739 243.392 150.529 244.897 151.521C246.376 152.495 248.236 152.262 249.566 151.168C250.831 150.127 251.56 148.44 251.95 146.886C252.43 144.97 252.439 142.907 252.474 140.943C252.515 138.717 252.432 136.489 252.231 134.272C251.829 129.861 250.984 125.487 249.677 121.254C248.377 117.046 246.638 112.952 244.477 109.115C242.573 105.736 240.193 102.447 236.883 100.323C229.743 95.7437 220.642 99.0852 214.421 103.702C208.94 107.769 204.763 113.342 202.128 119.62C199.53 125.806 198.441 132.705 199.276 139.379C199.692 142.696 200.547 145.884 201.864 148.956C202.115 149.543 202.979 149.675 203.481 149.38C204.088 149.026 204.157 148.352 203.905 147.763H203.91Z" fill="#FFD59A"/>
<path d="M1827.32 107.594C1826.66 105.879 1823.82 105.434 1823.37 107.594C1822.26 112.814 1821.71 117.69 1818.03 121.905C1814.33 126.146 1808.91 128.281 1803.34 128.326C1797.98 128.371 1792.8 126.506 1788.76 122.966C1784.87 119.55 1780.91 113.92 1781.69 108.504C1782.5 102.908 1786.87 98.2677 1791.6 95.5174C1796.64 92.587 1804.75 89.9867 1810.58 91.5019C1816.04 92.9221 1819.12 98.7827 1818.8 104.128C1818.46 109.664 1814.86 115.5 1810.14 118.435C1804.49 121.955 1793.43 117.4 1794.09 109.894C1794.33 107.164 1797.32 103.313 1800.23 102.813C1801.27 102.633 1801.5 102.843 1801.69 103.403C1798.73 103.728 1795.78 106.534 1796.73 109.979C1798.14 115.09 1803.59 117.525 1808.35 114.935C1812.82 112.494 1815 106.669 1813.58 101.788C1812.21 97.0825 1807 94.0472 1802.2 94.8823C1798.19 95.5774 1794.11 98.8678 1791.58 101.943C1785.51 109.334 1791.43 118.295 1798.86 121.76C1807.12 125.611 1814.16 121.605 1818.85 114.435C1823.21 107.764 1823.95 98.8728 1818.62 92.502C1812.6 85.3112 1801.97 86.9064 1794.08 89.8317C1786.39 92.682 1779.06 98.7177 1777.28 107.074C1775.51 115.39 1781.37 123.781 1787.7 128.611C1795.63 134.667 1806.27 135.787 1815.23 131.307C1823.05 127.396 1830.78 116.605 1827.32 107.594H1827.32Z" fill="#FFCA6C"/>
<path d="M1814.99 46.3766C1814.95 45.9866 1814.33 45.8166 1814.24 46.2766C1813.08 50.6521 1811.93 55.0477 1810.84 59.4382C1809.94 63.0136 1808.14 67.9492 1809.41 71.5446C1809.85 72.7797 1811.82 73.3548 1812.49 71.9446C1814.17 68.3892 1813.84 63.4336 1814.35 59.5382C1814.94 55.1827 1815.51 50.7572 1814.99 46.3716V46.3766Z" fill="#FFCA6C"/>
<path d="M1798.95 149.714C1798.46 148.534 1797.17 148.069 1796.14 148.974C1794.5 150.424 1794.69 151.709 1794.52 153.809C1794.34 156.074 1794.15 158.31 1794.14 160.59C1794.13 164.936 1794.35 169.601 1795.89 173.707C1796.06 174.162 1796.69 174.082 1796.73 173.592C1797.09 169.471 1796.85 165.331 1797.34 161.21C1797.58 159.12 1797.92 157.005 1798.43 154.959C1798.98 152.759 1799.85 151.834 1798.96 149.719L1798.95 149.714Z" fill="#FFCA6C"/>
<path d="M1773.76 136.007C1773.76 134.832 1772.96 133.882 1771.87 133.532C1770.22 132.992 1768.89 133.962 1767.43 134.687C1765.17 135.817 1762.9 136.992 1760.75 138.317C1757.31 140.433 1753.36 142.868 1750.93 146.153C1750.79 146.338 1751.02 146.553 1751.21 146.513C1754.69 145.728 1757.96 143.808 1761.23 142.438C1764.24 141.183 1767.22 139.918 1770.27 138.782C1771.86 139.317 1773.76 138.342 1773.76 136.412C1773.76 136.282 1773.76 136.147 1773.76 136.017V136.007Z" fill="#FFCA6C"/>
<path d="M1765.12 102.728C1762.53 99.9979 1756.5 101.743 1753.13 102.088C1749.46 102.463 1744.24 102.208 1741.21 104.538C1740.85 104.818 1740.97 105.344 1741.44 105.394C1745.74 105.834 1750.09 105.964 1754.41 106.149C1757.59 106.284 1762.84 107.489 1765.12 104.803C1765.64 104.188 1765.7 103.343 1765.12 102.733V102.728Z" fill="#FFCA6C"/>
<path d="M1783.16 74.1149C1780.6 71.7496 1778.31 69.1843 1775.95 66.624C1774.28 64.8088 1772.51 62.1235 1769.84 61.9335C1769.76 61.9284 1769.67 62.0085 1769.68 62.0885C1769.94 64.8138 1771.73 67.7641 1772.91 70.1994C1774.39 73.2648 1776.32 76.1251 1778.71 78.5604C1781.55 81.4607 1786.13 76.8652 1783.16 74.1149Z" fill="#FFCA6C"/>
<path d="M1851.14 71.9896C1851.04 71.9096 1850.91 71.9546 1850.86 72.0546C1850.44 72.8497 1848.66 73.1898 1847.93 73.5348C1846.59 74.1549 1845.33 74.9 1844.05 75.6251C1841.33 77.1552 1838.22 78.4054 1835.82 80.3956C1834.91 81.1407 1834.43 82.3808 1834.9 83.511C1834.99 83.726 1835.1 83.931 1835.24 84.116C1835.94 85.0962 1837.26 85.4162 1838.36 85.0262C1840.75 84.1811 1854.88 75.075 1851.14 71.9896Z" fill="#FFCA6C"/>
<path d="M1865.96 116.02C1864.26 113.319 1860.36 113.534 1857.58 113.014C1853.71 112.289 1850.13 110.299 1846.14 110.309C1842.28 110.319 1842.48 115.75 1846.14 116.165C1849.78 116.575 1853.23 117.845 1856.93 117.815C1859.67 117.79 1863.47 117.87 1865.86 116.395C1865.99 116.32 1866.04 116.145 1865.96 116.02H1865.96Z" fill="#FFCA6C"/>
<path d="M1842.22 154.424C1840.48 153.784 1839.03 150.544 1837.99 149.114C1836.77 147.438 1835.48 145.808 1834.22 144.158C1832.15 141.443 1829.89 138.007 1826.49 136.997C1824.97 136.542 1823.58 138.037 1823.97 139.513C1825.12 143.933 1830.54 147.158 1833.91 149.894C1836.06 151.644 1839.22 155.404 1842.22 154.834C1842.44 154.789 1842.4 154.489 1842.22 154.424Z" fill="#FFCA6C"/>
<path d="M701.393 743.829L700.731 742.235C702.438 741.526 704.116 740.664 705.723 739.689L706.62 741.163C704.937 742.191 703.182 743.086 701.395 743.835L701.393 743.829ZM695.809 745.644C693.882 746.102 691.925 746.387 689.99 746.501L689.887 744.779C691.725 744.674 693.578 744.4 695.409 743.97L695.806 745.651L695.809 745.644ZM711.385 737.74L710.277 736.416C711.721 735.208 713.076 733.893 714.298 732.504L715.589 733.651C714.307 735.104 712.891 736.478 711.38 737.742L711.385 737.74ZM684.234 746.309L684.088 746.304C683.838 746.272 683.421 746.249 682.885 746.211C681.844 746.149 680.267 746.048 678.369 745.803L678.585 744.094C680.436 744.331 681.915 744.422 682.99 744.491C683.524 744.524 683.93 744.551 684.223 744.58L684.355 744.597L684.208 745.449L684.232 746.304L684.234 746.309ZM719.116 728.943L717.654 728.026C718.67 726.408 719.516 724.737 720.174 723.049L721.78 723.681C721.081 725.465 720.188 727.235 719.116 728.943ZM672.619 744.752C670.713 744.288 668.83 743.71 667.027 743.04L667.628 741.423C669.367 742.071 671.18 742.63 673.024 743.078L672.619 744.752ZM661.689 740.652C659.961 739.748 658.28 738.726 656.691 737.609L657.679 736.197C659.207 737.266 660.831 738.251 662.49 739.122L661.694 740.65L661.689 740.652ZM723.335 717.966L721.634 717.707C721.913 715.838 721.949 713.992 721.738 712.213L723.446 712.008C723.679 713.937 723.642 715.942 723.335 717.966ZM586.553 758.855C586.044 759.035 585.484 759.213 584.886 759.392L584.398 757.736C584.967 757.567 585.499 757.399 585.981 757.229C587.022 756.862 588.267 756.361 589.682 755.75L590.37 757.329C588.918 757.96 587.639 758.473 586.553 758.855ZM579.225 760.754C577.439 761.112 575.517 761.442 573.517 761.731L573.268 760.022C575.238 759.738 577.13 759.412 578.886 759.059L579.224 760.749L579.225 760.754ZM595.613 754.871L594.849 753.325C596.489 752.515 598.197 751.63 599.925 750.694L600.743 752.215C598.993 753.158 597.27 754.055 595.613 754.871ZM652.117 733.964C650.695 732.674 649.319 731.268 648.03 729.787L649.33 728.655C650.569 730.084 651.895 731.439 653.272 732.687L652.117 733.964ZM605.782 749.388L604.917 747.896C606.573 746.935 608.224 745.944 609.82 744.954L610.731 746.417C609.121 747.418 607.454 748.421 605.782 749.388ZM567.775 762.435C565.881 762.629 563.942 762.788 562.015 762.906L561.906 761.186C563.809 761.071 565.723 760.914 567.599 760.72L567.775 762.435ZM720.293 706.93C719.57 705.287 718.597 703.72 717.393 702.266L718.716 701.164C720.02 702.74 721.086 704.445 721.873 706.235L720.299 706.928L720.293 706.93ZM615.59 743.294L614.632 741.86C616.252 740.78 617.835 739.68 619.329 738.6L620.337 739.997C618.822 741.091 617.223 742.196 615.582 743.291L615.59 743.294ZM556.243 763.148C554.3 763.189 552.352 763.195 550.461 763.148L550.495 761.422C552.365 761.463 554.284 761.462 556.205 761.416L556.246 763.141L556.243 763.148ZM521.265 774.952C520.011 775.394 518.725 775.815 517.429 776.208L516.929 774.557C518.765 773.998 520.576 773.386 522.316 772.736L522.922 774.35C522.377 774.555 521.825 774.755 521.265 774.952ZM528.277 772.137L527.566 770.566C529.308 769.776 531.015 768.923 532.646 768.034L533.468 769.547C531.8 770.456 530.054 771.322 528.275 772.132L528.277 772.137ZM511.841 777.722C510.315 778.089 508.74 778.423 507.167 778.725C506.835 778.785 506.506 778.85 506.175 778.91L505.866 777.21C506.191 777.152 506.515 777.089 506.841 777.031C508.386 776.739 509.935 776.401 511.438 776.042L511.841 777.722ZM624.968 736.514L623.899 735.157C625.443 733.932 626.918 732.707 628.277 731.51L629.413 732.806C628.03 734.024 626.531 735.27 624.96 736.51L624.968 736.514ZM538.459 766.586L537.521 765.139C538.776 764.325 540.004 763.471 541.185 762.589C540.416 762.513 539.662 762.425 538.916 762.328L539.131 760.614C540.954 760.842 542.862 761.027 544.804 761.163L544.685 762.881C544.065 762.835 543.445 762.789 542.836 762.738L543.206 763.219C541.704 764.385 540.107 765.514 538.47 766.582L538.459 766.586ZM500.461 779.8C498.554 780.049 496.624 780.249 494.706 780.395L494.573 778.677C496.459 778.53 498.365 778.332 500.236 778.089L500.461 779.8ZM488.93 780.696C487.002 780.744 485.058 780.742 483.146 780.69L483.187 778.968C485.073 779.016 486.986 779.017 488.883 778.973L488.93 780.696ZM547.628 759.463L546.459 758.198C547.852 756.901 549.186 755.543 550.416 754.158L551.707 755.304C550.442 756.733 549.073 758.135 547.636 759.467L547.628 759.463ZM644.464 725.162C643.386 723.601 642.356 721.928 641.403 720.202L642.909 719.37C643.833 721.048 644.832 722.669 645.881 724.184L644.464 725.162ZM633.641 728.822L632.415 727.608C633.819 726.181 635.088 724.764 636.19 723.393L637.534 724.476C636.397 725.891 635.093 727.352 633.647 728.82L633.641 728.822ZM713.381 698.447C712.304 697.623 711.117 696.843 709.843 696.119C709.443 695.895 709.043 695.67 708.642 695.458L709.445 693.934C709.862 694.153 710.275 694.379 710.692 694.617C712.029 695.375 713.282 696.201 714.42 697.073L713.373 698.444L713.381 698.447ZM533.181 761.423C531.216 761.044 529.309 760.593 527.52 760.088L527.985 758.425C529.73 758.913 531.591 759.355 533.508 759.726L533.181 761.423ZM477.364 780.387C475.449 780.236 473.513 780.029 471.607 779.78L471.829 778.069C473.703 778.317 475.612 778.521 477.496 778.671L477.359 780.389L477.364 780.387ZM555.337 750.749L553.938 749.741C555.042 748.193 556.063 746.592 556.959 744.972L558.462 745.811C557.536 747.486 556.483 749.142 555.341 750.741L555.337 750.749ZM640.862 719.649L639.366 718.796C639.437 718.676 639.501 718.553 639.566 718.435C640.393 716.94 641.382 715.407 642.51 713.876L643.896 714.9C642.81 716.373 641.863 717.847 641.075 719.272C641.006 719.397 640.931 719.524 640.864 719.655L640.862 719.649ZM465.889 778.869C464.004 778.518 462.099 778.111 460.227 777.654L460.629 775.975C462.471 776.417 464.344 776.822 466.203 777.17L465.887 778.863L465.889 778.869ZM521.986 758.237C520.998 757.841 520.031 757.419 519.117 756.984C518.291 756.588 517.481 756.161 516.696 755.719L517.547 754.222C518.294 754.646 519.074 755.058 519.862 755.436C520.74 755.858 521.669 756.262 522.621 756.645L521.985 758.25L521.986 758.237ZM703.511 693.162C701.752 692.508 699.939 691.968 698.124 691.567L698.495 689.886C700.387 690.31 702.276 690.868 704.112 691.545L703.511 693.162ZM638.827 714.996C638.368 713.96 637.927 712.886 637.509 711.805C637.455 711.653 637.394 711.498 637.341 711.347C637.122 710.724 636.942 710.088 636.804 709.463L638.487 709.097C638.609 709.659 638.771 710.226 638.964 710.775C639.012 710.91 639.061 711.05 639.114 711.183C639.523 712.236 639.956 713.288 640.399 714.297L638.825 714.99L638.827 714.996ZM647.498 710.531L646.226 709.366C647.512 707.961 648.899 706.578 650.346 705.255L651.506 706.53C650.096 707.814 648.745 709.16 647.496 710.526L647.498 710.531ZM560.986 740.542L559.387 739.895C560.094 738.133 560.682 736.338 561.128 734.548L562.799 734.969C562.33 736.836 561.718 738.708 560.984 740.536L560.986 740.542ZM454.644 776.147C452.795 775.595 450.946 774.991 449.139 774.342L449.717 772.714C451.494 773.349 453.316 773.949 455.135 774.487L454.642 776.142L454.644 776.147ZM692.568 690.725C690.727 690.572 688.836 690.545 686.95 690.636L686.865 688.913C688.825 688.816 690.793 688.847 692.711 689.004L692.573 690.723L692.568 690.725ZM655.859 702.899L654.81 701.529C656.351 700.349 657.95 699.226 659.567 698.19L660.495 699.647C658.919 700.655 657.356 701.754 655.859 702.899ZM511.841 752.418C510.314 751.191 508.879 749.83 507.568 748.376L508.849 747.225C510.098 748.613 511.467 749.909 512.916 751.075L511.841 752.418ZM681.353 691.27C679.534 691.589 677.69 692.017 675.86 692.555L675.372 690.899C677.26 690.347 679.173 689.901 681.052 689.573L681.348 691.272L681.353 691.27ZM665.397 696.806L664.601 695.277C666.333 694.371 668.105 693.545 669.878 692.827L670.529 694.425C668.807 695.126 667.082 695.929 665.399 696.811L665.397 696.806ZM638.375 703.811L636.677 703.526C636.977 701.7 637.6 699.804 638.522 697.904L640.071 698.657C639.217 700.413 638.652 702.15 638.375 703.811ZM443.738 772.26C441.937 771.507 440.163 770.702 438.455 769.872L439.205 768.322C440.885 769.143 442.629 769.934 444.399 770.672L443.732 772.262L443.738 772.26ZM563.812 729.198L562.097 729.027C562.281 727.153 562.321 725.267 562.212 723.421L563.932 723.32C564.046 725.252 564.007 727.232 563.812 729.198ZM503.999 743.708C502.952 742.092 502.002 740.359 501.173 738.558L502.739 737.843C503.529 739.569 504.44 741.227 505.443 742.771L503.999 743.708ZM642.977 693.903L641.585 692.88C642.653 691.427 643.907 689.914 645.32 688.389L646.584 689.564C645.216 691.041 643.999 692.497 642.975 693.897L642.977 693.903ZM433.317 767.162C430.124 765.349 428.419 764.097 428.345 764.047L429.365 762.655C429.365 762.655 431.068 763.902 434.166 765.66L433.315 767.157L433.317 767.162ZM563.098 717.5L561.42 717.883C561.138 716.652 560.781 715.423 560.36 714.229C560.161 713.662 559.945 713.102 559.719 712.551L561.311 711.89C561.552 712.467 561.774 713.063 561.984 713.657C562.426 714.913 562.799 716.206 563.098 717.5ZM650.61 685.562L649.442 684.297C650.776 683.065 652.248 681.778 653.804 680.48L654.906 681.806C653.369 683.085 651.924 684.343 650.61 685.562ZM659.378 678.246L658.33 676.876C659.777 675.768 661.337 674.607 662.967 673.428L663.975 674.825C662.36 675.993 660.814 677.142 659.376 678.241L659.378 678.246ZM500.741 732.578L499.094 733.082C498.519 731.199 498.065 729.285 497.747 727.38L499.447 727.097C499.75 728.925 500.188 730.775 500.743 732.584L500.741 732.578ZM668.663 671.523L667.685 670.103C669.184 669.071 670.743 668.012 672.459 666.866L673.417 668.299C671.71 669.436 670.157 670.493 668.669 671.521L668.663 671.523ZM678.208 665.144L677.27 663.697C678.861 662.658 680.478 661.622 682.11 660.575L683.037 662.026C681.408 663.066 679.799 664.105 678.208 665.144ZM557.161 707.572C556.157 705.971 554.995 704.528 553.693 703.278L554.886 702.039C556.285 703.386 557.543 704.941 558.615 706.663L557.157 707.579L557.161 707.572ZM687.883 658.94L686.96 657.481C688.576 656.458 690.197 655.434 691.824 654.407L692.746 655.866C691.119 656.893 689.498 657.917 687.883 658.94ZM697.604 652.795L696.681 651.336C698.302 650.311 699.922 649.281 701.535 648.253L702.463 649.71C700.85 650.738 699.225 651.77 697.604 652.795ZM499.049 721.59L497.335 721.437C497.503 719.538 498.062 717.589 498.995 715.647L500.544 716.4C499.701 718.152 499.196 719.899 499.049 721.59ZM707.307 646.599L706.37 645.152C707.983 644.105 709.591 643.06 711.178 642.01L712.126 643.453C710.534 644.505 708.928 645.556 707.304 646.607L707.307 646.599ZM549.268 700.002C547.696 699.131 545.976 698.426 544.154 697.914L544.613 696.252C546.567 696.799 548.411 697.55 550.101 698.492L549.266 699.996L549.268 700.002ZM716.914 640.236L715.945 638.806C717.594 637.683 719.182 636.582 720.66 635.545L721.653 636.954C720.166 638.001 718.573 639.104 716.914 640.236ZM726.335 633.579L725.311 632.187C726.908 631.007 728.448 629.841 729.874 628.728L730.938 630.086C729.497 631.211 727.948 632.387 726.335 633.579ZM503.565 711.775L502.24 710.673C503.426 709.234 504.819 707.83 506.378 706.487L507.501 707.799C506.017 709.072 504.696 710.413 503.571 711.773L503.565 711.775ZM538.671 696.977C536.874 696.84 534.991 696.854 533.076 697.024L532.924 695.307C534.933 695.135 536.908 695.114 538.795 695.256L538.671 696.977ZM735.429 626.457L734.321 625.133C735.84 623.854 737.283 622.59 738.613 621.365L739.779 622.638C738.433 623.874 736.967 625.159 735.429 626.457ZM512.006 704.442L511.069 702.995C512.676 701.95 514.387 700.982 516.151 700.115L516.91 701.663C515.205 702.503 513.558 703.436 512.006 704.442ZM527.519 697.897C525.776 698.289 524.011 698.798 522.276 699.408L522.114 699.466L521.524 697.845L521.703 697.782C523.5 697.15 525.333 696.618 527.141 696.215L527.519 697.897ZM743.931 618.598L742.692 617.402C744.069 615.972 745.336 614.549 746.469 613.173L747.798 614.268C746.636 615.686 745.336 617.139 743.925 618.6L743.931 618.598ZM751.259 609.571L749.814 608.63C750.888 606.979 751.792 605.331 752.502 603.738L754.073 604.446C753.323 606.122 752.376 607.848 751.253 609.573L751.259 609.571ZM755.921 598.848L754.236 598.495C754.297 598.203 754.352 597.913 754.4 597.619C754.41 597.558 754.795 595.759 755.071 592.895L756.784 593.061C756.497 596.036 756.11 597.867 756.093 597.943C756.051 598.216 755.987 598.535 755.923 598.853L755.921 598.848ZM757.074 587.236L755.352 587.225C755.356 585.307 755.276 583.4 755.102 581.565L756.819 581.402C756.996 583.299 757.083 585.26 757.077 587.229L757.074 587.236ZM755.955 575.624L754.266 575.973C753.873 574.088 753.368 572.262 752.768 570.538L754.391 569.967C755.021 571.755 755.54 573.659 755.953 575.618L755.955 575.624ZM750.524 565.398C749.633 563.726 748.613 562.15 747.486 560.7L748.843 559.643C750.034 561.165 751.11 562.828 752.045 564.591L750.526 565.403L750.524 565.398Z" fill="#FFDFED"/>
<path d="M1314.25 261.508C1313.95 253.389 1315.49 244.835 1320.6 238.526C1325.7 232.213 1335.02 228.904 1342.32 232.453C1346.89 234.677 1350.05 239.19 1351.6 244.033C1353.15 248.876 1353.26 254.06 1353.03 259.142C1356.68 255.202 1360.08 250.885 1364.85 248.428C1369.62 245.971 1375.25 244.849 1380.43 246.241C1385.61 247.633 1390.17 251.829 1391.15 257.11C1392.42 263.992 1387.77 270.426 1383.39 275.879C1392.11 275.367 1400.63 281.232 1403.73 289.411C1406.84 297.591 1404.07 307.638 1397.21 313.061C1390.35 318.484 1379.95 318.855 1372.72 313.934C1371.27 324.328 1361.83 332.899 1351.35 332.997C1340.86 333.094 1330.95 324.699 1329.31 314.335C1329.2 317.645 1326.86 319.933 1324.39 322.134C1321.92 324.335 1318.84 325.74 1315.72 326.822C1310.61 328.588 1305.01 329.559 1299.81 328.086C1293.06 326.172 1287.75 319.91 1286.98 312.923C1286.21 305.94 1290 298.663 1296.18 295.313C1287.15 294.494 1278.98 286.334 1277.32 277.42C1275.65 268.505 1280.69 258.731 1288.98 255.068C1297.27 251.404 1309.12 254.033 1314.26 261.505L1314.25 261.508Z" fill="#96BDC4"/>
<path d="M416.865 891.146C416.396 891.138 415.763 891.126 415.325 891.118C413.251 890.447 411.353 889.834 409.385 889.203C409.252 888.721 409.041 888.284 409.032 887.855C409.02 887.244 409.18 886.642 409.231 886.033C409.408 883.823 409.527 881.6 409.775 879.409C410.007 877.342 409.87 875.257 410.091 873.205C410.156 872.597 409.918 872.152 409.388 871.681C408.188 871.706 406.939 871.731 405.754 871.757C404.676 872.513 403.942 873.437 403.22 874.437C401.759 876.458 400.853 878.852 399.049 880.639C398.894 880.79 398.836 881.047 398.748 881.257C398.127 882.743 397.301 884.101 396.115 885.408C395.617 885.221 395.018 885.03 394.448 884.783C393.787 884.498 393.187 884.084 392.408 884.17C392.125 884.2 391.778 884.05 391.51 883.899C389.74 882.905 387.81 882.466 385.768 882.003C385.468 882.688 385.17 883.368 384.867 884.06C385.348 885.563 385.949 886.64 386.67 887.289C386.831 887.807 386.845 888.447 387.18 888.828C388.701 890.591 389.699 892.675 391.092 894.53C391.1 895.88 390.025 896.652 389.429 897.686C388.827 898.737 388.643 900.032 387.533 900.872C387.531 901.122 387.528 901.422 387.529 901.631C386.703 903.079 385.915 904.465 385.21 905.704C385.266 906.382 385.309 906.846 385.347 907.298C385.606 907.615 385.86 907.921 386.08 908.192C387.015 908.457 387.918 908.717 388.683 908.932C390.426 908.486 392.069 908.066 393.768 907.629C394.21 907.204 394.7 906.725 394.929 906.505C396.187 906.054 397.121 905.718 398.211 905.326C400.324 907.432 401.645 910.213 403.06 912.938C404.129 913.973 405.477 914.013 406.897 914.113C407.095 913.661 407.305 913.181 407.596 912.517C407.448 912.037 407.247 911.364 407.052 910.721C407.136 909.777 407.19 908.857 407.314 907.946C407.621 905.687 408.238 903.472 407.831 901.083C408.257 900.872 408.576 900.66 408.931 900.545C411.002 899.887 412.949 898.93 415.077 898.421C415.977 898.207 416.677 897.574 417.628 897.421C418.008 897.36 418.296 896.86 418.677 896.506C418.94 896.556 419.249 896.613 419.747 896.71C420.417 896.078 421.178 895.36 422.001 894.581C421.948 893.995 421.898 893.391 421.837 892.678C420.193 892.172 418.604 891.682 416.859 891.148L416.865 891.146Z" fill="#8290CE"/>
<path d="M357.028 943.196C357.155 943.533 357.268 943.825 357.391 944.16C358.412 944.63 359.428 945.098 360.768 945.714C361.531 945.631 362.604 945.511 363.651 945.394C365.094 944.396 366.515 943.794 368.09 943.537C368.639 944.503 368.668 945.578 368.813 946.636C369.224 949.553 369.65 952.468 370.044 955.231C370.461 955.758 370.759 956.131 371.106 956.57C371.502 956.619 371.973 956.619 372.411 956.75C372.863 956.882 373.284 957.133 373.831 957.384C374.093 957.278 374.379 957.164 374.55 957.097C375.63 955.394 376.183 953.695 376.189 951.776C376.19 950.946 376.397 950.102 376.658 949.316C377.27 947.492 376.918 945.508 377.507 943.547C380.118 942.738 383.046 942.494 385.548 941.252C386.415 941.132 387.247 941.014 387.951 940.919C388.238 940.522 388.412 940.281 388.555 940.078C389.338 939.881 390.08 939.689 390.72 939.526C391.481 937.799 391.589 937.094 391.328 935.539C390.473 935.117 389.608 934.681 388.532 934.507C386.987 934.259 385.504 933.454 383.962 933.235C382.705 933.057 381.747 932.376 380.751 932.13C380.155 931.228 380.21 930.418 380.342 929.691C380.798 927.115 381.017 924.531 380.77 921.892C380.735 921.522 380.849 921.14 380.909 920.634C380.587 919.787 380.223 918.827 379.93 918.05C379.905 917.255 379.884 916.655 379.869 916.186C379.676 915.998 379.62 915.901 379.564 915.895C378.63 915.786 377.697 915.687 376.667 915.576C375.762 917.058 375.117 918.833 373.366 918.933C370.938 920.903 369.315 923.073 367.788 925.429C367.568 925.517 367.284 925.627 367.037 925.721C364.238 924.886 362.371 922.932 360.532 920.868C359.737 920.71 358.899 920.541 357.897 920.34C357.27 920.976 356.591 921.665 355.918 922.351C355.968 923.053 356.008 923.667 356.051 924.229C356.555 925.018 357.004 925.763 357.501 926.477C357.943 927.115 358.438 927.721 359.044 928.509C359.124 928.81 359.175 929.377 359.413 929.864C359.929 930.927 360.511 931.96 361.121 932.977C361.314 933.297 361.683 933.519 362.042 933.854C361.923 934.922 361.368 935.885 360.805 936.744C360.183 937.695 359.687 938.76 358.94 939.582C357.967 940.649 357.587 941.942 357.029 943.182L357.028 943.196Z" fill="#84C2CF"/>
<path d="M422.584 965.175C422.86 964.702 423.002 964.221 422.973 963.637C422.95 963.197 423.148 962.755 423.245 962.333C424.897 961.909 426.467 961.504 428.484 960.984C428.48 960.992 428.853 960.735 429.343 960.399C430.621 960.817 431.852 960.257 433.288 960.002C433.553 958.747 435.148 958.429 435.635 957.106C434.1 955.819 431.987 955.673 430.695 954.3C429.932 954.095 429.223 953.99 428.579 953.713C427.932 953.434 427.357 952.99 426.559 952.505C425.761 952.223 424.728 951.86 423.671 951.487C423.733 949.374 423.726 947.386 423.875 945.412C424.023 943.428 424.318 941.465 424.567 939.363C424.227 939.088 423.873 938.798 423.378 938.396C423.274 938.027 423.129 937.508 422.985 936.998C422.088 936.326 421.097 936.181 420.119 936.297C418.626 937.2 417.186 938.07 415.881 938.856C414.828 940.711 413.855 942.428 412.868 944.167C412.608 944.156 412.368 944.201 412.165 944.127C411.869 944.019 411.547 943.88 411.323 943.664C409.792 942.167 407.695 941.324 406.499 939.533L404.674 938.694C403.653 938.62 402.614 938.529 401.68 939.452C401.692 939.996 401.709 940.673 401.726 941.374C402.654 942.434 403.179 943.642 403.351 944.985C403.547 945.132 403.74 945.273 403.987 945.457C404.295 946.514 404.479 947.683 405.361 948.759C405.319 950.499 406.441 952.138 406.776 953.924C406.273 954.872 405.774 955.798 405.284 956.727C404.79 957.665 404.375 958.611 403.643 959.444C402.96 960.219 402.678 961.344 402.235 962.324C401.791 963.303 401.372 964.294 400.902 965.366C401.043 966.153 401.196 966.992 401.334 967.772C402.01 968.366 402.601 968.888 403.285 969.486C404.382 969.222 405.498 968.957 406.748 968.655C407.517 967.415 409.266 966.89 409.913 965.268C410.44 965.039 411.008 964.795 411.636 964.523C411.892 964.108 412.165 963.663 412.445 963.202C412.976 963.031 413.484 962.869 413.939 962.725C414.146 962.891 414.354 962.977 414.375 963.085C414.584 964.309 414.762 965.537 414.95 966.765C415.02 967.221 415.041 967.698 415.189 968.134C415.499 969.027 415.695 969.877 415.688 970.845C415.68 971.714 416.246 972.616 416.541 973.454L419.23 974.692C419.581 974.584 420.089 974.432 420.512 974.305C420.66 974.091 420.821 973.971 420.82 973.848C420.829 972.564 421.444 971.484 421.898 970.358C422.217 969.562 422.416 968.772 422.031 967.915C421.782 967.768 421.533 967.62 421.325 967.501C421.384 966.75 421.436 966.118 421.492 965.417C421.882 965.333 422.234 965.259 422.582 965.179L422.584 965.175Z" fill="#A2B2C1"/>
<path d="M514.608 133.403C510.248 132.001 506.119 129.247 501.672 128.903C495.003 128.903 488.015 143.705 483.568 135.443C481.027 130.279 484.839 123.051 481.98 117.887C479.121 113.412 474.04 111.69 470.546 107.903C468.959 105.838 469.275 102.739 471.499 101.363C475.946 99.2977 481.345 99.6425 485.157 96.5441C489.922 92.4129 488.016 84.152 492.144 80.0207C497.862 74.5135 501.038 87.5936 505.166 91.7248C509.613 95.856 516.282 92.4129 522 93.4457C523.905 94.1337 525.493 96.5441 524.858 98.6097C522.952 104.462 516.6 107.903 516.283 113.755C515.965 118.575 518.189 123.394 519.712 128.027C520.713 131.399 517.698 134.575 514.61 133.401L514.608 133.403Z" fill="#FFDFED"/>
<path d="M509.725 64.9185C510.265 64.112 511.119 63.7943 511.97 64.2799C512.702 64.6981 513.064 65.9573 512.559 66.7128C510.662 69.5549 508.916 72.5124 507.333 75.5733C506.884 76.4397 505.862 76.6541 505.088 76.2119C504.295 75.7577 504.08 74.59 504.499 73.779C506.082 70.7181 507.826 67.7606 509.725 64.9185Z" fill="#FFDFED"/>
<path d="M516.872 81.4832C517.428 81.1758 517.967 80.837 518.487 80.4637C518.734 80.2868 518.977 80.1009 519.214 79.909C519.227 79.897 519.236 79.891 519.247 79.882C519.273 79.8595 519.299 79.837 519.326 79.8145C519.435 79.72 519.543 79.6226 519.651 79.5251C520.115 79.0994 520.557 78.6466 520.974 78.1668C521.178 77.9329 521.375 77.693 521.566 77.4487C521.664 77.3212 521.76 77.1923 521.857 77.0634C521.887 77.0199 521.916 76.9764 521.947 76.9329C522.215 76.5401 522.496 76.2673 522.927 76.1158C523.349 75.9674 523.811 76.0768 524.191 76.2957C524.547 76.4996 524.84 76.9464 524.945 77.3587C525.046 77.756 525.017 78.3827 524.779 78.729C523.118 81.1518 521.018 83.1788 518.528 84.5552C517.709 85.0079 516.788 84.765 516.283 83.9165C515.822 83.1414 516.106 81.906 516.872 81.4832Z" fill="#FFDFED"/>
<path d="M456.476 124.879C457.165 125.567 458.105 125.537 458.794 124.879C458.931 124.749 459.07 124.621 459.21 124.494C459.283 124.433 459.353 124.37 459.426 124.305C459.433 124.298 459.438 124.295 459.445 124.289C459.455 124.281 459.467 124.271 459.477 124.262C459.487 124.251 459.496 124.245 459.502 124.241C459.769 124.028 460.036 123.821 460.312 123.621C460.945 123.17 461.601 122.764 462.282 122.406C462.447 122.32 462.613 122.236 462.777 122.154C462.792 122.146 462.853 122.119 462.902 122.098C462.949 122.077 463.007 122.05 463.019 122.043C463.359 121.899 463.705 121.764 464.055 121.639C464.773 121.385 465.506 121.188 466.25 121.04C467.095 120.87 467.651 119.711 467.394 118.851C467.102 117.869 466.282 117.429 465.377 117.611C462.07 118.272 459 119.966 456.477 122.365C455.83 122.981 455.852 124.259 456.477 124.878L456.476 124.879Z" fill="#FFDFED"/>
<path d="M463.974 137.55C464.813 137.08 465.633 136.572 466.431 136.02C466.83 135.744 467.223 135.459 467.608 135.164C467.791 135.025 467.972 134.882 468.153 134.738C468.253 134.659 468.351 134.575 468.452 134.495C468.462 134.488 468.466 134.485 468.473 134.479C468.473 134.479 468.473 134.478 468.474 134.477C469.217 133.842 469.936 133.179 470.625 132.476C470.951 132.144 471.269 131.803 471.582 131.456C471.702 131.322 471.82 131.187 471.937 131.051C471.958 130.785 472.019 130.529 472.127 130.309C472.569 129.402 473.592 129.286 474.372 129.67C475.356 130.157 475.538 131.622 475.027 132.556C474.727 133.104 474.26 133.574 473.85 134.028C473.087 134.876 472.279 135.681 471.435 136.435C469.636 138.044 467.704 139.46 465.632 140.622C464.816 141.079 463.889 140.827 463.387 139.983C462.924 139.205 463.212 137.979 463.976 137.55H463.974Z" fill="#FFDFED"/>
<path d="M1851.9 1078.42C1820.6 1096.76 1847.95 1146.4 1814.07 1186.2C1769.26 1238.85 1683.73 1196.31 1654.27 1241.21C1635.31 1270.1 1652.36 1315.7 1671.07 1350.3L1920 1350.3L1920 1086.19C1895.28 1073.44 1869.36 1068.18 1851.9 1078.42L1851.9 1078.42Z" fill="#FFD59A"/>
<path d="M1677.28 1249.71C1675.05 1250.91 1674.26 1255.79 1673.67 1258.04C1672.86 1261.15 1672.38 1264.33 1672.2 1267.53C1671.84 1273.93 1672.56 1280.34 1674.1 1286.56C1677.25 1299.23 1683.48 1310.85 1689.95 1322.15C1691.66 1325.15 1686.96 1327.84 1685.25 1324.84C1677.95 1312.09 1670.87 1298.77 1668.03 1284.27C1666.65 1277.21 1666.25 1269.99 1667.22 1262.85C1667.67 1259.51 1668.4 1256.21 1669.51 1253.02C1670.54 1250.09 1671.6 1246.68 1674.53 1245.1C1677.59 1243.43 1680.34 1248.04 1677.27 1249.71L1677.28 1249.71Z" fill="#FFD59A"/>
<path d="M1876.13 1046.29C1884.25 1047.12 1892.06 1049.58 1899.05 1053.76C1902.04 1055.54 1899.3 1060.16 1896.3 1058.37C1882.03 1049.85 1863.44 1049 1848.41 1056.23C1832.87 1063.7 1822.99 1079.06 1820.63 1095.63C1820.15 1099.02 1814.9 1097.58 1815.38 1094.22C1817.39 1080.12 1824.72 1066.58 1836.1 1057.64C1847.28 1048.86 1861.9 1044.84 1876.13 1046.29Z" fill="#FFD59A"/>
<path d="M181.919 788.995C186.473 777.948 191.184 766.523 192.446 754.64C193.809 741.823 190.557 730.122 183.529 722.539C173.928 712.178 156.365 709.086 140.824 715.02C127.906 719.952 116.13 730.384 105.827 746.028L100.609 742.715C111.637 725.97 124.411 714.738 138.574 709.332C146.858 706.17 156.201 705.191 164.879 706.576C174.292 708.078 182.33 712.178 188.126 718.431C196.346 727.298 200.172 740.725 198.627 755.271C197.273 768.011 192.397 779.842 187.681 791.282L181.92 788.993L181.919 788.995Z" fill="#D4772E"/>
<path d="M189.359 800.802C195.267 786.468 201.377 771.648 203.022 756.17C204.808 739.357 200.525 723.985 191.27 714.001C178.615 700.348 155.513 696.257 135.089 704.055C118.216 710.497 102.856 724.093 89.4351 744.468L84.2168 741.155C98.3621 719.681 114.721 705.283 132.839 698.367C143.395 694.338 155.298 693.091 166.353 694.854C178.311 696.762 188.516 701.961 195.867 709.892C206.311 721.162 211.174 738.26 209.204 756.802C207.467 773.139 201.19 788.364 195.121 803.091L189.361 800.803L189.359 800.802Z" fill="#7FA9AD"/>
<path d="M197.562 804.049C204.34 787.609 211.349 770.608 213.238 752.82C215.298 733.442 210.35 715.715 199.667 704.187C185.054 688.42 158.395 683.69 134.837 692.682C115.424 700.092 97.762 715.72 82.3427 739.131L77.1245 735.818C93.2696 711.306 111.931 694.879 132.587 686.994C144.601 682.407 158.148 680.988 170.727 682.995C184.318 685.165 195.914 691.071 204.261 700.078C216.137 712.89 221.659 732.344 219.418 753.45C217.436 772.095 210.26 789.501 203.321 806.336L197.56 804.048L197.562 804.049Z" fill="#DF9944"/>
<path d="M205.35 810.128C213.124 791.267 221.166 771.763 223.333 751.357C225.694 729.126 220.02 708.789 207.762 695.564C190.996 677.477 160.415 672.049 133.389 682.365C111.12 690.866 90.8561 708.794 73.1672 735.652L67.1813 731.851C85.7043 703.732 107.11 684.887 130.809 675.84C144.591 670.579 160.132 668.949 174.566 671.254C190.159 673.741 203.459 680.518 213.038 690.851C226.662 705.549 233 727.866 230.426 752.08C228.154 773.471 219.92 793.438 211.959 812.751L205.351 810.126L205.35 810.128Z" fill="#B6D3D6"/>
<path d="M80.2791 719.177C82.6799 714.889 85.2092 710.456 89.2463 707.588C93.2835 704.72 99.2956 703.899 103.109 707.046C106.144 709.553 107.016 713.913 106.293 717.74C105.57 721.569 103.515 725.009 101.494 728.361C105.993 724.147 113.048 722.918 118.68 725.499C121.356 726.728 123.794 728.946 124.256 731.811C124.646 734.219 123.562 736.677 121.934 738.519C120.307 740.361 118.18 741.696 116.083 743.004C119.667 744.251 122.51 745.499 125.231 748.106C127.953 750.712 129.884 754.243 130.015 757.973C130.147 761.705 128.282 765.572 124.963 767.398C122.24 768.897 118.877 768.915 115.863 768.113C112.849 767.311 110.11 765.765 107.406 764.235C108.621 768.626 105.254 772.905 101.119 774.957C96.9799 777.009 91.6492 776.169 88.1149 773.226C84.5806 770.282 82.8713 765.489 83.3671 760.965C80.3429 764.624 76.1957 767.325 71.3975 767.305C67.0184 767.285 62.8326 764.211 61.5827 760.092C60.3306 755.972 62.1171 751.145 65.7689 748.774C60.6506 750.483 54.7456 750.506 49.7908 748.388C44.836 746.269 41.0489 741.059 41.8361 735.81C42.3509 732.373 44.7516 729.34 47.8615 727.684C50.9715 726.029 54.7117 725.687 58.174 726.394C53.9558 722.627 53.2313 715.906 56.0045 711.014C58.7777 706.122 65.1683 703.522 70.6519 705.056C76.1356 706.589 80.5456 713.582 80.2739 719.172L80.2791 719.177Z" fill="#E6E6E6"/>
<path d="M198.628 779.666C199.506 776.529 201.519 773.673 204.327 771.939C207.131 770.206 210.722 769.669 213.863 770.702C217.003 771.735 219.589 774.389 220.303 777.565C221.145 781.316 219.462 785.124 217.817 788.613C221.512 786.166 225.457 784.944 229.851 785.684C234.242 786.423 238.315 789.548 239.439 793.782C240.56 798.017 238.146 803.064 233.881 804.342C237.102 803.625 240.169 806.356 241.174 809.443C242.179 812.531 241.272 815.957 239.614 818.761C237.952 821.573 235.453 824.008 232.336 825.105C229.219 826.202 225.461 825.783 222.995 823.611C224.794 827.871 222.289 832.634 218.404 835.226C214.521 837.819 208.806 837.337 205.435 834.128C202.623 831.454 201.592 827.455 201.236 823.628C199.07 826.805 194.95 828.141 191.074 827.771C187.198 827.402 183.625 824.814 182.124 821.284C180.622 817.755 181.257 813.439 183.714 810.472C178.708 810.792 173.708 809.487 170.253 805.918C166.8 802.348 165.588 796.589 168.036 792.292C170.607 787.782 177.038 785.89 181.708 788.266C177.208 786.009 174.873 779.899 176.76 775.298C178.647 770.697 184.179 767.911 189.119 768.939C194.063 769.966 198.386 774.709 198.63 779.662L198.628 779.666Z" fill="#E6E6E6"/>
</svg>
