<svg width="1920" height="901" viewBox="0 0 1920 901" fill="none" xmlns="http://www.w3.org/2000/svg">
<path fill-rule="evenodd" clip-rule="evenodd" d="M1920 901H0V900H1920V901Z" fill="black"/>
<rect width="1920" height="900" fill="#F1B475"/>
<path d="M1297 801.46H1273V807.36H1297V801.46Z" fill="#FFDFED"/>
<path d="M1300.33 789.555L1300.13 793.278L1324.13 793.515L1324.32 789.793L1300.33 789.555Z" fill="#FFDFED"/>
<path d="M1306.72 771.887L1282.73 772.06L1282.96 778.268L1306.96 778.095L1306.72 771.887Z" fill="#FFDFED"/>
<path d="M1350.57 772.915L1326.73 774.121L1328.64 781.271L1352.48 780.065L1350.57 772.915Z" fill="#FFDFED"/>
<path d="M1356.46 756.89L1332.47 757.248L1333.03 764.389L1357.02 764.032L1356.46 756.89Z" fill="#FFDFED"/>
<path d="M1354.99 801.799L1331.03 802.39L1332 809.833L1355.96 809.242L1354.99 801.799Z" fill="#FFDFED"/>
<path d="M1370.42 787.411L1346.48 788.189L1347.71 795.337L1371.64 794.559L1370.42 787.411Z" fill="#FFDFED"/>
<path d="M1393.19 772.746L1369.29 773.691L1370.71 780.521L1394.61 779.576L1393.19 772.746Z" fill="#FFDFED"/>
<path d="M1426.18 756L1402.19 756.295L1402.85 766.542L1426.84 766.246L1426.18 756Z" fill="#FFDFED"/>
<path d="M1399.18 795.404L1398.47 805.649L1422.45 805.966L1423.17 795.721L1399.18 795.404Z" fill="#FFDFED"/>
<path d="M1362.86 817.202L1361.44 825.273L1385.36 826.074L1386.79 818.003L1362.86 817.202Z" fill="#FFDFED"/>
<path d="M1318.95 817.654L1318.09 825.413L1342.06 825.918L1342.92 818.159L1318.95 817.654Z" fill="#FFDFED"/>
<path d="M1429.04 779.815L1426.96 785.407L1450.65 787.078L1452.73 781.486L1429.04 779.815Z" fill="#FFDFED"/>
<path d="M1418.14 822.857L1416.06 830.309L1439.88 831.572L1441.96 824.12L1418.14 822.857Z" fill="#FFDFED"/>
<path d="M0 0.00399171V267.638C1.13365 268 2.28825 268.297 3.46082 268.527C11.6239 270.127 20.4236 267.586 26.6776 262.155C33.7649 256.001 35.2468 247.389 36.5102 238.534C39.6627 216.443 57.0166 208.504 72.7669 195.557C90.6618 180.847 102.552 155.292 94.9718 132.238C91.5839 121.937 83.5655 114.383 77.1518 105.967C70.5236 97.2711 66.1028 87.2249 64.8514 76.3056C63.2168 62.0422 69.0586 52.5479 82.5187 48.0492C97.8189 42.9359 113.116 37.8095 128.425 32.7221C143.422 27.7384 158.406 22.0163 173.929 18.9367C181.641 17.4069 189.448 16.372 197.283 15.7363C202.305 15.3292 207.359 15.1126 212.305 14.1616C217.934 13.0798 223.293 11.077 227.289 6.90267C228.985 5.14033 229.823 2.60659 229.863 0H146.2L0 0.00399171Z" fill="#FFD59A"/>
<path d="M76.6938 80.5398C76.589 89.7726 80.1975 98.8079 86.6501 105.416C87.681 106.472 86.0623 108.094 85.0295 107.037C78.1647 100.006 74.2908 90.3684 74.4015 80.5398C74.4185 79.0659 76.7097 79.0619 76.6928 80.5398H76.6938Z" fill="#FFD59A"/>
<path d="M72.721 200.832C81.9249 196.356 89.4673 188.96 94.0777 179.819C94.7423 178.501 96.7611 179.585 96.0965 180.904C91.3284 190.359 83.4727 198.138 73.9475 202.769C72.6332 203.408 71.3958 201.477 72.721 200.833V200.832Z" fill="#FFD59A"/>
<path d="M203.91 147.763C199.067 136.461 201.413 122.896 208.474 113.061C212.141 107.951 217.36 103.616 223.355 101.562C226.878 100.355 230.895 99.927 234.345 101.608C237.489 103.141 239.772 105.926 241.576 108.848C245.78 115.653 248.406 123.499 249.537 131.399C250.105 135.358 250.253 139.391 250.018 143.383C249.925 144.948 249.788 146.523 249.07 147.947C248.608 148.863 247.824 150.025 246.657 149.74C245.309 149.41 244.846 147.586 244.546 146.436C244.007 144.366 243.534 142.273 243.081 140.182C242.141 135.844 241.385 131.457 241.157 127.019C240.77 119.483 241.99 111.926 246.224 105.558C249.716 100.304 255.252 95.9636 261.715 95.4287C268.718 94.8489 275.229 98.5624 279.764 103.669C284.881 109.43 287.283 117.036 288.697 124.472C289.078 126.48 289.392 128.501 289.67 130.526C289.9 132.2 290.183 133.892 290.144 135.586C290.116 136.82 289.959 138.215 289.236 139.255C288.634 140.12 287.521 140.522 286.524 140.091C285.32 139.571 284.557 138.19 284.049 137.058C283.336 135.467 283.032 133.706 282.697 132.007C281.902 127.988 281.415 123.884 281.647 119.78C281.86 116.004 282.728 112.17 284.645 108.88C286.344 105.964 288.785 103.459 291.735 101.805C294.478 100.268 297.707 99.54 300.822 100.171C303.515 100.717 305.898 102.08 307.833 104.019C312.067 108.262 314.091 114.389 315.339 120.114C315.677 121.666 315.962 123.233 316.183 124.806C316.436 126.602 316.671 128.742 315.663 130.357C314.998 131.425 313.524 132.409 312.264 131.776C310.904 131.095 310.574 129.103 310.34 127.771C309.223 121.45 310.902 114.799 314.35 109.452C317.612 104.397 322.746 100.185 328.737 98.986C333.786 97.9745 339.837 98.8951 343.806 102.372C345.67 104.006 346.885 106.102 347.329 108.543C347.444 109.172 348.208 109.528 348.784 109.369C349.445 109.187 349.725 108.545 349.609 107.915C348.497 101.809 343.016 97.9351 337.23 96.7376C334.141 96.0981 330.933 96.0994 327.848 96.7593C324.588 97.4572 321.563 99.0241 318.929 101.046C313.259 105.397 309.306 111.953 308.082 118.997C307.471 122.508 307.434 126.242 308.337 129.71C308.813 131.539 309.777 133.343 311.624 134.066C313.388 134.755 315.338 134.04 316.672 132.812C319.83 129.909 318.668 124.899 317.969 121.209C317.34 117.885 316.466 114.591 315.19 111.453C312.785 105.545 308.75 99.7912 302.262 98.0791C294.812 96.113 287.46 100.42 283.35 106.499C278.38 113.847 278.691 123.369 280.242 131.729C280.884 135.193 281.578 139.412 284.604 141.675C285.913 142.653 287.621 142.898 289.138 142.268C290.622 141.651 291.537 140.321 292.02 138.831C292.507 137.336 292.581 135.681 292.471 134.121C292.323 132.034 291.972 129.942 291.659 127.874C291.006 123.556 290.144 119.251 288.741 115.108C286.145 107.442 281.563 100.394 274.463 96.2203C271.192 94.2976 267.473 93.0933 263.665 93.005C260.046 92.9209 256.462 93.8944 253.31 95.6554C246.96 99.206 242.432 105.677 240.319 112.548C237.571 121.479 238.755 131.156 240.654 140.127C241.146 142.447 241.669 144.768 242.266 147.064C242.702 148.739 243.392 150.529 244.897 151.521C246.376 152.495 248.236 152.262 249.566 151.168C250.831 150.127 251.56 148.44 251.95 146.886C252.43 144.97 252.439 142.907 252.474 140.943C252.515 138.717 252.432 136.489 252.231 134.272C251.829 129.861 250.984 125.487 249.677 121.254C248.377 117.046 246.638 112.952 244.477 109.115C242.573 105.736 240.193 102.447 236.883 100.323C229.743 95.7437 220.642 99.0852 214.421 103.702C208.94 107.769 204.763 113.342 202.128 119.62C199.53 125.806 198.441 132.705 199.276 139.379C199.692 142.696 200.547 145.884 201.864 148.956C202.115 149.543 202.979 149.675 203.481 149.38C204.088 149.026 204.157 148.352 203.905 147.763H203.91Z" fill="#FFD59A"/>
<path d="M1827.32 107.594C1826.66 105.879 1823.82 105.434 1823.37 107.594C1822.26 112.814 1821.71 117.69 1818.03 121.905C1814.34 126.146 1808.91 128.281 1803.34 128.326C1797.98 128.371 1792.8 126.506 1788.76 122.966C1784.87 119.55 1780.91 113.92 1781.69 108.504C1782.51 102.908 1786.87 98.2677 1791.6 95.5174C1796.64 92.587 1804.75 89.9867 1810.58 91.5019C1816.04 92.9221 1819.12 98.7827 1818.8 104.128C1818.46 109.664 1814.86 115.5 1810.15 118.435C1804.49 121.955 1793.43 117.4 1794.09 109.894C1794.33 107.164 1797.32 103.313 1800.23 102.813C1801.27 102.633 1801.5 102.843 1801.7 103.403C1798.73 103.728 1795.78 106.534 1796.73 109.979C1798.14 115.09 1803.59 117.525 1808.35 114.935C1812.82 112.494 1815 106.669 1813.58 101.788C1812.21 97.0825 1807 94.0472 1802.2 94.8823C1798.19 95.5774 1794.11 98.8678 1791.58 101.943C1785.51 109.334 1791.43 118.295 1798.86 121.76C1807.12 125.611 1814.16 121.605 1818.85 114.435C1823.21 107.764 1823.95 98.8728 1818.62 92.502C1812.6 85.3112 1801.97 86.9064 1794.08 89.8317C1786.39 92.682 1779.06 98.7177 1777.28 107.074C1775.51 115.39 1781.37 123.781 1787.7 128.611C1795.63 134.667 1806.27 135.787 1815.23 131.307C1823.05 127.396 1830.78 116.605 1827.32 107.594H1827.32Z" fill="#FFCA6C"/>
<path d="M1814.99 46.3766C1814.95 45.9866 1814.34 45.8166 1814.24 46.2766C1813.08 50.6521 1811.93 55.0477 1810.84 59.4382C1809.94 63.0136 1808.15 67.9492 1809.41 71.5446C1809.85 72.7797 1811.82 73.3548 1812.49 71.9446C1814.17 68.3892 1813.84 63.4336 1814.36 59.5382C1814.94 55.1827 1815.51 50.7572 1814.99 46.3716V46.3766Z" fill="#FFCA6C"/>
<path d="M1798.95 149.714C1798.46 148.534 1797.17 148.069 1796.14 148.974C1794.5 150.424 1794.69 151.709 1794.52 153.809C1794.34 156.074 1794.15 158.31 1794.14 160.59C1794.13 164.936 1794.35 169.601 1795.89 173.707C1796.06 174.162 1796.69 174.082 1796.73 173.592C1797.09 169.471 1796.85 165.331 1797.33 161.21C1797.58 159.12 1797.92 157.005 1798.43 154.959C1798.98 152.759 1799.85 151.834 1798.96 149.719L1798.95 149.714Z" fill="#FFCA6C"/>
<path d="M1773.76 136.007C1773.76 134.832 1772.96 133.882 1771.87 133.532C1770.22 132.992 1768.89 133.962 1767.43 134.687C1765.17 135.817 1762.9 136.992 1760.75 138.317C1757.32 140.433 1753.36 142.868 1750.93 146.153C1750.8 146.338 1751.02 146.553 1751.21 146.513C1754.69 145.728 1757.96 143.808 1761.23 142.438C1764.24 141.183 1767.22 139.918 1770.27 138.782C1771.86 139.317 1773.76 138.342 1773.76 136.412C1773.76 136.282 1773.76 136.147 1773.76 136.017V136.007Z" fill="#FFCA6C"/>
<path d="M1765.12 102.728C1762.53 99.9979 1756.5 101.743 1753.13 102.088C1749.46 102.463 1744.24 102.208 1741.21 104.538C1740.85 104.818 1740.97 105.344 1741.44 105.394C1745.74 105.834 1750.09 105.964 1754.41 106.149C1757.59 106.284 1762.84 107.489 1765.12 104.803C1765.64 104.188 1765.7 103.343 1765.12 102.733V102.728Z" fill="#FFCA6C"/>
<path d="M1783.16 74.1149C1780.6 71.7496 1778.31 69.1843 1775.95 66.624C1774.28 64.8088 1772.51 62.1235 1769.84 61.9335C1769.76 61.9284 1769.67 62.0085 1769.68 62.0885C1769.94 64.8138 1771.73 67.7641 1772.91 70.1994C1774.39 73.2648 1776.32 76.1251 1778.71 78.5604C1781.55 81.4607 1786.13 76.8652 1783.16 74.1149Z" fill="#FFCA6C"/>
<path d="M1851.14 71.9896C1851.04 71.9096 1850.91 71.9546 1850.86 72.0546C1850.44 72.8497 1848.66 73.1898 1847.92 73.5348C1846.59 74.1549 1845.33 74.9 1844.05 75.6251C1841.33 77.1552 1838.22 78.4054 1835.82 80.3956C1834.91 81.1407 1834.43 82.3808 1834.9 83.511C1834.99 83.726 1835.1 83.931 1835.23 84.116C1835.94 85.0962 1837.25 85.4162 1838.36 85.0262C1840.75 84.1811 1854.88 75.075 1851.14 71.9896Z" fill="#FFCA6C"/>
<path d="M1865.96 116.02C1864.26 113.319 1860.36 113.534 1857.58 113.014C1853.71 112.289 1850.13 110.299 1846.14 110.309C1842.28 110.319 1842.48 115.75 1846.14 116.165C1849.78 116.575 1853.23 117.845 1856.93 117.815C1859.67 117.79 1863.47 117.87 1865.86 116.395C1865.99 116.32 1866.04 116.145 1865.96 116.02H1865.96Z" fill="#FFCA6C"/>
<path d="M1842.22 154.424C1840.48 153.784 1839.03 150.544 1837.99 149.114C1836.77 147.438 1835.48 145.808 1834.22 144.158C1832.15 141.443 1829.89 138.007 1826.49 136.997C1824.97 136.542 1823.58 138.037 1823.97 139.513C1825.12 143.933 1830.54 147.158 1833.91 149.894C1836.06 151.644 1839.22 155.404 1842.22 154.834C1842.44 154.789 1842.4 154.489 1842.22 154.424Z" fill="#FFCA6C"/>
<path d="M701.392 743.829L700.73 742.235C702.437 741.526 704.116 740.665 705.723 739.689L706.619 741.163C704.936 742.191 703.181 743.086 701.394 743.835L701.392 743.829ZM695.809 745.644C693.881 746.102 691.924 746.387 689.989 746.502L689.886 744.779C691.724 744.674 693.578 744.4 695.408 743.97L695.805 745.651L695.809 745.644ZM711.384 737.74L710.276 736.416C711.72 735.208 713.075 733.893 714.297 732.504L715.588 733.651C714.307 735.104 712.891 736.479 711.379 737.742L711.384 737.74ZM684.234 746.309L684.087 746.304C683.837 746.272 683.42 746.249 682.884 746.211C681.843 746.149 680.266 746.048 678.368 745.803L678.584 744.094C680.436 744.331 681.915 744.422 682.99 744.491C683.523 744.524 683.929 744.551 684.223 744.58L684.354 744.597L684.208 745.449L684.232 746.304L684.234 746.309ZM719.115 728.943L717.654 728.027C718.669 726.408 719.515 724.737 720.173 723.049L721.78 723.681C721.08 725.465 720.187 727.235 719.115 728.943ZM672.619 744.752C670.713 744.288 668.829 743.71 667.027 743.04L667.628 741.423C669.366 742.071 671.18 742.63 673.023 743.078L672.619 744.752ZM661.688 740.653C659.96 739.748 658.279 738.727 656.691 737.609L657.678 736.197C659.206 737.266 660.83 738.251 662.489 739.122L661.694 740.651L661.688 740.653ZM723.335 717.966L721.633 717.708C721.913 715.838 721.948 713.992 721.737 712.213L723.446 712.009C723.678 713.937 723.641 715.942 723.335 717.966ZM586.553 758.855C586.043 759.035 585.483 759.213 584.885 759.392L584.397 757.736C584.967 757.567 585.499 757.399 585.98 757.229C587.021 756.863 588.267 756.361 589.681 755.75L590.369 757.329C588.917 757.96 587.639 758.473 586.553 758.855ZM579.225 760.754C577.438 761.112 575.516 761.443 573.516 761.731L573.267 760.022C575.237 759.738 577.129 759.412 578.886 759.059L579.223 760.749L579.225 760.754ZM595.613 754.871L594.848 753.325C596.488 752.515 598.196 751.63 599.924 750.694L600.742 752.215C598.992 753.158 597.269 754.055 595.613 754.871ZM652.117 733.964C650.694 732.675 649.318 731.268 648.029 729.787L649.329 728.655C650.568 730.084 651.895 731.439 653.272 732.687L652.117 733.964ZM605.781 749.388L604.916 747.896C606.572 746.935 608.224 745.944 609.819 744.954L610.73 746.417C609.12 747.418 607.454 748.421 605.781 749.388ZM567.774 762.435C565.88 762.629 563.942 762.789 562.014 762.906L561.905 761.186C563.809 761.071 565.723 760.914 567.598 760.72L567.774 762.435ZM720.292 706.93C719.569 705.287 718.596 703.72 717.392 702.266L718.715 701.164C720.019 702.74 721.085 704.445 721.872 706.235L720.298 706.928L720.292 706.93ZM615.589 743.294L614.631 741.86C616.252 740.78 617.834 739.681 619.328 738.6L620.336 739.997C618.821 741.091 617.222 742.196 615.582 743.291L615.589 743.294ZM556.242 763.149C554.3 763.189 552.351 763.195 550.46 763.148L550.494 761.422C552.364 761.463 554.283 761.462 556.204 761.416L556.245 763.141L556.242 763.149ZM521.265 774.952C520.011 775.394 518.725 775.815 517.429 776.208L516.929 774.557C518.764 773.999 520.575 773.386 522.315 772.736L522.921 774.35C522.376 774.555 521.824 774.755 521.265 774.952ZM528.276 772.137L527.566 770.566C529.307 769.776 531.014 768.923 532.645 768.034L533.467 769.547C531.799 770.456 530.053 771.323 528.274 772.132L528.276 772.137ZM511.84 777.722C510.314 778.089 508.739 778.423 507.166 778.725C506.835 778.785 506.505 778.85 506.174 778.91L505.865 777.21C506.191 777.152 506.514 777.089 506.84 777.031C508.386 776.739 509.934 776.402 511.437 776.043L511.84 777.722ZM624.967 736.514L623.898 735.157C625.442 733.933 626.917 732.707 628.276 731.51L629.412 732.806C628.029 734.024 626.53 735.27 624.959 736.51L624.967 736.514ZM538.458 766.586L537.521 765.139C538.776 764.325 540.004 763.471 541.184 762.589C540.415 762.513 539.661 762.425 538.916 762.328L539.13 760.614C540.953 760.842 542.862 761.027 544.803 761.163L544.685 762.881C544.064 762.835 543.444 762.789 542.835 762.738L543.206 763.219C541.703 764.385 540.107 765.514 538.469 766.582L538.458 766.586ZM500.46 779.8C498.554 780.049 496.623 780.25 494.706 780.395L494.573 778.677C496.459 778.53 498.364 778.332 500.235 778.089L500.46 779.8ZM488.929 780.696C487.002 780.744 485.057 780.742 483.145 780.69L483.187 778.968C485.072 779.016 486.985 779.017 488.882 778.973L488.929 780.696ZM547.627 759.463L546.458 758.198C547.851 756.901 549.185 755.543 550.415 754.158L551.706 755.304C550.441 756.733 549.072 758.135 547.635 759.467L547.627 759.463ZM644.463 725.162C643.385 723.601 642.355 721.928 641.402 720.202L642.908 719.37C643.832 721.048 644.831 722.67 645.88 724.185L644.463 725.162ZM633.64 728.822L632.414 727.608C633.818 726.181 635.087 724.764 636.189 723.393L637.534 724.476C636.396 725.891 635.092 727.352 633.646 728.82L633.64 728.822ZM713.38 698.447C712.303 697.623 711.117 696.843 709.843 696.119C709.443 695.895 709.043 695.67 708.641 695.458L709.444 693.934C709.861 694.153 710.274 694.379 710.691 694.617C712.028 695.375 713.281 696.201 714.419 697.073L713.373 698.444L713.38 698.447ZM533.18 761.423C531.216 761.044 529.308 760.593 527.52 760.089L527.985 758.425C529.73 758.913 531.59 759.355 533.507 759.726L533.18 761.423ZM477.363 780.388C475.448 780.236 473.513 780.029 471.607 779.78L471.829 778.069C473.703 778.317 475.612 778.521 477.495 778.671L477.358 780.39L477.363 780.388ZM555.337 750.749L553.938 749.742C555.041 748.193 556.063 746.592 556.958 744.972L558.461 745.811C557.535 747.486 556.482 749.142 555.34 750.741L555.337 750.749ZM640.861 719.649L639.365 718.796C639.436 718.676 639.5 718.553 639.565 718.435C640.392 716.94 641.381 715.407 642.509 713.876L643.895 714.9C642.809 716.373 641.862 717.847 641.074 719.272C641.005 719.397 640.93 719.524 640.863 719.655L640.861 719.649ZM465.888 778.869C464.003 778.518 462.098 778.111 460.226 777.654L460.629 775.975C462.47 776.417 464.343 776.822 466.202 777.17L465.886 778.863L465.888 778.869ZM521.986 758.237C520.997 757.841 520.03 757.419 519.116 756.984C518.291 756.588 517.48 756.161 516.695 755.719L517.546 754.222C518.293 754.646 519.073 755.058 519.861 755.436C520.739 755.858 521.668 756.262 522.621 756.645L521.984 758.25L521.986 758.237ZM703.51 693.162C701.751 692.508 699.938 691.968 698.123 691.567L698.494 689.886C700.386 690.31 702.275 690.868 704.111 691.545L703.51 693.162ZM638.826 714.996C638.367 713.96 637.926 712.886 637.508 711.805C637.455 711.653 637.394 711.498 637.34 711.347C637.121 710.724 636.941 710.088 636.803 709.463L638.486 709.097C638.608 709.659 638.77 710.226 638.964 710.775C639.011 710.91 639.06 711.05 639.113 711.183C639.522 712.236 639.955 713.288 640.399 714.297L638.824 714.99L638.826 714.996ZM647.497 710.531L646.225 709.366C647.511 707.961 648.899 706.578 650.346 705.256L651.505 706.53C650.095 707.814 648.744 709.16 647.495 710.526L647.497 710.531ZM560.985 740.542L559.386 739.895C560.093 738.133 560.682 736.338 561.128 734.549L562.798 734.969C562.329 736.836 561.718 738.708 560.983 740.536L560.985 740.542ZM454.643 776.147C452.794 775.595 450.946 774.991 449.138 774.342L449.716 772.714C451.494 773.349 453.316 773.949 455.134 774.487L454.641 776.142L454.643 776.147ZM692.567 690.725C690.727 690.572 688.836 690.545 686.949 690.636L686.865 688.913C688.825 688.816 690.793 688.848 692.71 689.004L692.573 690.723L692.567 690.725ZM655.858 702.899L654.809 701.529C656.351 700.349 657.949 699.226 659.567 698.19L660.495 699.647C658.918 700.655 657.355 701.754 655.858 702.899ZM511.84 752.418C510.313 751.191 508.878 749.83 507.567 748.376L508.848 747.226C510.098 748.613 511.466 749.909 512.915 751.075L511.84 752.418ZM681.352 691.27C679.533 691.589 677.69 692.017 675.859 692.555L675.371 690.899C677.259 690.347 679.172 689.901 681.051 689.573L681.347 691.272L681.352 691.27ZM665.396 696.806L664.6 695.277C666.332 694.371 668.105 693.545 669.878 692.827L670.528 694.425C668.806 695.126 667.082 695.929 665.398 696.811L665.396 696.806ZM638.374 703.811L636.676 703.526C636.977 701.7 637.599 699.804 638.522 697.904L640.07 698.657C639.216 700.413 638.651 702.15 638.374 703.811ZM443.737 772.26C441.937 771.507 440.162 770.702 438.454 769.872L439.205 768.322C440.884 769.143 442.628 769.934 444.398 770.672L443.731 772.262L443.737 772.26ZM563.812 729.198L562.097 729.027C562.28 727.153 562.321 725.267 562.212 723.421L563.931 723.32C564.046 725.252 564.007 727.233 563.812 729.198ZM503.998 743.708C502.951 742.092 502.001 740.359 501.172 738.558L502.739 737.843C503.529 739.569 504.44 741.227 505.443 742.771L503.998 743.708ZM642.977 693.903L641.585 692.88C642.652 691.427 643.906 689.914 645.32 688.389L646.583 689.564C645.215 691.041 643.998 692.497 642.975 693.897L642.977 693.903ZM433.316 767.162C430.124 765.349 428.418 764.097 428.344 764.047L429.364 762.655C429.364 762.655 431.067 763.902 434.165 765.66L433.314 767.157L433.316 767.162ZM563.097 717.5L561.42 717.883C561.137 716.653 560.78 715.423 560.36 714.229C560.16 713.663 559.944 713.102 559.719 712.551L561.31 711.89C561.551 712.467 561.774 713.063 561.983 713.657C562.425 714.913 562.798 716.206 563.097 717.5ZM650.61 685.562L649.441 684.297C650.775 683.065 652.247 681.778 653.803 680.48L654.906 681.806C653.368 683.085 651.923 684.343 650.61 685.562ZM659.378 678.246L658.329 676.876C659.776 675.768 661.337 674.607 662.966 673.428L663.974 674.825C662.359 675.993 660.813 677.142 659.376 678.241L659.378 678.246ZM500.74 732.578L499.093 733.082C498.518 731.199 498.065 729.285 497.746 727.38L499.446 727.097C499.75 728.925 500.187 730.775 500.742 732.584L500.74 732.578ZM668.663 671.524L667.684 670.103C669.183 669.071 670.742 668.012 672.459 666.866L673.416 668.299C671.709 669.436 670.156 670.494 668.668 671.522L668.663 671.524ZM678.207 665.144L677.27 663.697C678.86 662.658 680.478 661.622 682.11 660.575L683.036 662.026C681.407 663.066 679.798 664.105 678.207 665.144ZM557.16 707.572C556.156 705.971 554.994 704.528 553.692 703.278L554.885 702.039C556.284 703.386 557.543 704.941 558.614 706.663L557.157 707.579L557.16 707.572ZM687.882 658.94L686.96 657.481C688.575 656.459 690.196 655.434 691.823 654.408L692.745 655.866C691.119 656.893 689.498 657.917 687.882 658.94ZM697.603 652.795L696.681 651.336C698.302 650.311 699.921 649.281 701.534 648.253L702.463 649.71C700.849 650.738 699.224 651.77 697.603 652.795ZM499.049 721.59L497.334 721.437C497.502 719.538 498.061 717.589 498.995 715.647L500.543 716.4C499.701 718.152 499.196 719.899 499.049 721.59ZM707.307 646.599L706.369 645.152C707.982 644.105 709.59 643.06 711.177 642.01L712.125 643.453C710.533 644.505 708.927 645.556 707.303 646.607L707.307 646.599ZM549.267 700.002C547.696 699.131 545.975 698.426 544.153 697.914L544.612 696.252C546.567 696.8 548.41 697.55 550.101 698.492L549.265 699.997L549.267 700.002ZM716.913 640.236L715.944 638.806C717.594 637.683 719.181 636.582 720.66 635.545L721.653 636.954C720.165 638.001 718.572 639.104 716.913 640.236ZM726.334 633.579L725.31 632.187C726.908 631.007 728.447 629.841 729.874 628.728L730.937 630.086C729.496 631.211 727.947 632.387 726.334 633.579ZM503.564 711.775L502.239 710.673C503.425 709.234 504.818 707.83 506.377 706.487L507.5 707.799C506.016 709.072 504.695 710.413 503.57 711.773L503.564 711.775ZM538.67 696.977C536.873 696.84 534.991 696.854 533.075 697.024L532.923 695.307C534.933 695.135 536.907 695.114 538.794 695.256L538.67 696.977ZM735.429 626.457L734.321 625.133C735.84 623.854 737.282 622.59 738.613 621.365L739.778 622.638C738.433 623.874 736.966 625.159 735.429 626.457ZM512.005 704.442L511.068 702.995C512.676 701.95 514.386 700.982 516.151 700.115L516.91 701.663C515.204 702.503 513.557 703.436 512.005 704.442ZM527.518 697.897C525.776 698.29 524.01 698.798 522.275 699.409L522.113 699.466L521.523 697.845L521.703 697.782C523.499 697.15 525.332 696.618 527.14 696.215L527.518 697.897ZM743.93 618.598L742.691 617.402C744.068 615.972 745.335 614.549 746.468 613.173L747.797 614.268C746.635 615.686 745.335 617.139 743.924 618.6L743.93 618.598ZM751.258 609.571L749.814 608.63C750.887 606.979 751.791 605.331 752.502 603.738L754.072 604.446C753.322 606.122 752.376 607.848 751.253 609.573L751.258 609.571ZM755.92 598.848L754.236 598.495C754.296 598.203 754.351 597.913 754.399 597.619C754.409 597.558 754.795 595.759 755.07 592.895L756.783 593.061C756.497 596.036 756.11 597.867 756.092 597.943C756.05 598.216 755.986 598.535 755.922 598.853L755.92 598.848ZM757.073 587.236L755.351 587.225C755.356 585.307 755.276 583.401 755.101 581.565L756.818 581.402C756.995 583.299 757.082 585.26 757.076 587.229L757.073 587.236ZM755.954 575.624L754.265 575.973C753.872 574.088 753.367 572.262 752.767 570.538L754.39 569.967C755.02 571.755 755.539 573.659 755.952 575.618L755.954 575.624ZM750.523 565.398C749.632 563.726 748.612 562.15 747.485 560.7L748.843 559.643C750.033 561.165 751.109 562.828 752.045 564.591L750.525 565.403L750.523 565.398Z" fill="#FFDFED"/>
<path d="M901.329 526.272C870.484 544.385 817.185 598.365 850.757 669.381C861.696 694.667 913.596 747.392 1033.68 756" stroke="white" stroke-width="3"/>
<path d="M1327.97 166.885C1357.92 202.931 1432.02 253.396 1488.83 166.885" stroke="white" stroke-width="3"/>
<path d="M1265.56 689.825C1292.82 665.436 1366.06 631.29 1440.95 689.825" stroke="white" stroke-width="3"/>
<path d="M1637.86 76.5C1665.83 84.0321 1727.38 124.382 1749.76 225.527" stroke="white" stroke-width="3"/>
<path d="M416.865 741.146C416.397 741.138 415.764 741.126 415.325 741.118C413.251 740.447 411.354 739.834 409.386 739.203C409.253 738.721 409.042 738.284 409.033 737.855C409.02 737.244 409.181 736.642 409.232 736.033C409.409 733.823 409.528 731.6 409.776 729.409C410.008 727.342 409.87 725.257 410.092 723.205C410.156 722.597 409.919 722.152 409.388 721.681C408.189 721.706 406.94 721.731 405.755 721.757C404.677 722.513 403.943 723.437 403.22 724.437C401.76 726.458 400.854 728.852 399.049 730.639C398.895 730.79 398.836 731.047 398.749 731.257C398.128 732.743 397.302 734.101 396.115 735.408C395.617 735.221 395.018 735.03 394.449 734.783C393.788 734.498 393.188 734.084 392.409 734.17C392.125 734.2 391.778 734.05 391.511 733.899C389.741 732.905 387.811 732.466 385.769 732.003C385.469 732.688 385.171 733.368 384.868 734.06C385.349 735.563 385.95 736.64 386.67 737.289C386.832 737.807 386.846 738.447 387.18 738.828C388.702 740.591 389.7 742.675 391.093 744.53C391.1 745.88 390.026 746.652 389.43 747.686C388.827 748.737 388.643 750.032 387.533 750.872C387.532 751.122 387.528 751.422 387.53 751.631C386.704 753.079 385.915 754.465 385.21 755.704C385.267 756.382 385.31 756.846 385.347 757.298C385.606 757.615 385.86 757.921 386.08 758.192C387.015 758.457 387.918 758.717 388.684 758.932C390.426 758.486 392.069 758.066 393.769 757.629C394.211 757.204 394.7 756.725 394.929 756.505C396.188 756.054 397.121 755.718 398.211 755.326C400.324 757.432 401.645 760.213 403.06 762.938C404.129 763.973 405.478 764.013 406.898 764.113C407.096 763.661 407.306 763.181 407.597 762.517C407.448 762.037 407.247 761.364 407.052 760.721C407.137 759.777 407.191 758.857 407.315 757.946C407.622 755.687 408.239 753.472 407.831 751.083C408.257 750.872 408.576 750.66 408.931 750.545C411.003 749.887 412.949 748.93 415.078 748.421C415.978 748.207 416.677 747.574 417.628 747.421C418.009 747.36 418.297 746.86 418.678 746.506C418.941 746.556 419.25 746.613 419.748 746.71C420.417 746.078 421.179 745.36 422.001 744.581C421.949 743.995 421.899 743.391 421.838 742.678C420.193 742.172 418.605 741.682 416.859 741.148L416.865 741.146Z" fill="#8290CE"/>
<path d="M357.028 793.195C357.156 793.532 357.268 793.825 357.391 794.16C358.412 794.63 359.429 795.098 360.768 795.714C361.531 795.631 362.604 795.511 363.651 795.393C365.094 794.396 366.516 793.794 368.09 793.537C368.639 794.502 368.669 795.578 368.814 796.636C369.224 799.553 369.65 802.468 370.044 805.231C370.461 805.758 370.759 806.131 371.107 806.569C371.502 806.619 371.973 806.619 372.411 806.75C372.864 806.882 373.284 807.132 373.831 807.384C374.093 807.278 374.379 807.164 374.551 807.097C375.63 805.394 376.183 803.694 376.189 801.776C376.19 800.946 376.398 800.102 376.658 799.316C377.271 797.492 376.918 795.508 377.507 793.547C380.119 792.738 383.047 792.494 385.548 791.252C386.415 791.132 387.247 791.014 387.952 790.918C388.238 790.522 388.412 790.281 388.555 790.078C389.338 789.881 390.08 789.689 390.72 789.526C391.482 787.799 391.589 787.093 391.328 785.538C390.473 785.117 389.609 784.681 388.532 784.507C386.987 784.258 385.505 783.454 383.962 783.234C382.705 783.057 381.747 782.376 380.751 782.13C380.155 781.228 380.21 780.418 380.342 779.69C380.798 777.115 381.018 774.531 380.77 771.891C380.736 771.522 380.849 771.14 380.909 770.634C380.588 769.787 380.223 768.827 379.931 768.05C379.906 767.255 379.884 766.655 379.869 766.186C379.676 765.998 379.62 765.901 379.565 765.894C378.631 765.786 377.698 765.687 376.667 765.576C375.763 767.057 375.118 768.833 373.366 768.933C370.938 770.903 369.316 773.073 367.788 775.429C367.568 775.516 367.285 775.627 367.037 775.721C364.238 774.886 362.371 772.931 360.532 770.868C359.738 770.71 358.899 770.541 357.898 770.34C357.27 770.976 356.591 771.664 355.918 772.35C355.968 773.053 356.009 773.667 356.052 774.229C356.555 775.018 357.004 775.763 357.501 776.477C357.943 777.115 358.438 777.721 359.045 778.509C359.124 778.81 359.175 779.376 359.413 779.864C359.929 780.927 360.512 781.96 361.121 782.977C361.315 783.297 361.684 783.519 362.042 783.854C361.923 784.922 361.369 785.885 360.806 786.744C360.183 787.695 359.688 788.76 358.94 789.582C357.967 790.649 357.587 791.942 357.029 793.182L357.028 793.195Z" fill="#84C2CF"/>
<path d="M422.585 815.175C422.86 814.702 423.002 814.221 422.974 813.637C422.951 813.197 423.149 812.755 423.246 812.333C424.897 811.909 426.467 811.504 428.484 810.985C428.481 810.992 428.854 810.735 429.344 810.399C430.622 810.817 431.853 810.257 433.288 810.002C433.553 808.747 435.149 808.429 435.635 807.106C434.1 805.819 431.987 805.673 430.696 804.3C429.932 804.095 429.223 803.99 428.58 803.713C427.932 803.434 427.357 802.99 426.559 802.505C425.761 802.223 424.728 801.86 423.671 801.487C423.733 799.374 423.727 797.386 423.875 795.412C424.023 793.428 424.319 791.465 424.568 789.363C424.227 789.088 423.874 788.798 423.378 788.396C423.275 788.028 423.13 787.508 422.985 786.998C422.088 786.326 421.097 786.181 420.12 786.297C418.626 787.2 417.186 788.07 415.881 788.856C414.828 790.711 413.856 792.428 412.869 794.167C412.609 794.156 412.368 794.201 412.166 794.127C411.87 794.019 411.548 793.88 411.324 793.664C409.793 792.167 407.695 791.324 406.499 789.533L404.675 788.694C403.653 788.62 402.614 788.529 401.68 789.452C401.692 789.996 401.709 790.673 401.726 791.374C402.655 792.434 403.18 793.642 403.351 794.985C403.547 795.132 403.74 795.273 403.988 795.457C404.295 796.514 404.479 797.683 405.361 798.759C405.32 800.499 406.441 802.138 406.777 803.924C406.273 804.872 405.775 805.798 405.284 806.728C404.79 807.665 404.376 808.611 403.643 809.444C402.961 810.219 402.679 811.344 402.235 812.324C401.791 813.304 401.372 814.294 400.903 815.366C401.044 816.153 401.196 816.992 401.335 817.772C402.011 818.366 402.601 818.888 403.286 819.486C404.382 819.222 405.498 818.957 406.748 818.655C407.517 817.415 409.267 816.89 409.913 815.268C410.44 815.039 411.008 814.795 411.637 814.523C411.892 814.108 412.166 813.663 412.446 813.202C412.977 813.031 413.484 812.869 413.94 812.725C414.146 812.891 414.354 812.977 414.375 813.085C414.584 814.309 414.762 815.537 414.95 816.765C415.02 817.222 415.042 817.698 415.189 818.134C415.499 819.027 415.696 819.877 415.689 820.845C415.681 821.714 416.247 822.616 416.541 823.454L419.231 824.692C419.582 824.584 420.09 824.432 420.513 824.305C420.661 824.091 420.821 823.971 420.821 823.848C420.829 822.564 421.444 821.484 421.898 820.358C422.217 819.562 422.416 818.772 422.032 817.915C421.782 817.768 421.533 817.62 421.326 817.501C421.385 816.75 421.436 816.118 421.493 815.418C421.883 815.333 422.234 815.259 422.583 815.179L422.585 815.175Z" fill="#A2B2C1"/>
<path d="M934.253 141.508C933.954 133.389 935.486 124.835 940.597 118.526C945.705 112.213 955.022 108.904 962.322 112.453C966.891 114.677 970.049 119.19 971.598 124.033C973.147 128.876 973.258 134.06 973.029 139.142C976.675 135.202 980.08 130.885 984.851 128.428C989.622 125.971 995.248 124.849 1000.43 126.241C1005.61 127.633 1010.17 131.829 1011.15 137.11C1012.42 143.992 1007.77 150.426 1003.39 155.879C1012.11 155.367 1020.63 161.232 1023.73 169.411C1026.84 177.591 1024.07 187.638 1017.21 193.061C1010.35 198.484 999.945 198.855 992.716 193.934C991.272 204.328 981.834 212.899 971.349 212.997C960.864 213.094 950.951 204.699 949.311 194.335C949.2 197.645 946.863 199.933 944.392 202.134C941.92 204.335 938.843 205.74 935.718 206.822C930.61 208.588 925.011 209.559 919.812 208.086C913.058 206.172 907.754 199.91 906.98 192.923C906.206 185.94 910.004 178.663 916.176 175.313C907.152 174.494 898.98 166.334 897.316 157.42C895.653 148.505 900.694 138.731 908.98 135.068C917.27 131.404 929.122 134.033 934.257 141.505L934.253 141.508Z" fill="#96BDC4"/>
<path d="M644.608 183.403C640.247 182.001 636.119 179.247 631.672 178.903C625.003 178.903 618.014 193.705 613.567 185.443C611.027 180.279 614.839 173.051 611.98 167.887C609.121 163.412 604.039 161.69 600.546 157.903C598.958 155.838 599.275 152.739 601.499 151.363C605.945 149.298 611.345 149.642 615.157 146.544C619.921 142.413 618.015 134.152 622.144 130.021C627.862 124.513 631.037 137.594 635.166 141.725C639.612 145.856 646.281 142.413 651.999 143.446C653.905 144.134 655.493 146.544 654.858 148.61C652.952 154.462 646.6 157.903 646.283 163.755C645.965 168.575 648.189 173.394 649.711 178.027C650.713 181.398 647.698 184.575 644.609 183.401L644.608 183.403Z" fill="#FFDFED"/>
<path d="M639.726 114.918C640.265 114.112 641.12 113.794 641.97 114.28C642.702 114.698 643.064 115.957 642.56 116.713C640.662 119.555 638.917 122.512 637.333 125.573C636.885 126.44 635.863 126.654 635.088 126.212C634.296 125.758 634.08 124.59 634.499 123.779C636.083 120.718 637.827 117.761 639.726 114.918Z" fill="#FFDFED"/>
<path d="M646.872 131.483C647.428 131.176 647.967 130.837 648.487 130.464C648.734 130.287 648.977 130.101 649.214 129.909C649.227 129.897 649.236 129.891 649.247 129.882C649.273 129.859 649.299 129.837 649.326 129.814C649.435 129.72 649.543 129.623 649.651 129.525C650.115 129.099 650.557 128.647 650.974 128.167C651.178 127.933 651.375 127.693 651.566 127.449C651.664 127.321 651.76 127.192 651.857 127.063C651.887 127.02 651.916 126.976 651.947 126.933C652.215 126.54 652.496 126.267 652.927 126.116C653.349 125.967 653.811 126.077 654.191 126.296C654.547 126.5 654.84 126.946 654.945 127.359C655.046 127.756 655.017 128.383 654.779 128.729C653.118 131.152 651.018 133.179 648.528 134.555C647.709 135.008 646.788 134.765 646.283 133.916C645.822 133.141 646.106 131.906 646.872 131.483Z" fill="#FFDFED"/>
<path d="M586.476 174.879C587.165 175.567 588.105 175.537 588.794 174.879C588.931 174.749 589.07 174.621 589.21 174.494C589.283 174.432 589.353 174.37 589.426 174.305C589.433 174.298 589.438 174.295 589.445 174.289C589.455 174.281 589.467 174.271 589.477 174.262C589.487 174.251 589.496 174.245 589.502 174.241C589.769 174.028 590.036 173.821 590.312 173.621C590.945 173.17 591.601 172.764 592.282 172.405C592.447 172.32 592.613 172.236 592.777 172.154C592.792 172.146 592.853 172.119 592.902 172.098C592.949 172.077 593.007 172.05 593.019 172.043C593.359 171.899 593.705 171.764 594.055 171.639C594.773 171.384 595.506 171.188 596.25 171.04C597.095 170.87 597.651 169.711 597.394 168.851C597.102 167.869 596.282 167.429 595.377 167.611C592.07 168.272 589 169.966 586.477 172.365C585.83 172.981 585.852 174.259 586.477 174.878L586.476 174.879Z" fill="#FFDFED"/>
<path d="M593.973 187.55C594.813 187.08 595.633 186.572 596.431 186.02C596.83 185.744 597.222 185.459 597.608 185.164C597.791 185.025 597.972 184.882 598.153 184.738C598.253 184.659 598.351 184.575 598.452 184.495C598.462 184.488 598.466 184.485 598.473 184.479C598.473 184.479 598.473 184.478 598.474 184.477C599.217 183.842 599.936 183.179 600.625 182.476C600.951 182.144 601.269 181.803 601.582 181.456C601.702 181.322 601.82 181.187 601.937 181.051C601.958 180.785 602.019 180.529 602.127 180.309C602.569 179.402 603.591 179.286 604.371 179.67C605.356 180.157 605.537 181.622 605.027 182.556C604.727 183.104 604.259 183.574 603.85 184.028C603.087 184.876 602.279 185.681 601.435 186.435C599.636 188.044 597.704 189.46 595.632 190.622C594.816 191.079 593.889 190.827 593.387 189.983C592.924 189.205 593.211 187.979 593.976 187.55H593.973Z" fill="#FFDFED"/>
<path d="M1851.9 628.421C1820.6 646.764 1847.95 696.396 1814.07 736.205C1769.27 788.852 1683.74 746.311 1654.28 791.206C1635.32 820.098 1652.36 865.702 1671.07 900.299L1920 900.299L1920 636.19C1895.28 623.437 1869.36 618.181 1851.9 628.418L1851.9 628.421Z" fill="#FFD59A"/>
<path d="M1677.28 799.708C1675.05 800.915 1674.26 805.789 1673.67 808.038C1672.86 811.152 1672.38 814.326 1672.2 817.533C1671.84 823.933 1672.56 830.338 1674.11 836.556C1677.25 849.23 1683.48 860.846 1689.95 872.148C1691.67 875.148 1686.96 877.844 1685.25 874.844C1677.95 862.086 1670.87 848.772 1668.03 834.272C1666.65 827.212 1666.25 819.987 1667.22 812.85C1667.67 809.51 1668.4 806.212 1669.51 803.022C1670.54 800.089 1671.6 796.685 1674.53 795.096C1677.6 793.434 1680.35 798.043 1677.28 799.708L1677.28 799.708Z" fill="#FFD59A"/>
<path d="M1876.13 596.291C1884.25 597.121 1892.06 599.584 1899.05 603.756C1902.04 605.54 1899.3 610.161 1896.3 608.368C1882.03 599.847 1863.44 598.998 1848.41 606.226C1832.87 613.7 1822.99 629.062 1820.63 645.634C1820.15 649.023 1814.9 647.581 1815.38 644.216C1817.39 630.123 1824.72 616.584 1836.11 607.64C1847.28 598.861 1861.9 594.838 1876.13 596.291Z" fill="#FFD59A"/>
<path d="M181.92 788.995C186.473 777.948 191.184 766.523 192.446 754.64C193.809 741.823 190.557 730.122 183.53 722.539C173.928 712.178 156.365 709.086 140.825 715.02C127.906 719.952 116.13 730.384 105.828 746.028L100.609 742.715C111.638 725.97 124.412 714.738 138.574 709.332C146.859 706.17 156.201 705.191 164.879 706.576C174.292 708.078 182.331 712.178 188.127 718.431C196.346 727.298 200.173 740.725 198.627 755.271C197.273 768.011 192.397 779.842 187.681 791.282L181.921 788.993L181.92 788.995Z" fill="#D4772E"/>
<path d="M189.359 800.802C195.267 786.468 201.377 771.648 203.023 756.17C204.808 739.357 200.525 723.985 191.27 714.001C178.615 700.348 155.513 696.257 135.089 704.055C118.216 710.497 102.856 724.093 89.4353 744.468L84.2171 741.155C98.3623 719.681 114.721 705.283 132.839 698.367C143.395 694.338 155.298 693.091 166.354 694.854C178.311 696.762 188.516 701.961 195.867 709.892C206.311 721.162 211.174 738.26 209.204 756.802C207.468 773.139 201.19 788.364 195.121 803.091L189.361 800.803L189.359 800.802Z" fill="#7FA9AD"/>
<path d="M197.563 804.049C204.341 787.609 211.349 770.608 213.239 752.82C215.298 733.442 210.351 715.715 199.667 704.187C185.054 688.42 158.395 683.689 134.837 692.682C115.424 700.092 97.7623 715.72 82.343 739.13L77.1248 735.818C93.2699 711.306 111.931 694.879 132.587 686.994C144.601 682.407 158.148 680.988 170.728 682.995C184.319 685.165 195.915 691.071 204.262 700.078C216.137 712.89 221.66 732.344 219.418 753.45C217.436 772.094 210.261 789.501 203.321 806.336L197.561 804.048L197.563 804.049Z" fill="#DF9944"/>
<path d="M205.35 810.128C213.125 791.267 221.166 771.763 223.333 751.357C225.695 729.126 220.02 708.789 207.762 695.564C190.997 677.477 160.415 672.049 133.389 682.365C111.12 690.866 90.8563 708.793 73.1675 735.652L67.1815 731.851C85.7046 703.732 107.11 684.886 130.809 675.84C144.591 670.579 160.133 668.949 174.566 671.254C190.159 673.74 203.46 680.518 213.038 690.851C226.662 705.549 233 727.866 230.426 752.08C228.155 773.471 219.921 793.438 211.96 812.751L205.351 810.126L205.35 810.128Z" fill="#B6D3D6"/>
<path d="M80.2788 719.177C82.6796 714.889 85.2088 710.456 89.246 707.588C93.2831 704.72 99.2953 703.899 103.109 707.046C106.144 709.553 107.015 713.913 106.293 717.74C105.57 721.569 103.515 725.009 101.493 728.361C105.993 724.147 113.048 722.918 118.679 725.499C121.356 726.728 123.794 728.946 124.255 731.811C124.645 734.219 123.562 736.677 121.934 738.519C120.307 740.361 118.179 741.696 116.083 743.004C119.666 744.251 122.51 745.499 125.231 748.106C127.952 750.712 129.884 754.243 130.014 757.973C130.147 761.705 128.282 765.572 124.963 767.398C122.24 768.897 118.876 768.915 115.863 768.113C112.849 767.311 110.11 765.765 107.406 764.235C108.621 768.626 105.254 772.905 101.118 774.957C96.9795 777.009 91.6488 776.169 88.1145 773.226C84.5803 770.282 82.8709 765.489 83.3667 760.965C80.3426 764.624 76.1954 767.325 71.3971 767.305C67.0181 767.285 62.8323 764.211 61.5823 760.092C60.3303 755.972 62.1167 751.145 65.7685 748.774C60.6503 750.483 54.7452 750.506 49.7904 748.388C44.8356 746.269 41.0485 741.059 41.8357 735.81C42.3505 732.373 44.7513 729.34 47.8612 727.684C50.9711 726.029 54.7114 725.687 58.1737 726.394C53.9555 722.627 53.231 715.906 56.0042 711.014C58.7773 706.122 65.1679 703.522 70.6516 705.056C76.1352 706.589 80.5453 713.582 80.2735 719.172L80.2788 719.177Z" fill="#E6E6E6"/>
<path d="M198.628 779.666C199.506 776.529 201.519 773.673 204.327 771.939C207.131 770.206 210.722 769.669 213.863 770.702C217.003 771.735 219.589 774.389 220.303 777.565C221.145 781.316 219.462 785.124 217.817 788.613C221.512 786.166 225.457 784.944 229.851 785.684C234.242 786.423 238.315 789.548 239.439 793.782C240.56 798.017 238.146 803.064 233.881 804.342C237.102 803.625 240.169 806.356 241.174 809.443C242.179 812.531 241.272 815.957 239.614 818.761C237.953 821.573 235.453 824.008 232.336 825.105C229.219 826.202 225.461 825.783 222.996 823.611C224.794 827.871 222.289 832.634 218.404 835.226C214.521 837.819 208.806 837.337 205.435 834.128C202.623 831.454 201.592 827.455 201.236 823.628C199.07 826.805 194.95 828.141 191.074 827.771C187.198 827.402 183.625 824.814 182.124 821.284C180.622 817.755 181.257 813.439 183.714 810.472C178.709 810.792 173.708 809.487 170.253 805.918C166.8 802.348 165.588 796.589 168.037 792.292C170.607 787.782 177.038 785.89 181.708 788.266C177.209 786.009 174.873 779.899 176.76 775.298C178.647 770.697 184.179 767.911 189.119 768.939C194.063 769.966 198.386 774.709 198.63 779.662L198.628 779.666Z" fill="#E6E6E6"/>
</svg>
