<svg width="32" height="30" viewBox="0 0 32 30" fill="none" xmlns="http://www.w3.org/2000/svg">
<path d="M18.3997 1.45839L21.2701 7.14249C21.66 7.91465 22.4137 8.44999 23.286 8.57383L29.7041 9.48548C31.9 9.79747 32.7768 12.4346 31.1877 13.9481L26.5437 18.3725C25.9128 18.9735 25.6247 19.8395 25.7736 20.6885L26.8701 26.9358C27.2453 29.0733 24.9498 30.7032 22.9859 29.6938L17.2454 26.7442C16.4656 26.3435 15.5337 26.3435 14.7538 26.7442L9.01334 29.6938C7.04947 30.7027 4.75391 29.0728 5.12916 26.9358L6.22559 20.6885C6.37454 19.8399 6.08642 18.9739 5.45551 18.3725L0.811484 13.9481C-0.777578 12.4342 0.0992071 9.79704 2.29517 9.48548L8.71322 8.57383C9.58512 8.44999 10.3392 7.91465 10.7291 7.14249L13.5996 1.45839C14.5817 -0.486131 17.4188 -0.486131 18.401 1.45839H18.3997Z" fill="#F8E170"/>
<path d="M14.4687 14.9328C14.8432 14.9328 15.1467 14.3908 15.1467 13.7222C15.1467 13.0536 14.8432 12.5116 14.4687 12.5116C14.0942 12.5116 13.7906 13.0536 13.7906 13.7222C13.7906 14.3908 14.0942 14.9328 14.4687 14.9328Z" fill="#333333"/>
<path d="M17.585 14.9328C17.9595 14.9328 18.2631 14.3908 18.2631 13.7222C18.2631 13.0536 17.9595 12.5116 17.585 12.5116C17.2106 12.5116 16.907 13.0536 16.907 13.7222C16.907 14.3908 17.2106 14.9328 17.585 14.9328Z" fill="#333333"/>
<path d="M12.403 16.6588C12.2892 16.6575 12.1976 16.7557 12.2781 16.933C13.0722 18.678 14.1192 19.8543 15.2281 20.2602C16.3397 20.6669 17.4854 20.2732 18.4952 19.1825C19.0567 18.5759 19.5702 17.7551 20.0029 16.7639C20.0816 16.5836 19.9917 16.4841 19.8779 16.4897L12.4035 16.6588H12.403Z" fill="#333333"/>
<path d="M10.0372 16.5867C10.0372 16.9274 9.76818 17.2033 9.43649 17.2033C9.10481 17.2033 8.83582 16.9274 8.83582 16.5867C8.83582 16.246 9.10481 15.9701 9.43649 15.9701C9.76818 15.9701 10.0372 16.246 10.0372 16.5867Z" fill="white"/>
<path d="M10.6161 15.639C10.9478 15.639 11.2167 15.3629 11.2167 15.0224C11.2167 14.6818 10.9478 14.4058 10.6161 14.4058C10.2843 14.4058 10.0154 14.6818 10.0154 15.0224C10.0154 15.3629 10.2843 15.639 10.6161 15.639Z" fill="white"/>
<path d="M8.67844 15.639C9.01018 15.639 9.27912 15.3629 9.27912 15.0224C9.27912 14.6818 9.01018 14.4058 8.67844 14.4058C8.34669 14.4058 8.07776 14.6818 8.07776 15.0224C8.07776 15.3629 8.34669 15.639 8.67844 15.639Z" fill="white"/>
<path d="M22.6755 16.5867C22.6755 16.9274 22.4065 17.2033 22.0748 17.2033C21.7431 17.2033 21.4741 16.9274 21.4741 16.5867C21.4741 16.246 21.7431 15.9701 22.0748 15.9701C22.4065 15.9701 22.6755 16.246 22.6755 16.5867Z" fill="white"/>
<path d="M23.2544 15.639C23.5861 15.639 23.855 15.3629 23.855 15.0224C23.855 14.6818 23.5861 14.4058 23.2544 14.4058C22.9226 14.4058 22.6537 14.6818 22.6537 15.0224C22.6537 15.3629 22.9226 15.639 23.2544 15.639Z" fill="white"/>
<path d="M21.3163 15.639C21.648 15.639 21.9169 15.3629 21.9169 15.0224C21.9169 14.6818 21.648 14.4058 21.3163 14.4058C20.9845 14.4058 20.7156 14.6818 20.7156 15.0224C20.7156 15.3629 20.9845 15.639 21.3163 15.639Z" fill="white"/>
</svg>
