<svg width="46" height="31" viewBox="0 0 46 31" fill="none" xmlns="http://www.w3.org/2000/svg">
<path d="M43.0244 9.266C40.9799 8.16012 38.5384 7.88178 36.2091 8.12556C33.8798 8.36934 31.6368 9.10441 29.4536 9.92541C31.5991 8.57529 32.0985 5.39683 30.624 3.37422C29.1495 1.35208 26.0801 0.688457 23.7559 1.72522C21.4316 2.76197 19.9819 5.28195 20.0678 7.75476C19.7045 6.08754 19.3283 4.38856 18.4477 2.91282C17.5667 1.43707 16.0807 0.193896 14.3265 0.0201688C12.3472 -0.175508 10.4083 1.07561 9.47718 2.77505C8.54609 4.47449 8.50199 6.52372 8.94526 8.39829C9.38898 10.2729 10.2833 12.0143 11.1703 13.7353C8.76657 12.4384 5.9632 11.1037 3.3794 12.0223C1.53927 12.6766 0.241166 14.4587 0.0326238 16.343C-0.175918 18.2279 0.631148 20.1515 2.00091 21.5086C3.60264 23.096 5.96596 23.9338 8.25027 23.7246C8.73396 23.6802 9.21168 23.5863 9.67699 23.4528C9.25899 26.5691 11.501 29.9157 14.6916 30.7699C18.2727 31.7282 22.3664 29.5963 23.7379 26.259C24.4187 28.3008 26.5923 29.6616 28.8027 29.8583C31.013 30.0549 33.216 29.2469 35.0589 28.0514C37.0727 26.7452 38.8292 24.8043 39.1085 22.4763C39.3487 20.4723 38.1237 18.268 36.2339 17.6077C38.114 17.971 40.0382 18.2311 41.8848 17.7889C44.0487 17.2705 46.0606 15.48 45.9986 13.3266C45.949 11.5922 44.5912 10.1136 43.0244 9.266Z" fill="#76C8CC"/>
<path d="M19.9961 14.6809C19.9961 15.891 19.4412 16.8722 18.7568 16.8722C18.0723 16.8722 17.5175 15.891 17.5175 14.6809C17.5175 13.4709 18.0723 12.4897 18.7568 12.4897C19.4412 12.4897 19.9961 13.4709 19.9961 14.6809Z" fill="#333333"/>
<path d="M26.4614 14.6809C26.4614 15.891 25.9065 16.8722 25.2221 16.8722C24.5377 16.8722 23.9828 15.891 23.9828 14.6809C23.9828 13.4709 24.5377 12.4897 25.2221 12.4897C25.9065 12.4897 26.4614 13.4709 26.4614 14.6809Z" fill="#333333"/>
<path d="M14.3522 18.9508C15.8032 20.4307 17.7173 21.4287 19.7444 21.7729C21.7761 22.118 23.8702 21.7841 25.7159 20.859C26.742 20.3444 27.6805 19.648 28.4719 18.8074C28.6157 18.6547 28.3874 18.4217 28.2432 18.5749C26.8752 20.0282 25.0668 21.0201 23.1265 21.4068C21.1766 21.7953 19.128 21.5217 17.3287 20.6699C16.3085 20.187 15.3751 19.5285 14.5809 18.7182C14.4339 18.5683 14.2052 18.8004 14.3522 18.9508Z" fill="#333333"/>
<path d="M30.9878 16.2152C30.9878 16.4571 30.602 16.6532 30.1256 16.6532C29.6493 16.6532 29.2634 16.4571 29.2634 16.2152C29.2634 15.9732 29.6493 15.7771 30.1256 15.7771C30.602 15.7771 30.9878 15.9732 30.9878 16.2152Z" fill="#FFE1D7"/>
<path d="M33.7893 16.2152C33.7893 16.4571 33.4035 16.6532 32.9271 16.6532C32.4508 16.6532 32.0649 16.4571 32.0649 16.2152C32.0649 15.9732 32.4508 15.7771 32.9271 15.7771C33.4035 15.7771 33.7893 15.9732 33.7893 16.2152Z" fill="#FFE1D7"/>
<path d="M32.2809 17.7488C32.2809 17.9908 31.895 18.1869 31.4187 18.1869C30.9424 18.1869 30.5565 17.9908 30.5565 17.7488C30.5565 17.5069 30.9424 17.3108 31.4187 17.3108C31.895 17.3108 32.2809 17.5069 32.2809 17.7488Z" fill="#FFE1D7"/>
<path d="M10.8363 16.8722C11.3125 16.8722 11.6985 16.6761 11.6985 16.4341C11.6985 16.1922 11.3125 15.9961 10.8363 15.9961C10.3601 15.9961 9.97412 16.1922 9.97412 16.4341C9.97412 16.6761 10.3601 16.8722 10.8363 16.8722Z" fill="#FFE1D7"/>
<path d="M14.5 16.4341C14.5 16.6761 14.1142 16.8722 13.6378 16.8722C13.1615 16.8722 12.7756 16.6761 12.7756 16.4341C12.7756 16.1922 13.1615 15.9961 13.6378 15.9961C14.1142 15.9961 14.5 16.1922 14.5 16.4341Z" fill="#FFE1D7"/>
<path d="M12.9916 17.9678C12.9916 18.2097 12.6057 18.4059 12.1294 18.4059C11.6531 18.4059 11.2672 18.2097 11.2672 17.9678C11.2672 17.7259 11.6531 17.5298 12.1294 17.5298C12.6057 17.5298 12.9916 17.7259 12.9916 17.9678Z" fill="#FFE1D7"/>
</svg>
