<svg width="62" height="18" viewBox="0 0 62 18" fill="none" xmlns="http://www.w3.org/2000/svg">
<path d="M3.94173 10.182C3.78946 10.0714 3.49528 9.85215 3.16966 9.60713C2.63418 8.43961 2.08674 7.24593 1.46512 5.88625C1.25453 5.72279 0.914496 5.4425 0.519839 5.1231L8.03349e-07 3.1974C0.0563254 2.89824 0.125247 2.53693 0.196773 2.13085C0.437813 1.89932 0.702537 1.64672 0.959366 1.40114C1.10995 1.36049 1.25402 1.27753 1.38042 1.29237C3.06209 1.51892 4.71982 1.38476 6.40456 1.22371C8.33312 1.04091 10.1979 0.694197 12.0391 0.133513C12.7813 -0.0913258 13.497 -0.0152679 14.255 0.235426C15.1444 0.827637 15.5877 1.72629 15.8366 3.08377C15.7709 3.18475 15.5794 3.49102 15.3846 3.80309C13.7281 4.25025 12.172 4.67031 10.3193 5.17044C11.0857 5.56086 11.6768 5.71951 12.061 6.0907C12.5303 6.5417 13.0786 6.61401 13.6269 6.81358C15.6969 7.57177 17.7397 8.41073 19.8097 9.16891C20.6848 9.4908 21.5211 9.94068 22.5411 9.85626C23.0917 9.81043 23.6821 10.1113 24.2329 10.32C26.4395 11.149 28.6954 11.6709 31.0634 11.8101C32.8196 11.9138 34.5559 12.3067 36.3099 12.4746C37.5412 12.5926 38.776 12.8321 40.0316 12.5323C40.519 12.4154 41.0615 12.4844 41.5725 12.5276C44.2184 12.7533 46.8547 12.7075 49.471 12.2069C51.1889 12.5313 52.7498 11.5127 54.4831 11.6763C55.3182 11.7593 56.2242 11.3434 57.0652 11.0674C58.2083 10.6952 59.364 10.5693 60.6041 10.6653C61.3359 11.2364 61.9215 11.9547 61.9124 13.0636C61.4509 13.4036 60.9862 13.7494 60.5384 14.0857C57.8689 14.8063 55.2176 15.522 52.5664 16.2377C52.3519 16.2956 52.1169 16.4227 51.9214 16.3873C50.148 16.0387 48.4186 16.6328 46.6572 16.6187C45.7833 16.6098 44.956 17.1905 44.0432 16.8739C42.5794 17.2005 41.1429 16.5945 39.6661 16.7826C38.5166 16.9313 37.3376 16.7894 36.1645 16.5969C34.6578 16.3476 33.1102 16.3639 31.5922 16.1813C29.7812 15.9652 27.958 15.7768 26.2662 15.0047C26.0707 14.9155 25.8379 14.851 25.6294 14.8584C23.906 14.9124 22.3521 14.1617 20.7184 13.8047C19.0537 13.4414 17.4312 12.9443 15.976 12.0153C15.7927 11.8983 15.5693 11.7236 15.3793 11.7455C13.9877 11.8862 13.0555 10.8992 11.9225 10.4021C10.7838 9.90169 9.64756 9.41041 8.42104 8.87494C8.46595 9.62167 8.50202 10.2631 8.53931 10.909C9.10901 12.3121 9.68486 13.738 10.3629 15.4154C10.2113 15.8333 9.96705 16.5063 9.72946 17.1677C9.02516 17.3154 8.26061 17.3064 7.43581 17.1407C6.98285 15.4809 6.00621 14.0212 5.01465 12.5606C4.56781 11.9028 4.34188 11.1021 3.93963 10.1924L3.94173 10.182Z" fill="white"/>
</svg>
