<svg width="53" height="32" viewBox="0 0 53 32" fill="none" xmlns="http://www.w3.org/2000/svg">
<path d="M4.08976 29.7026C4.6055 27.1995 5.32837 24.7663 6.23963 22.4403C6.17198 22.6127 6.10432 22.7851 6.03666 22.9575C7.17535 20.0697 8.59923 17.3631 10.2802 14.921C10.1813 15.0645 10.0824 15.2085 9.98356 15.352C11.5318 13.1139 13.2888 11.1117 15.2274 9.42071C15.103 9.52899 14.9791 9.63727 14.8547 9.74555C16.6559 8.18335 18.5997 6.90814 20.6491 5.95988C20.5055 6.02611 20.3619 6.09182 20.2182 6.15805C22.3795 5.16774 24.6335 4.54013 26.9166 4.28624C26.7594 4.30359 26.6028 4.32093 26.4456 4.33775C28.6699 4.09911 30.9072 4.21738 33.0956 4.71411C32.941 4.67889 32.787 4.64368 32.6324 4.60793C34.6329 5.0705 36.5772 5.84792 38.406 6.94914C38.2697 6.86661 38.1333 6.78461 37.9975 6.70209C39.6821 7.72656 41.2475 9.02647 42.6646 10.5556C42.5517 10.4336 42.4388 10.3117 42.3264 10.1897C43.7862 11.7761 45.0778 13.5927 46.1718 15.5917C46.0875 15.4372 46.0032 15.2832 45.9194 15.1286C46.9914 17.1014 47.8647 19.2381 48.5038 21.4942C48.4533 21.3149 48.4028 21.1357 48.3529 20.9564C48.9524 23.0963 49.3354 25.3271 49.4707 27.5984C49.4593 27.4013 49.4484 27.2047 49.4369 27.0076C49.4676 27.5469 49.4843 28.0873 49.4879 28.6287C49.4916 29.2211 49.6061 29.772 49.9256 30.2203C50.2113 30.6209 50.6969 30.9389 51.1361 30.9394C52.0359 30.941 53.0091 30.0711 53.0018 28.8326C52.9836 25.8722 52.6146 22.9339 51.8465 20.1475C51.4379 18.6657 50.9722 17.2223 50.3909 15.8362C49.8215 14.48 49.158 13.1906 48.4408 11.9527C45.6274 7.09685 41.6025 3.40211 37.0659 1.4688C32.1812 -0.612212 25.6593 -0.328366 20.6429 1.35894C15.7691 2.99842 11.2976 6.32625 7.75979 10.8767C4.30834 15.3158 2.20999 19.5877 0.703358 25.4769C0.526934 26.1671 0.246426 27.4733 0.101748 28.1745C-0.0184703 28.7585 -0.0668697 29.5512 0.154311 30.0979C0.344786 30.5683 1.43924 30.9752 1.85193 31.1192C2.29534 31.2742 2.80119 31.2758 3.21649 30.9752C3.599 30.6981 3.97474 30.2571 4.08872 29.7021L4.08976 29.7026Z" fill="#F99A9A"/>
<path d="M6.5394 29.383C7.03277 27.3009 7.6911 25.2809 8.50088 23.3512C8.43115 23.5173 8.36141 23.6829 8.29167 23.849C9.34137 21.3611 10.6377 19.0362 12.1537 16.9447C12.0538 17.0819 11.9539 17.2191 11.854 17.3563C13.2654 15.4198 14.8589 13.6952 16.6091 12.2497C16.4852 12.3517 16.3608 12.4542 16.237 12.5561C17.8649 11.22 19.6151 10.1408 21.4542 9.35497C21.3122 9.41595 21.1701 9.4764 21.0275 9.53737C22.9229 8.73577 24.8911 8.24324 26.8786 8.06926C26.7241 8.0824 26.5695 8.09501 26.4154 8.10815C28.3972 7.94205 30.3852 8.09449 32.3223 8.58281C32.1713 8.54496 32.0204 8.50659 31.8695 8.46874C33.5963 8.91186 35.2689 9.62042 36.838 10.6023C36.7058 10.5187 36.5736 10.4357 36.4414 10.3521C37.9054 11.2762 39.259 12.4384 40.4789 13.7977C40.3706 13.6763 40.2618 13.5548 40.1536 13.434C41.4099 14.8432 42.5148 16.4501 43.4416 18.2115L43.2028 17.7552C44.1109 19.493 44.8416 21.3701 45.363 23.3465C45.3172 23.1709 45.2709 22.9954 45.2251 22.8203C45.7138 24.6942 46.0099 26.6433 46.0864 28.6218C46.0792 28.43 46.0719 28.2386 46.0646 28.0468C46.0802 28.4904 46.0854 28.9346 46.0802 29.3793C46.0729 29.9554 46.1733 30.4926 46.4788 30.9368C46.7515 31.3331 47.2225 31.6537 47.6529 31.6648C48.1 31.6769 48.5751 31.5328 48.9149 31.137C49.2397 30.7596 49.5181 30.2298 49.5254 29.6626C49.5582 27.0644 49.2803 24.4877 48.6459 22.0277C48.3133 20.7372 47.9319 19.4778 47.4468 18.2656C46.9545 17.0341 46.3716 15.8603 45.7393 14.7349C43.3334 10.4546 39.8403 7.15832 35.8778 5.38481C31.5999 3.47042 26.7855 3.25648 22.3286 4.62315C17.9991 5.95039 13.9914 8.75101 10.7803 12.6376C7.65571 16.4201 5.2295 21.0805 3.7671 26.1681C3.59588 26.7632 3.43976 27.3634 3.29612 27.969C3.16341 28.5293 3.14936 29.1028 3.35441 29.6353C3.53239 30.0973 3.91282 30.5551 4.31511 30.7055C4.74758 30.8668 5.24407 30.8805 5.65781 30.5988C6.04084 30.3375 6.4119 29.9202 6.53888 29.383H6.5394Z" fill="#F8CC6A"/>
<path d="M9.73789 29.7851C10.1173 27.7818 10.6934 25.8396 11.4433 23.9983C11.3751 24.1649 11.3075 24.3321 11.2393 24.4987C12.0527 22.5154 13.0634 20.661 14.2479 18.9863C14.1495 19.1245 14.0512 19.2633 13.9528 19.4015C15.0884 17.8041 16.3764 16.3807 17.7946 15.1833C17.6718 15.2868 17.5489 15.3909 17.4256 15.4944C18.7402 14.3911 20.1557 13.4944 21.6452 12.831C21.5036 12.8936 21.3621 12.9561 21.2205 13.0187C22.824 12.3122 24.4935 11.8749 26.1823 11.7104C26.0282 11.7251 25.8736 11.7403 25.7196 11.755C27.3865 11.5989 29.0602 11.7088 30.6954 12.0941C30.5439 12.0578 30.393 12.0215 30.2416 11.9853C31.7753 12.3532 33.2631 12.9624 34.66 13.8177L34.2608 13.5727C35.5416 14.3643 36.7292 15.3615 37.8023 16.531C37.6925 16.4112 37.5827 16.2913 37.4734 16.1715C38.585 17.391 39.565 18.785 40.393 20.3141C40.3118 20.1632 40.2306 20.0118 40.1489 19.861C40.9816 21.4095 41.6534 23.0868 42.1379 24.8551C42.0901 24.68 42.0422 24.5055 41.9943 24.3305C42.445 25.992 42.726 27.7214 42.815 29.4791C42.8056 29.2878 42.7963 29.0959 42.7869 28.9046C42.7999 29.1722 42.8082 29.4397 42.8129 29.7078C42.8223 30.2918 42.9113 30.8106 43.2282 31.26C43.5051 31.6532 43.9792 31.9675 44.4101 31.9733C44.8577 31.9796 45.3307 31.8293 45.6664 31.4298C45.9823 31.0534 46.2701 30.5094 46.2613 29.948C46.2415 28.7317 46.1624 27.5127 45.9891 26.3179C45.8163 25.1253 45.5415 23.9757 45.2256 22.8335C44.6401 20.7172 43.7752 18.7718 42.7359 16.9568C40.6173 13.2563 37.5754 10.4083 34.1375 8.84719C30.4508 7.17302 26.2874 6.95278 22.4425 8.11392C18.7126 9.24037 15.2502 11.6762 12.5341 15.0802C9.90651 18.3734 7.88934 22.4408 6.81259 26.8725C6.68872 27.3813 6.57892 27.8949 6.48108 28.4121C6.3926 28.6923 6.36502 28.9766 6.39989 29.2657C6.39364 29.5522 6.44569 29.8224 6.55758 30.0778C6.74077 30.5373 7.12536 30.9904 7.52973 31.1354C7.96376 31.2915 8.46077 31.2989 8.87086 31.0119C9.24088 30.7528 9.63745 30.3196 9.73893 29.7851H9.73789Z" fill="#B9CD7A"/>
<path d="M13.1446 29.3362C13.1868 29.0728 13.2331 28.8105 13.2841 28.5493C13.2477 28.737 13.2112 28.9246 13.1748 29.1123C13.4944 27.4891 13.9882 25.9216 14.6315 24.4451L14.415 24.9392C15.0843 23.4133 15.9091 21.9951 16.8651 20.7215C16.7631 20.8571 16.6617 20.9927 16.5597 21.1278C17.4756 19.9151 18.506 18.8412 19.6317 17.9434C19.5063 18.0433 19.3809 18.1437 19.2554 18.2436C20.3353 17.3878 21.4938 16.705 22.7053 16.2083C22.5622 16.2666 22.4191 16.325 22.276 16.3833C23.5994 15.8472 24.9707 15.5334 26.352 15.4388C26.1974 15.4493 26.0428 15.4593 25.8883 15.4698C27.3038 15.3783 28.7194 15.5166 30.0964 15.885C29.946 15.8446 29.7956 15.8036 29.6457 15.7631C30.9556 16.1195 32.2208 16.683 33.4021 17.4546C33.271 17.3689 33.1404 17.2838 33.0092 17.1981C34.1354 17.9398 35.1737 18.8654 36.1063 19.9393C35.9996 19.8163 35.8929 19.6933 35.7862 19.5698C36.7568 20.6946 37.6051 21.973 38.3134 23.3686C38.2358 23.2151 38.1583 23.0621 38.0808 22.9086C38.7937 24.3226 39.36 25.848 39.757 27.4491C39.7138 27.273 39.6701 27.097 39.6269 26.9203C39.8934 28.0058 40.0807 29.1207 40.1827 30.2534C40.2296 30.7712 40.5335 31.3189 40.8655 31.6117C41.2116 31.9171 41.7456 32.0848 42.1728 31.9591C42.6032 31.833 43.0321 31.5518 43.284 31.0776C43.5509 30.5746 43.6498 30.04 43.5962 29.445C43.259 25.7014 42.0276 22.1286 40.2114 19.1677C38.354 16.14 35.795 13.7625 32.9041 12.4447C31.3746 11.7472 29.7311 11.323 28.0943 11.1968C26.4404 11.0696 24.7392 11.2215 23.1108 11.6815C19.9903 12.563 17.0551 14.5247 14.771 17.3584C12.5644 20.0959 10.8444 23.4884 10.0387 27.2257C9.91279 27.8108 9.79882 28.4011 9.7041 28.9945C9.6224 29.507 9.82588 30.1762 10.0804 30.5583C10.3473 30.9594 10.8136 31.2874 11.244 31.3063C11.6911 31.3257 12.1678 31.1896 12.5134 30.8001C12.6154 30.6645 12.7168 30.5289 12.8188 30.3938C13.0026 30.0752 13.1113 29.7231 13.1446 29.3367V29.3362Z" fill="#6CB7B7"/>
</svg>
