<svg width="62" height="18" viewBox="0 0 62 18" fill="none" xmlns="http://www.w3.org/2000/svg">
<path d="M57.9707 10.182C58.123 10.0714 58.4172 9.85215 58.7428 9.60713C59.2783 8.43961 59.8257 7.24593 60.4473 5.88625C60.6579 5.72279 60.998 5.4425 61.3926 5.1231L61.9125 3.1974C61.8561 2.89824 61.7872 2.53693 61.7157 2.13085C61.4746 1.89932 61.2099 1.64672 60.9531 1.40114C60.8025 1.36049 60.6584 1.27753 60.532 1.29237C58.8504 1.51892 57.1926 1.38476 55.5079 1.22371C53.5793 1.04091 51.7146 0.694197 49.8734 0.133513C49.1311 -0.0913258 48.4154 -0.0152679 47.6574 0.235426C46.7681 0.827637 46.3248 1.72629 46.0758 3.08377C46.1416 3.18475 46.3331 3.49102 46.5279 3.80309C48.1844 4.25025 49.7404 4.67031 51.5931 5.17044C50.8268 5.56086 50.2356 5.71951 49.8515 6.0907C49.3821 6.5417 48.8339 6.61401 48.2855 6.81358C46.2155 7.57177 44.1727 8.41073 42.1027 9.16891C41.2276 9.4908 40.3914 9.94068 39.3714 9.85626C38.8207 9.81043 38.2304 10.1113 37.6795 10.32C35.473 11.149 33.2171 11.6709 30.8491 11.8101C29.0929 11.9138 27.3565 12.3067 25.6026 12.4746C24.3712 12.5926 23.1365 12.8321 21.8809 12.5323C21.3935 12.4154 20.851 12.4844 20.34 12.5276C17.694 12.7533 15.0578 12.7075 12.4415 12.2069C10.7236 12.5313 9.16263 11.5127 7.4294 11.6763C6.59429 11.7593 5.68824 11.3434 4.84723 11.0674C3.70417 10.6952 2.54849 10.5693 1.3084 10.6653C0.576532 11.2364 -0.009033 11.9547 5.84746e-05 13.0636C0.461507 13.4036 0.926282 13.7494 1.37404 14.0857C4.04356 14.8063 6.69482 15.522 9.34608 16.2377C9.56055 16.2956 9.79552 16.4227 9.9911 16.3873C11.7645 16.0387 13.4939 16.6328 15.2553 16.6187C16.1291 16.6098 16.9564 17.1905 17.8693 16.8739C19.3331 17.2005 20.7696 16.5945 22.2463 16.7826C23.3958 16.9313 24.5749 16.7894 25.748 16.5969C27.2546 16.3476 28.8022 16.3639 30.3202 16.1813C32.1313 15.9652 33.9544 15.7768 35.6463 15.0047C35.8417 14.9155 36.0745 14.851 36.2831 14.8584C38.0065 14.9124 39.5604 14.1617 41.194 13.8047C42.8588 13.4414 44.4813 12.9443 45.9364 12.0153C46.1198 11.8983 46.3432 11.7236 46.5331 11.7455C47.9247 11.8862 48.857 10.8992 49.9899 10.4021C51.1286 9.90169 52.2649 9.41041 53.4914 8.87494C53.4465 9.62167 53.4104 10.2631 53.3731 10.909C52.8034 12.3121 52.2276 13.738 51.5496 15.4154C51.7011 15.8333 51.9454 16.5063 52.183 17.1677C52.8873 17.3154 53.6518 17.3064 54.4766 17.1407C54.9296 15.4809 55.9062 14.0212 56.8978 12.5606C57.3446 11.9028 57.5706 11.1021 57.9728 10.1924L57.9707 10.182Z" fill="#F5F5F5"/>
</svg>
