<svg width="49" height="45" viewBox="0 0 49 45" fill="none" xmlns="http://www.w3.org/2000/svg">
<path d="M16.109 19.0976C15.0963 21.3948 15.1221 24.2189 16.5421 26.2927C17.6927 27.9721 19.5917 28.9937 21.5114 29.6918C23.377 30.3703 25.3948 30.8058 27.3504 30.4572C30.4723 29.9007 33.0474 27.2394 33.673 24.1486C34.2985 21.0583 33.0418 17.7109 30.6592 15.6307C28.7142 13.9326 26.2806 13.2139 23.7186 13.3751C22.8894 13.4273 21.9202 13.6744 21.2815 13.9567C20.3178 14.3821 19.3724 14.9446 18.6078 15.6608C17.5669 16.6361 16.6856 17.7913 16.11 19.0981L16.109 19.0976Z" fill="#F8E170"/>
<path d="M23.4094 20.9503C23.4094 21.7002 23.0577 22.3079 22.6241 22.3079C22.1906 22.3079 21.8389 21.7002 21.8389 20.9503C21.8389 20.2005 22.1906 19.5928 22.6241 19.5928C23.0577 19.5928 23.4094 20.2005 23.4094 20.9503Z" fill="#333333"/>
<path d="M27.5066 20.9503C27.5066 21.7002 27.1549 22.3079 26.7213 22.3079C26.2877 22.3079 25.936 21.7002 25.936 20.9503C25.936 20.2005 26.2877 19.5928 26.7213 19.5928C27.1549 19.5928 27.5066 20.2005 27.5066 20.9503Z" fill="#333333"/>
<path d="M19.8333 23.5956C20.753 24.5127 21.9657 25.1305 23.2503 25.3439C24.5378 25.5579 25.8648 25.351 27.0341 24.7779C27.6845 24.459 28.2792 24.0281 28.7805 23.5072C28.8715 23.4123 28.7269 23.2682 28.6355 23.3631C27.7688 24.2631 26.6228 24.8778 25.3933 25.1174C24.1578 25.358 22.8596 25.1887 21.7191 24.6609C21.0728 24.3615 20.4811 23.9537 19.9778 23.452C19.8848 23.3591 19.7398 23.5032 19.8328 23.5961L19.8333 23.5956Z" fill="#333333"/>
<path d="M30.3747 21.9006C30.3747 22.0508 30.1302 22.1723 29.8285 22.1723C29.5268 22.1723 29.2822 22.0508 29.2822 21.9006C29.2822 21.7504 29.5268 21.6289 29.8285 21.6289C30.1302 21.6289 30.3747 21.7504 30.3747 21.9006Z" fill="#FEB048"/>
<path d="M32.1499 21.9006C32.1499 22.0508 31.9053 22.1723 31.6036 22.1723C31.3019 22.1723 31.0574 22.0508 31.0574 21.9006C31.0574 21.7504 31.3019 21.6289 31.6036 21.6289C31.9053 21.6289 32.1499 21.7504 32.1499 21.9006Z" fill="#FEB048"/>
<path d="M31.1938 22.8508C31.1938 23.0005 30.9492 23.122 30.6476 23.122C30.3459 23.122 30.1013 23.0005 30.1013 22.8508C30.1013 22.7011 30.3459 22.5791 30.6476 22.5791C30.9492 22.5791 31.1938 22.7006 31.1938 22.8508Z" fill="#FEB048"/>
<path d="M18.1515 22.0362C18.1515 22.1864 17.9069 22.3074 17.6052 22.3074C17.3035 22.3074 17.059 22.1859 17.059 22.0362C17.059 21.8866 17.3035 21.7645 17.6052 21.7645C17.9069 21.7645 18.1515 21.8861 18.1515 22.0362Z" fill="#FEB048"/>
<path d="M19.9266 22.0362C19.9266 22.1864 19.682 22.3074 19.3804 22.3074C19.0787 22.3074 18.8341 22.1859 18.8341 22.0362C18.8341 21.8866 19.0787 21.7645 19.3804 21.7645C19.682 21.7645 19.9266 21.8861 19.9266 22.0362Z" fill="#FEB048"/>
<path d="M18.9706 22.9864C18.9706 23.1366 18.726 23.2581 18.4243 23.2581C18.1226 23.2581 17.8781 23.1366 17.8781 22.9864C17.8781 22.8363 18.1226 22.7147 18.4243 22.7147C18.726 22.7147 18.9706 22.8363 18.9706 22.9864Z" fill="#FEB048"/>
<path d="M23.942 1.29933C24.0749 0.953287 24.2341 0.602223 24.5135 0.357131C24.793 0.112039 25.2225 0.000541799 25.5464 0.183859C25.9421 0.407857 26.0158 0.934202 26.0376 1.38622C26.179 4.32079 26.0032 7.27043 25.5135 10.1683C25.4246 10.6957 25.1861 12.1256 24.3639 11.9327C23.565 11.7454 23.4973 10.6334 23.4165 10.0006C23.1784 8.13278 23.0238 6.23482 23.2265 4.35595C23.3391 3.3133 23.5655 2.2807 23.9415 1.29933H23.942Z" fill="#F8E170"/>
<path d="M33.8544 0.660954C34.1354 0.336006 34.4825 -0.00200004 34.9136 8.91142e-06C35.3855 0.00201786 35.7645 0.438965 35.857 0.899014C35.9495 1.35906 35.8226 1.83217 35.6842 2.28017C34.4962 6.11626 32.3213 9.64649 29.4227 12.4414C29.1974 12.6589 28.6284 13.0728 28.3803 12.6403C28.2266 12.3731 28.5197 11.898 28.6011 11.6434C28.9053 10.6932 29.2039 9.74191 29.5329 8.79972C29.8614 7.85953 30.2146 6.92737 30.6113 6.0138C31.0049 5.10827 31.4415 4.22031 31.9397 3.36651C32.4334 2.51974 32.9878 1.70712 33.6119 0.94974C33.6917 0.852809 33.7731 0.756379 33.8554 0.661456L33.8544 0.660954Z" fill="#F8E170"/>
<path d="M41.3741 8.53346C41.7344 8.43804 42.1139 8.3612 42.4772 8.44306C42.8405 8.52493 43.1831 8.80568 43.2231 9.17432C43.2716 9.62432 42.885 9.99146 42.5292 10.2737C40.2174 12.1044 37.7075 13.6884 35.0571 14.9892C34.5745 15.2263 33.2682 15.8707 32.9448 15.0947C32.6305 14.3413 33.4981 13.6357 33.9671 13.2008C35.3522 11.916 36.81 10.681 38.4619 9.74536C39.3786 9.22605 40.3538 8.80417 41.3746 8.53346H41.3741Z" fill="#F8E170"/>
<path d="M47.6941 18.63C48.1231 18.6662 48.6022 18.7485 48.8528 19.0971C49.1272 19.4788 48.9923 20.0398 48.6714 20.3833C48.35 20.7268 47.8902 20.9016 47.443 21.0518C43.6177 22.3385 39.4645 22.6504 35.4881 21.9493C35.1788 21.8945 34.5083 21.6786 34.716 21.2251C34.8443 20.9448 35.4032 20.9031 35.6584 20.8198C36.6114 20.5089 37.5629 20.193 38.5241 19.9072C39.4832 19.6219 40.4503 19.3613 41.4281 19.1468C42.3973 18.9339 43.3777 18.7666 44.3656 18.6687C45.3454 18.5712 46.3328 18.5421 47.3161 18.6024C47.442 18.6099 47.5683 18.6195 47.6941 18.63Z" fill="#F8E170"/>
<path d="M43.6945 32.8513C43.8981 33.1617 44.0891 33.4962 44.124 33.8653C44.1589 34.2345 43.9967 34.6448 43.6566 34.7975C43.2417 34.9833 42.7697 34.7327 42.3897 34.4841C39.9197 32.8699 37.6246 30.992 35.5563 28.8927C35.1798 28.5105 34.157 27.4774 34.7983 26.9304C35.4208 26.3991 36.3653 26.9992 36.9272 27.3066C38.5867 28.2152 40.2209 29.2081 41.6297 30.4772C42.4115 31.1819 43.1179 31.9714 43.6945 32.8513Z" fill="#F8E170"/>
<path d="M37.9752 42.2312C38.0743 42.648 38.1445 43.1257 37.8893 43.4707C37.6099 43.8484 37.0313 43.8961 36.6028 43.6992C36.1743 43.5028 35.864 43.1227 35.5815 42.747C33.161 39.5342 31.5708 35.7081 31.0043 31.7339C30.9603 31.425 30.9583 30.7244 31.4566 30.7792C31.7643 30.8133 31.9781 31.3281 32.1372 31.5436C32.731 32.3471 33.3288 33.1472 33.9013 33.9664C34.4723 34.7835 35.0226 35.6162 35.532 36.473C36.0368 37.3223 36.5017 38.1962 36.9029 39.0987C37.3011 39.9937 37.6356 40.9178 37.8843 41.865C37.9161 41.9866 37.9464 42.1081 37.9752 42.2302V42.2312Z" fill="#F8E170"/>
<path d="M6.55292 36.6272C6.15321 36.7387 5.73178 36.8296 5.33156 36.7472C4.93135 36.6649 4.55842 36.3645 4.52153 35.9627C4.47656 35.472 4.91063 35.0632 5.30983 34.7483C7.90112 32.7037 10.7062 30.9253 13.6613 29.4527C14.1994 29.1845 15.6553 28.4553 15.9984 29.2965C16.3314 30.1132 15.3581 30.9012 14.8316 31.3853C13.2757 32.8157 11.64 34.1928 9.79608 35.247C8.7728 35.8321 7.68687 36.3113 6.55292 36.6272Z" fill="#F8E170"/>
<path d="M1.30663 25.583C0.877608 25.5469 0.398564 25.4645 0.147924 25.1159C-0.126465 24.7342 0.00795034 24.1732 0.329335 23.8297C0.650719 23.4862 1.11056 23.3114 1.55777 23.1612C5.38305 21.8745 9.53629 21.5626 13.5127 22.2637C13.8219 22.3185 14.4925 22.5344 14.2848 22.988C14.1564 23.2682 13.5976 23.3099 13.3424 23.3933C12.3893 23.7042 11.4378 24.0201 10.4767 24.3058C9.51759 24.5911 8.55041 24.8518 7.57261 25.0662C6.60341 25.2792 5.62308 25.4464 4.63518 25.5444C3.65536 25.6418 2.66796 25.6709 1.68461 25.6106C1.55878 25.6031 1.43245 25.5936 1.30663 25.583Z" fill="#F8E170"/>
<path d="M5.87118 11.3617C5.66753 11.0513 5.47652 10.7168 5.44165 10.3477C5.40678 9.97853 5.56899 9.5682 5.90857 9.41552C6.32344 9.22969 6.79541 9.48031 7.17541 9.72892C9.64542 11.3431 11.9406 13.221 14.0089 15.3203C14.3853 15.7025 15.4081 16.7356 14.7669 17.2826C14.1443 17.8139 13.1999 17.2138 12.6379 16.9064C10.9785 15.9978 9.34425 15.0049 7.93541 13.7358C7.15368 13.0311 6.44724 12.2416 5.87067 11.3617H5.87118Z" fill="#F8E170"/>
<path d="M11.5909 1.98175C11.4919 1.56489 11.4216 1.08726 11.6768 0.742224C11.9563 0.364541 12.5349 0.316829 12.9634 0.513706C13.3919 0.710081 13.7022 1.09027 13.9846 1.46595C16.4051 4.67876 17.9954 8.50481 18.5618 12.479C18.6058 12.7879 18.6078 13.4885 18.1096 13.4338C17.8018 13.3996 17.5881 12.8848 17.4289 12.6694C16.8352 11.8658 16.2374 11.0652 15.6648 10.2466C15.0938 9.42943 14.5435 8.59672 14.0342 7.7399C13.5293 6.89062 13.0644 6.01673 12.6632 5.1142C12.265 4.21922 11.9305 3.2951 11.6819 2.34788C11.65 2.22634 11.6197 2.1048 11.5909 1.98275V1.98175Z" fill="#F8E170"/>
<path d="M27.409 43.7936C27.2761 44.1396 27.117 44.4907 26.8375 44.7358C26.5581 44.9809 26.1285 45.0924 25.8046 44.9091C25.409 44.6851 25.3352 44.1587 25.3135 43.7067C25.172 40.7721 25.3478 37.8225 25.8375 34.9246C25.9264 34.3972 26.1644 32.9674 26.9871 33.1602C27.786 33.3476 27.8537 34.46 27.9346 35.0923C28.1726 36.9601 28.3272 38.8581 28.1246 40.737C28.0119 41.7796 27.7855 42.8122 27.4095 43.7936H27.409Z" fill="#F8E170"/>
<path d="M16.3444 44.1498C16.062 44.4732 15.7133 44.8092 15.2828 44.8057C14.8108 44.8017 14.4338 44.3627 14.3434 43.9027C14.2529 43.4426 14.3818 42.97 14.5228 42.5225C15.7284 38.6914 17.92 35.1718 20.8317 32.3899C21.0581 32.1734 21.6286 31.7621 21.8752 32.196C22.0273 32.4637 21.7322 32.9378 21.6498 33.1919C21.3416 34.1407 21.0384 35.0909 20.7049 36.0311C20.3718 36.9698 20.0146 37.8999 19.6134 38.812C19.2157 39.716 18.7745 40.602 18.2727 41.4532C17.775 42.2975 17.2171 43.1081 16.5895 43.8625C16.5092 43.9594 16.4273 44.0548 16.3449 44.1498H16.3444Z" fill="#F8E170"/>
</svg>
